<?xml version="1.0" standalone="no"?>
<!DOCTYPE svg PUBLIC "-//W3C//DTD SVG 1.1//EN" "http://www.w3.org/Graphics/SVG/1.1/DTD/svg11.dtd" >
<svg xmlns="http://www.w3.org/2000/svg" xmlns:xlink="http://www.w3.org/1999/xlink" version="1.1">
<metadata>
Created by FontForge 20170731 at Wed Apr  1 16:10:26 2020
 By Aleksey,,,
Copyright 2006 The Inconsolata Project Authors (https://github.com/cyrealtype/Inconsolata)
</metadata>
<defs>
<font id="Inconsolata-Regular" horiz-adv-x="500" >
  <font-face 
    font-family="Inconsolata"
    font-weight="400"
    font-stretch="normal"
    units-per-em="1000"
    panose-1="0 0 5 9 0 0 0 0 0 0"
    ascent="800"
    descent="-200"
    x-height="457"
    cap-height="623"
    bbox="-80 -400 1455 1000"
    underline-thickness="50"
    underline-position="-275"
    unicode-range="U+000D-FFFD"
  />
<missing-glyph 
 />
    <glyph glyph-name=".notdef" 
 />
    <glyph glyph-name=".null" horiz-adv-x="0" 
 />
    <glyph glyph-name="nonmarkingreturn" horiz-adv-x="333" 
 />
    <glyph glyph-name="NULL" 
 />
    <glyph glyph-name="NULL" 
 />
    <glyph glyph-name="CR" unicode="&#xd;" 
 />
    <glyph glyph-name="space" unicode=" " 
 />
    <glyph glyph-name="exclam" unicode="!" 
d="M215 194l-25 400q0 24 6 40.5t17.5 25t27.5 8.5t27 -8.5t17.5 -27t6.5 -48.5l-27 -390h-50zM239 -11q-24 0 -41.5 17t-17.5 41t17.5 42t41.5 18t42 -18t18 -42q0 -23 -18 -40.5t-42 -17.5z" />
    <glyph glyph-name="quotedbl" unicode="&#x22;" 
d="M135 665h80q0 -60 -1 -96t-3.5 -60.5t-5.5 -47t-6 -54.5h-48q-3 32 -6 54.5t-5.5 46.5t-3.5 60.5t-1 96.5zM285 665h80q0 -60 -1 -96t-3.5 -60.5t-5.5 -47t-6 -54.5h-48q-3 32 -6 54.5t-5.5 46.5t-3.5 60.5t-1 96.5z" />
    <glyph glyph-name="numbersign" unicode="#" 
d="M270 10l22 183h-111l-21 -179l-59 -1l21 178h-97l4 45h99l20 171h-109l3 46h111l20 171l61 2l-21 -171h110l20 167l62 1l-20 -166h91l-6 -47h-91l-21 -169h99l-5 -45h-99l-22 -182zM187 238h110l21 170h-111z" />
    <glyph glyph-name="dollar" unicode="$" 
d="M235 -47v61q-36 3 -67.5 12.5t-58 26.5t-49.5 41l43 60q4 -3 4 -10t3 -11q17 -18 36 -30.5t41.5 -20t47.5 -10.5v220q-52 18 -86.5 39.5t-52 50t-17.5 64.5q0 37 20 67.5t55 51t81 26.5v60h64q1 -1 1 -1.5v-1.5q0 -2 -3 -6.5t-4 -11.5v-38q32 -3 58.5 -13t49.5 -26
t41 -38l-43 -54q-5 2 -5.5 9t-5.5 12q-9 10 -19 18.5t-22 14.5t-25.5 10.5t-28.5 7.5v-193q58 -18 94.5 -39t54.5 -49.5t18 -70.5q0 -37 -20 -72.5t-57.5 -60.5t-89.5 -32v-63h-58zM293 74q32 6 55 21.5t35 37t12 44.5q0 24 -10.5 41t-33 30.5t-58.5 24.5v-199zM235 361v173
q-30 -3 -50 -15t-30 -28.5t-10 -36.5q0 -19 10 -35.5t30 -31t50 -26.5z" />
    <glyph glyph-name="percent" unicode="%" 
d="M46 0l345 623h57l-348 -623h-54zM371 -10q-30 0 -55.5 17t-41 46.5t-15.5 65.5q0 37 15.5 66t41 46.5t55.5 17.5q31 0 56 -17.5t40 -47t15 -65.5t-15 -65.5t-40.5 -46.5t-55.5 -17zM372 40q14 0 25.5 8.5t18.5 26t7 43.5q0 23 -6.5 41t-18 28.5t-28.5 10.5q-13 0 -25 -8
t-19.5 -25t-7.5 -45t8 -46t20.5 -26t25.5 -8zM140 373q-30 0 -55.5 17t-41 47t-15.5 67t15.5 66t41 46.5t55.5 17.5q31 0 56 -17.5t40.5 -47t15.5 -66.5q0 -38 -14.5 -67.5t-40 -46t-57.5 -16.5zM140 426q13 0 24 7.5t18 25t7 45.5q0 21 -4.5 36t-11.5 24.5t-16.5 13.5
t-18.5 4q-12 0 -23 -7.5t-18.5 -24.5t-7.5 -46q0 -28 7.5 -45t19 -25t24.5 -8z" />
    <glyph glyph-name="ampersand" unicode="&#x26;" 
d="M416 -12l-55 88q-20 -26 -47 -45.5t-58 -30t-64 -10.5q-45 0 -80.5 20.5t-55.5 55t-20 75.5q0 32 9 61t25.5 55t40 48t51.5 38q-35 43 -53 82t-18 73q0 28 10.5 52t29.5 41.5t44 27.5t53 10q41 0 71 -19t47 -48.5t17 -63.5q0 -24 -8 -49.5t-22.5 -48t-34 -41t-43.5 -29.5
l112 -157q13 15 21 28t13 24.5t7.5 23.5t3.5 25q0 3 1 5.5t3 4.5l65 -45q-11 -20 -23.5 -39.5t-25.5 -38.5t-27 -38l70 -91zM199 54q24 0 45.5 8.5t41.5 24t38 36.5l-127 173q-20 -12 -35.5 -29t-26.5 -36t-17 -39t-6 -40q0 -21 7 -38.5t19 -31t27.5 -21t33.5 -7.5zM221 373
q18 9 32 22t24 29.5t15 34t5 33.5q0 33 -20.5 55.5t-47.5 22.5q-18 0 -34 -9t-25.5 -25.5t-9.5 -38.5q0 -16 6.5 -35t20.5 -41t34 -48z" />
    <glyph glyph-name="quotesingle" unicode="'" 
d="M210 665h80q0 -60 -1 -96t-3.5 -60.5t-5.5 -47t-6 -54.5h-48q-3 32 -6 54.5t-5.5 46.5t-3.5 60.5t-1 96.5z" />
    <glyph glyph-name="parenleft" unicode="(" 
d="M395 -104q-83 39 -144.5 104.5t-95 148t-33.5 171.5t33 169.5t93 144t141 101.5l19 -62q-48 -26 -87.5 -64t-68 -84t-44 -99t-15.5 -109t15.5 -109t44.5 -100.5t69.5 -86t91.5 -65.5z" />
    <glyph glyph-name="parenright" unicode=")" 
d="M133 -104l-19 60q51 27 91.5 65.5t69.5 86t44.5 100.5t15.5 109t-15.5 109t-44 99t-68 84t-87.5 64l19 62q81 -38 141 -101.5t93 -144t33 -169.5t-33.5 -171.5t-95 -148t-144.5 -104.5z" />
    <glyph glyph-name="asterisk" unicode="*" 
d="M138 123l-54 44l130 150l-173 53l26 65l162 -76l-16 177h78l-18 -177l159 72l26 -61l-171 -52l126 -151l-55 -43l-108 166z" />
    <glyph glyph-name="plus" unicode="+" 
d="M222 104v187h-177v61h177v171h63v-171h171v-61h-171v-187h-63z" />
    <glyph glyph-name="comma" unicode="," 
d="M199 -168l-34 30q28 26 46.5 56t18.5 49q0 10 -7.5 18.5t-18 16.5t-18 18.5t-7.5 23.5q0 25 16.5 42t42.5 17t47 -23t21 -60q0 -20 -6.5 -41.5t-20 -45t-33.5 -49t-47 -52.5z" />
    <glyph glyph-name="hyphen" unicode="-" 
d="M111 281v67h280v-67h-280z" />
    <glyph glyph-name="period" unicode="." 
d="M238 -11q-24 0 -41 17t-17 40t17 40t41 17q23 0 40 -17t17 -40t-17 -40t-40 -17z" />
    <glyph glyph-name="slash" unicode="/" 
d="M123 -42l-59 29l313 678l60 -31z" />
    <glyph glyph-name="zero" unicode="0" 
d="M107 154l267 343l23 -47l-267 -339zM250 -11q-62 0 -105 37t-65.5 108.5t-22.5 173.5q0 99 22.5 170.5t65.5 110t105 38.5t105 -38.5t65.5 -110t22.5 -170.5q0 -102 -22.5 -173.5t-65.5 -108.5t-105 -37zM250 50q38 0 65 30t41.5 87.5t14.5 140.5q0 79 -14.5 136.5
t-41.5 89.5t-65 32t-65 -32t-41.5 -89.5t-14.5 -136.5q0 -83 14.5 -140.5t41.5 -87.5t65 -30z" />
    <glyph glyph-name="one" unicode="1" 
d="M230 0v537l-126 -37l-16 39l163 85h49v-624h-70z" />
    <glyph glyph-name="two" unicode="2" 
d="M73 56q54 55 99 100t80.5 83.5t60.5 73t38 68t13 70.5q0 32 -8 54t-22.5 35.5t-34 19.5t-41.5 6q-24 0 -46 -7t-42 -20.5t-37 -35.5q-9 -14 -11 -21.5t-1 -15.5l-4 -5l-8 5l-51 40q20 39 50 66t68 41t81 14q53 0 93 -21.5t63 -61.5t23 -95q0 -41 -15 -79.5t-41 -75.5
t-61 -74t-74.5 -76.5t-81.5 -82.5h232q17 0 24 2t13 8h7v-10v-61h-366v56z" />
    <glyph glyph-name="three" unicode="3" 
d="M240 -11q-49 0 -94 18t-77 53l46 55l7 8l5 -5q1 -8 4 -15.5t14 -19.5q17 -15 39 -24.5t53 -9.5q40 0 66 16t39 44.5t13 64.5t-12.5 61t-35.5 39.5t-55 20t-72 1.5v56q48 0 78.5 10t47 27t22.5 39.5t6 46.5q0 21 -6.5 38t-18 29t-28 18.5t-36.5 6.5t-39.5 -4.5t-38 -14.5
t-36.5 -27l-42 42q34 35 74.5 49.5t80.5 14.5q51 0 87 -19.5t55.5 -54.5t19.5 -81q0 -32 -10.5 -60.5t-32.5 -49.5t-55 -32q35 -11 62 -32.5t42 -52.5t15 -74q0 -49 -21.5 -90.5t-63 -66.5t-102.5 -25v0z" />
    <glyph glyph-name="four" unicode="4" 
d="M318 0v153h-270v51l285 420h59v-413h80v-59h-80v-152h-74zM129 212h189v286z" />
    <glyph glyph-name="five" unicode="5" 
d="M249 -11q-57 0 -105.5 25t-79.5 71l56 42l8 6l4 -5q-1 -8 2.5 -15t13.5 -20q20 -22 44.5 -32.5t60.5 -10.5q24 0 46 10.5t38.5 29.5t26.5 47t10 62q0 35 -10 62.5t-27.5 46.5t-40.5 29t-50 10q-21 0 -42.5 -7t-40 -20t-34.5 -32l-44 18l21 317h316v-63h-257l-10 -179
q17 8 33.5 13.5t34 8t34.5 2.5q41 0 75 -14.5t59.5 -42t39.5 -66t14 -86.5q0 -64 -26 -110.5t-70 -71.5t-100 -25v0z" />
    <glyph glyph-name="six" unicode="6" 
d="M261 -10q-62 0 -105.5 36t-66 102t-22.5 156q0 112 27.5 189t77 117t115.5 40q39 0 73.5 -14t63.5 -43l-44 -50l-7 -8l-5 5q-1 8 -4.5 15t-16.5 18q-8 6 -17 9t-19 4.5t-22 1.5q-16 0 -36 -6t-40 -21t-37.5 -42t-28 -69.5t-11.5 -102.5q14 24 35 40.5t46 25.5t51 9
q35 0 66 -14.5t54.5 -41.5t37 -64.5t13.5 -83.5q0 -62 -24 -109t-64 -73t-90 -26v0zM264 52q21 0 40.5 9.5t34.5 27.5t23.5 45t8.5 63q0 38 -9.5 65t-25.5 44.5t-35.5 26t-38.5 8.5q-18 0 -35.5 -6.5t-33.5 -18t-29.5 -26.5t-23.5 -33q-4 -34 2.5 -70t23 -66.5t41.5 -49.5
t57 -19v0z" />
    <glyph glyph-name="seven" unicode="7" 
d="M155 0q29 96 59.5 188.5t63 184.5t67.5 184h-266v66h353v-39q-28 -72 -55 -144t-52 -145t-47.5 -146.5t-43.5 -148.5h-79z" />
    <glyph glyph-name="eight" unicode="8" 
d="M250 -10q-59 0 -101.5 22.5t-65.5 60.5t-23 84q0 36 15.5 69t43.5 60.5t66 44.5q-28 15 -49.5 37.5t-33.5 50.5t-12 58q0 43 18.5 77.5t55 55.5t91.5 21q58 0 94 -20t53.5 -53.5t17.5 -74.5q0 -22 -7 -44t-20 -41.5t-31 -36t-41 -28.5q27 -12 49 -30.5t38 -41t24.5 -48
t8.5 -52.5q0 -49 -23.5 -87.5t-66 -61t-101.5 -22.5zM252 53q39 0 65 14.5t39.5 39t13.5 54.5q0 23 -9.5 44.5t-27 40t-42 33.5t-54.5 24q-22 -9 -41.5 -23.5t-33.5 -33t-22 -39t-8 -43.5q0 -30 14 -55t41 -40.5t65 -15.5zM267 358q18 10 33.5 24t27 30t18 33.5t6.5 35.5
q0 24 -11 44.5t-33 33.5t-55 13t-54 -12.5t-31.5 -32.5t-10.5 -43t8.5 -41t23.5 -32.5t35 -27.5t43 -25z" />
    <glyph glyph-name="nine" unicode="9" 
d="M228 -10q-46 0 -83 14.5t-66 42.5l43 49l7 8l5 -5q1 -8 5 -14.5t16 -17.5q14 -9 30 -13t37 -4q40 0 68.5 23t46.5 62t26.5 87t8.5 98q0 83 -13 137.5t-40 81.5t-69 27q-25 0 -46 -9.5t-36.5 -28t-23.5 -44.5t-8 -59q0 -30 9 -53.5t25 -40t36.5 -25.5t43.5 -9q35 0 59.5 8
t44.5 26t38 47l5 -71q-19 -21 -40 -37t-47.5 -25t-60.5 -9q-39 0 -72 13.5t-57.5 38.5t-38 59.5t-13.5 76.5q0 44 14 81t38.5 64.5t57 42.5t69.5 15q59 0 102 -34t66.5 -93.5t23.5 -136.5q0 -126 -25.5 -208t-72.5 -122.5t-113 -42.5v0z" />
    <glyph glyph-name="colon" unicode=":" 
d="M238 308q-23 0 -41 17t-18 40q0 24 18 41t41 17t41.5 -17t18.5 -41q0 -23 -18 -40t-42 -17zM238 -11q-25 0 -42 16.5t-17 40.5t18 41t41 17t41.5 -17t18.5 -41q0 -23 -17.5 -40t-42.5 -17z" />
    <glyph glyph-name="semicolon" unicode=";" 
d="M199 -168l-34 30q28 26 46.5 56t18.5 49q0 10 -7.5 18.5t-18 16.5t-18 18.5t-7.5 23.5q0 17 7.5 30t21 21t30.5 8q26 0 47 -23t21 -60q0 -26 -12 -56t-35.5 -62.5t-59.5 -69.5zM238 308q-23 0 -41 17t-18 40q0 24 18 41t41 17t41.5 -17t18.5 -41q0 -23 -18 -40t-42 -17z
" />
    <glyph glyph-name="less" unicode="&#x3c;" 
d="M461 47l-426 249v48l423 223v-71l-347 -177l350 -196v-76z" />
    <glyph glyph-name="equal" unicode="=" 
d="M45 389v61h411v-61h-411zM45 182v61h411v-61h-411z" />
    <glyph glyph-name="greater" unicode="&#x3e;" 
d="M40 47v76l349 196l-347 177v71l424 -223v-48z" />
    <glyph glyph-name="question" unicode="?" 
d="M226 226q0 37 10 62t26 44t33.5 36t33.5 35t26 42.5t10 58.5q0 23 -8 41t-23 31.5t-35.5 20.5t-44.5 7q-38 0 -66.5 -11t-51.5 -35q-10 -13 -12.5 -20t-1.5 -15l-4 -6l-8 6l-46 38q22 33 47.5 56t61 35.5t84.5 12.5q53 0 93 -19t62 -54t22 -83q0 -40 -10.5 -68.5
t-26.5 -49t-34 -37.5t-34 -34.5t-26.5 -39.5t-10.5 -54v-41h-66v41zM261 -11q-24 0 -41 17t-17 40t17 40t41 17q23 0 40 -17t17 -40t-17 -40t-40 -17z" />
    <glyph glyph-name="at" unicode="@" 
d="M295 -11q-49 0 -96.5 19.5t-85 59t-60 100.5t-22.5 145q0 83 21 143.5t56 99.5t77.5 58t85.5 19q37 0 72 -14t62.5 -42t43.5 -70.5t16 -98.5v-233h-60v38q-19 -23 -43.5 -34.5t-53.5 -11.5q-38 0 -68 17t-47.5 47t-17.5 68q0 34 14 62t42.5 48t71 29.5t99.5 5.5
q0 38 -16 68.5t-46 48.5t-72 18q-36 0 -68 -15t-57 -46.5t-39.5 -79.5t-14.5 -114q0 -72 18 -124t48.5 -86.5t68 -51t77.5 -16.5q29 0 55.5 8.5t51.5 24.5l27 -49q-32 -20 -67 -30.5t-73 -10.5zM317 222q23 0 39.5 9t27.5 29t16 53t5 81q-55 5 -92.5 -5t-56.5 -32t-19 -54
q0 -37 20 -59t60 -22z" />
    <glyph glyph-name="A" unicode="A" 
d="M357 182h-226l14 54h196zM249 474l-164 -474h-69l230 634h8l230 -634h-72z" />
    <glyph glyph-name="B" unicode="B" 
d="M48 0v623h177q54 0 93 -11t64.5 -31t37.5 -48t12 -61q0 -29 -10.5 -57t-31 -49t-50.5 -32q26 -9 47.5 -25t37 -37.5t24 -46t8.5 -50.5q0 -39 -14 -71.5t-42.5 -55.5t-72.5 -35.5t-104 -12.5h-176zM117 61h119q44 0 77 11.5t51.5 37.5t18.5 69q0 37 -16 65.5t-51.5 45
t-96.5 16.5h-102v-245zM117 365h98q55 0 87 13t46 35.5t14 50.5q0 21 -7.5 39t-23.5 31.5t-42 21.5t-63 8h-109v-199z" />
    <glyph glyph-name="C" unicode="C" 
d="M285 -10q-51 0 -95 18.5t-77.5 57.5t-52.5 99t-19 143q0 73 14 127.5t38 91.5t55 59t65 32t68 10q68 0 116 -33.5t72 -89.5l-60 -28l-9 -4l-3 7q3 8 0 14.5t-11 20.5q-25 34 -51.5 45.5t-55.5 11.5q-39 0 -70.5 -17.5t-54 -51t-34 -81.5t-11.5 -109q0 -59 13.5 -107
t37 -83t55 -54t67.5 -19q25 0 48.5 9t43.5 26.5t34 40.5l52 -34q-30 -50 -72 -76t-103 -26v0z" />
    <glyph glyph-name="D" unicode="D" 
d="M54 -1v624h145q54 0 91 -10t63 -28.5t46 -46.5q21 -28 34.5 -63t20 -76.5t6.5 -90.5q-3 -72 -19 -129t-48 -97t-82.5 -61.5t-123.5 -21.5h-133zM120 54h64q72 0 117.5 29t67.5 85t21 136q0 82 -20 140t-62.5 89t-112.5 31h-75v-510z" />
    <glyph glyph-name="E" unicode="E" 
d="M59 0v624h382v-62h-316v-205h261v-64h-261v-231h313v-62h-379z" />
    <glyph glyph-name="F" unicode="F" 
d="M78 0v624h359v-61h-289v-196h233v-61h-233v-306h-70z" />
    <glyph glyph-name="G" unicode="G" 
d="M277 -10q-74 0 -128.5 39t-83.5 110t-29 165q-1 81 14.5 137.5t41.5 93.5t58 58t64.5 29t59.5 8q37 0 72.5 -13.5t65 -36.5t46.5 -55l-49 -39l-8 -7l-4 6q1 8 -2.5 14.5t-14.5 19.5q-15 17 -31 28t-34.5 16t-41.5 5q-27 0 -52 -7.5t-46 -25t-37 -46.5t-24.5 -71t-8.5 -99
q0 -65 12 -114.5t34.5 -83.5t54 -51.5t71.5 -17.5q14 0 29.5 2t31 6.5t30.5 12t27 17.5v148h-113v61h178v-244q-44 -32 -90 -48.5t-93 -16.5v0z" />
    <glyph glyph-name="H" unicode="H" 
d="M50 623h72h10v-7q-6 -6 -7.5 -13t-1.5 -24v-222h244v266h72h10v-7q-6 -6 -7.5 -13t-1.5 -24v-579h-74v297h-243v-297h-73v623z" />
    <glyph glyph-name="I" unicode="I" 
d="M81 0v59h123v505h-116v59h309v-59h-123v-506h129v-58h-322z" />
    <glyph glyph-name="J" unicode="J" 
d="M196 -11q-44 0 -81 17.5t-66 51.5l40 50l7 8l5 -4q1 -9 4.5 -16t16.5 -18q17 -13 34.5 -20t39.5 -7q34 0 55 15t31 49.5t10 92.5v356h-120v59h285v-59h-96v-355q2 -60 -11 -102t-37 -68.5t-54 -38t-63 -11.5v0z" />
    <glyph glyph-name="K" unicode="K" 
d="M166 312l-49 -54v-258h-75v623h74h10v-7q-6 -6 -7.5 -13t-1.5 -24v-243l260 292l12 -2t12.5 -1.5t13.5 -1t14 -0.5h26l-236 -269l252 -354l-90 -4z" />
    <glyph glyph-name="L" unicode="L" 
d="M66 623h72h10v-7q-6 -6 -7.5 -13t-1.5 -24v-519h300v-60h-373v623z" />
    <glyph glyph-name="M" unicode="M" 
d="M41 0v623h55l154 -305l157 306h53v-624h-66v470l-135 -251h-27l-126 248v-467h-65z" />
    <glyph glyph-name="N" unicode="N" 
d="M50 623h68l262 -462v462h66h10v-7q-6 -6 -7.5 -13t-1.5 -24v-579h-55l-275 490v-490h-67v623z" />
    <glyph glyph-name="O" unicode="O" 
d="M250 -11q-71 0 -121 37t-76 108.5t-26 173.5q0 99 26 170.5t76 110t121 38.5q72 0 121.5 -38.5t75.5 -110t26 -170.5q0 -102 -26 -173.5t-75.5 -108.5t-121.5 -37zM250 50q48 0 81.5 30t51.5 87.5t18 140.5q0 79 -18 136.5t-51.5 89.5t-81.5 32q-47 0 -81 -32t-52 -89.5
t-18 -136.5q0 -83 18 -140.5t52 -87.5t81 -30z" />
    <glyph glyph-name="P" unicode="P" 
d="M59 0v623h200q70 0 113 -24t63.5 -63.5t20.5 -88.5q0 -36 -11 -67t-34.5 -55t-59.5 -37t-87 -13h-133v-275h-72zM131 337h125q46 0 74 13.5t41 38t13 56.5q0 31 -13 56t-41 40.5t-73 15.5h-126v-220z" />
    <glyph glyph-name="Q" unicode="Q" 
d="M401 -145q-49 -2 -82.5 4.5t-54 23.5t-29.5 44t-9 66q-50 7 -95 43t-73.5 104t-28.5 168q0 93 21 155.5t55 99t72.5 52t73.5 15.5q42 0 82.5 -18.5t72 -57t49.5 -99t16 -144.5q0 -69 -11.5 -123.5t-35 -94.5t-58 -65t-79.5 -35q2 -22 8.5 -39t22 -26.5t43.5 -9.5l81 5
l-2 -68h-39zM256 55q26 0 52 12.5t47.5 41t35 74t13.5 111.5q0 84 -14.5 137.5t-38 83.5t-50 42t-50.5 12q-39 0 -68 -20.5t-48 -55t-28.5 -78.5t-9.5 -92q0 -79 19 -139.5t54.5 -94.5t85.5 -34z" />
    <glyph glyph-name="R" unicode="R" 
d="M56 0v623h184q74 0 119.5 -22t66.5 -62t21 -94q0 -35 -15.5 -70t-44 -61t-67.5 -36l144 -278h-78l-138 275h-121v-275h-71zM127 337h121q67 0 97 29.5t30 78.5q0 31 -13 56.5t-41 40.5t-73 15h-121v-220z" />
    <glyph glyph-name="S" unicode="S" 
d="M247 -10q-61 0 -109.5 20t-85.5 59l36 63l4 9l7 -4q2 -7 5 -15.5t14 -20.5q26 -22 60.5 -35t78.5 -13q28 0 51.5 8.5t41 23t27 34t9.5 41.5q0 17 -3.5 31t-13 25.5t-25.5 23t-41 24.5t-60 28q-65 25 -102.5 54.5t-53 62.5t-15.5 68q0 46 23 80.5t65.5 54t101.5 19.5
q34 0 65.5 -9.5t59 -26.5t48.5 -42l-39 -52l-6 -8l-6 4q-1 8 -4 16t-14 20q-24 23 -51 31.5t-64 8.5q-25 0 -44.5 -7t-33.5 -20t-21.5 -29.5t-7.5 -34.5q0 -17 4 -31t14 -27t27.5 -26t44 -26t64.5 -28q46 -19 76.5 -37.5t48 -39t25 -44.5t7.5 -53q0 -43 -21.5 -84.5
t-67.5 -68.5t-119 -27v0z" />
    <glyph glyph-name="T" unicode="T" 
d="M208 0v561h-177v63h432v-63h-184v-561h-71z" />
    <glyph glyph-name="U" unicode="U" 
d="M251 -11q-100 0 -150.5 59.5t-50.5 166.5v408h68h10v-7q-6 -6 -7.5 -13t-1.5 -24v-365q0 -76 29.5 -121t103.5 -45q75 0 105 45t30 124v406h67v-405q0 -79 -25 -129.5t-70.5 -75t-107.5 -24.5v0z" />
    <glyph glyph-name="V" unicode="V" 
d="M237 -4l-212 628h73l160 -479l151 478h69l-209 -627h-32z" />
    <glyph glyph-name="W" unicode="W" 
d="M117 0l-100 623h65l67 -421l100 375h22l101 -377l57 423h59l-99 -623h-27l-107 407l-109 -407h-29z" />
    <glyph glyph-name="X" unicode="X" 
d="M41 0l170 318l-167 306h75l131 -237l129 237h70l-158 -305l177 -319h-79l-138 247l-134 -247h-76z" />
    <glyph glyph-name="Y" unicode="Y" 
d="M220 0v246l-192 377h80l153 -302l138 302h74l-177 -377v-246h-76z" />
    <glyph glyph-name="Z" unicode="Z" 
d="M50 49l314 511h-302v63h385v-49l-309 -512h281q17 0 24 2t13 8h7v-10v-62h-413v49z" />
    <glyph glyph-name="bracketleft" unicode="[" 
d="M131 -89v759h286v-60h-222v-642h223v-57h-287z" />
    <glyph glyph-name="backslash" unicode="\" 
d="M378 -42l-314 676l59 31l314 -678z" />
    <glyph glyph-name="bracketright" unicode="]" 
d="M418 -89h-287v57h223v642h-222v60h286v-759z" />
    <glyph glyph-name="asciicircum" unicode="^" 
d="M143 343l-50 24l153 256h22l135 -255l-53 -25l-97 175z" />
    <glyph glyph-name="underscore" unicode="_" 
d="M35 -80v61h431v-61h-431z" />
    <glyph glyph-name="grave" unicode="`" 
d="M255 507l-101 135l55 40l84 -149z" />
    <glyph glyph-name="a" unicode="a" 
d="M211 -11q-78 0 -120 35.5t-42 90.5q0 37 18 66.5t49.5 50t73.5 31.5t89 11q17 0 34.5 -0.5t37 -2t40.5 -4.5l2 -55q-18 3 -36.5 4.5t-36.5 2.5t-35 1q-36 0 -66 -6t-52 -18t-34 -31t-12 -46q0 -21 7.5 -35.5t20.5 -23t30.5 -12.5t38.5 -4q39 0 69.5 12.5t52 36.5t32.5 59
t11 80q0 68 -16 106t-47.5 54t-80.5 16q-33 0 -65 -12.5t-58 -38.5l-35 46q32 32 74 48t89 16q45 0 82 -11t63.5 -36.5t41 -68.5t14.5 -108v-243h-78v70q-13 -25 -31.5 -41t-39.5 -24.5t-43 -12t-42 -3.5z" />
    <glyph glyph-name="b" unicode="b" 
d="M266 -11q-28 0 -53 8.5t-45.5 24.5t-36.5 38l-25 -60h-46v665h72h10v-7q-6 -6 -7.5 -13t-1.5 -24v-234q11 18 26 33t33 26t38 16.5t39 5.5q42 0 76.5 -14.5t59.5 -44t38.5 -73.5t13.5 -103q0 -61 -16 -107t-43.5 -76.5t-61.5 -45.5t-70 -15v0zM257 53q24 0 46.5 9
t40.5 29.5t28.5 54.5t10.5 83q0 45 -9 78.5t-25.5 55.5t-39.5 32.5t-50 10.5q-37 0 -65.5 -22.5t-44.5 -63t-16 -93.5q0 -39 7 -71t21.5 -55t38 -35.5t57.5 -12.5v0z" />
    <glyph glyph-name="c" unicode="c" 
d="M285 -11q-50 0 -92 18t-72.5 50t-47.5 75.5t-17 95.5q0 51 17 94.5t47.5 75.5t72.5 50t91 18q56 0 100.5 -22.5t72.5 -62.5l-45 -44l-7 -7l-5 5q0 8 -3.5 15t-15.5 19q-22 20 -47 28t-58 8q-29 0 -55 -12t-46.5 -34.5t-32.5 -54.5t-12 -71t12 -71.5t33 -56.5t50.5 -37.5
t63.5 -13.5q23 0 44 6.5t40 19t35 30.5l42 -49q-34 -36 -75.5 -54t-89.5 -18v0z" />
    <glyph glyph-name="d" unicode="d" 
d="M234 -10q-35 0 -68.5 15t-61 45t-43.5 76t-16 107q0 63 17 107.5t45 73t62 42t69 13.5q32 0 57.5 -10t45 -27.5t30.5 -41.5v275h66h10v-7q-6 -6 -7.5 -13t-1.5 -24l1 -550q0 -18 1.5 -35.5t8.5 -35.5h-71q-5 12 -7 24t-2.5 23.5t-0.5 23.5q-14 -24 -34 -42.5t-45 -28.5
t-55 -10v0zM245 53q33 0 56 13.5t37 38t20.5 57t6.5 69.5q0 51 -13 91.5t-41 64t-72 23.5q-30 0 -53.5 -11.5t-39 -33.5t-23.5 -52.5t-8 -68.5q0 -57 15 -100t44 -67t71 -24v0z" />
    <glyph glyph-name="e" unicode="e" 
d="M272 -10q-50 0 -91 15.5t-70.5 45.5t-45.5 74.5t-16 101.5q0 58 16.5 103t45 75.5t67 46.5t81.5 16q39 0 73 -13t59 -39.5t39.5 -67.5t14.5 -97q0 -8 -0.5 -16.5t-1.5 -16.5h-325q2 -44 15 -76.5t34 -53t48.5 -30.5t58.5 -10q24 0 45 5.5t39.5 17t33.5 28.5l40 -39
q-19 -23 -43.5 -39t-53.5 -23.5t-63 -7.5zM121 274h251q0 32 -8.5 57.5t-24 44t-37 28t-48.5 9.5q-24 0 -45.5 -8t-39.5 -25.5t-30.5 -43.5t-17.5 -62z" />
    <glyph glyph-name="f" unicode="f" 
d="M162 400h-99v57h99v38q0 61 21.5 100t59.5 57.5t87 18.5q43 0 80.5 -15.5t62.5 -47.5l-38 -53l-6 -8l-6 4q-1 8 -4 16t-14 20q-16 14 -32 20t-41 6q-29 0 -52 -11.5t-36 -37t-13 -69.5v-38h150v-57h-150v-400h-69v400z" />
    <glyph glyph-name="g" unicode="g" 
d="M247 -172q-48 0 -86.5 7.5t-66 22t-42 36.5t-14.5 52q0 28 12 50t31.5 36.5t42.5 21.5l30 -18q-18 -11 -29 -22t-16 -25.5t-5 -34.5q0 -17 10 -30.5t28.5 -22.5t45 -14t60.5 -5q46 0 74.5 9.5t42.5 26t14 37.5q0 22 -8 36t-33 21t-76 7q-35 0 -64 3t-52 10t-38.5 17.5
t-23.5 25.5t-8 35q0 26 14.5 50t39.5 46l34 -27q-10 -11 -16 -19.5t-8.5 -16t-2.5 -16.5q0 -16 12.5 -26t43.5 -14.5t84 -4.5t86 -8.5t50.5 -24.5t24.5 -37t7 -46q0 -27 -10.5 -51.5t-33.5 -44t-61 -31t-93 -11.5zM226 155q-49 0 -85 21.5t-55.5 58t-19.5 80.5t19.5 80
t55.5 57.5t85 21.5q50 0 85.5 -21.5t55 -57.5t19.5 -80t-19.5 -80.5t-55 -58t-85.5 -21.5zM226 215q29 0 51.5 13.5t35.5 36.5t13 50q0 28 -13 50.5t-35.5 36t-51.5 13.5t-51.5 -13.5t-35.5 -36t-13 -50.5q0 -27 13 -50t35.5 -36.5t51.5 -13.5zM359 383l-28 33
q29 29 60.5 42.5t74.5 10.5l9 -59q-33 3 -62 -2t-54 -25z" />
    <glyph glyph-name="h" unicode="h" 
d="M73 665h69h10v-7q-6 -6 -7.5 -13t-1.5 -24v-245q18 28 42.5 48.5t52 32t55.5 11.5q41 0 72.5 -19t49 -61t17.5 -111v-277h-70v275q0 48 -11 76.5t-30 41t-43 12.5q-18 0 -37 -6t-36.5 -18t-31.5 -29.5t-22 -39.5t-8 -49v-263h-70v665z" />
    <glyph glyph-name="i" unicode="i" 
d="M100 0v58h117v341h-111v58h183v-399h107v-58h-296zM249 553q-21 0 -36 15t-15 36q0 22 14.5 37t36.5 15q21 0 36.5 -15.5t15.5 -36.5t-15.5 -36t-36.5 -15z" />
    <glyph glyph-name="j" unicode="j" 
d="M194 -174q-43 0 -81.5 16t-64.5 48l40 54l6 8l6 -4q2 -8 5 -15.5t14 -19.5q14 -11 32.5 -18t41.5 -7q30 0 53.5 13.5t36.5 42t13 74.5v380h-170v59h243v-435q0 -69 -24 -112.5t-63.5 -63.5t-87.5 -20v0zM327 553q-21 0 -36 15t-15 36q0 22 14.5 37t36.5 15
q21 0 36.5 -15.5t15.5 -36.5t-15.5 -36t-36.5 -15z" />
    <glyph glyph-name="k" unicode="k" 
d="M199 229l-60 -56v-173h-73v665h72h10v-7q-6 -6 -7.5 -13t-1.5 -24v-374l229 212l12 -2t12.5 -1.5t14 -1t14.5 -0.5h26l-192 -181l224 -273l-93 -4z" />
    <glyph glyph-name="l" unicode="l" 
d="M79 0v58h135v549h-129v58h202v-607h134v-58h-342z" />
    <glyph glyph-name="m" unicode="m" 
d="M38 0v457h66v-45q11 17 25.5 29.5t32 19.5t35.5 7q20 0 37 -8.5t28.5 -23.5t15.5 -35q9 20 24.5 35t36 23.5t42.5 8.5q23 0 40 -9t28 -24.5t16 -37t4 -46.5v-351h-66v324q0 42 -5.5 61t-15.5 24.5t-22 5.5q-19 0 -35.5 -17.5t-27 -43.5t-10.5 -52v-302h-67v318
q0 57 -10.5 76t-39.5 19q-11 0 -22.5 -7.5t-21.5 -21t-16 -33.5t-6 -46v-305h-66z" />
    <glyph glyph-name="n" unicode="n" 
d="M72 0v457h70v-81q18 28 42 48.5t53 32t60 11.5q38 0 68 -19t48 -61t18 -111v-277h-70v275q0 48 -11 76.5t-30 41t-43 12.5q-23 0 -46.5 -10t-43.5 -28.5t-32.5 -44.5t-12.5 -59v-263h-70z" />
    <glyph glyph-name="o" unicode="o" 
d="M250 -8q-62 0 -109.5 30.5t-74.5 84t-27 122.5q0 70 27 123.5t74.5 84t109.5 30.5t109.5 -30.5t74.5 -84t27 -123.5q0 -69 -27 -122.5t-74.5 -84t-109.5 -30.5zM250 52q40 0 70 23t47.5 63t17.5 92t-17.5 92t-47.5 62.5t-70 22.5q-39 0 -69.5 -22.5t-48 -62.5t-17.5 -92
t17.5 -92t48 -63t69.5 -23z" />
    <glyph glyph-name="p" unicode="p" 
d="M60 -167v624h73v-90q11 35 31.5 57t48 32.5t59.5 10.5q38 0 72.5 -14.5t61 -43.5t42 -73t15.5 -104t-16.5 -106t-44 -76.5t-62 -46t-70.5 -15.5q-27 0 -52.5 8.5t-46.5 25t-37 38.5v-227h-74zM258 52q24 0 47 8.5t42 28.5t30 54.5t11 85.5q0 55 -14 93.5t-40.5 59.5
t-64.5 23q-28 2 -52.5 -8t-43.5 -33t-29.5 -60.5t-10.5 -90.5q1 -32 7 -58t17 -45.5t26 -32t34 -19t41 -6.5z" />
    <glyph glyph-name="q" unicode="q" 
d="M370 -167v240q-14 -25 -35.5 -44t-48 -29t-56.5 -10q-39 0 -73.5 17.5t-60 49t-40 75.5t-14.5 98q0 57 16 101t43.5 75t64 47t77.5 16q24 0 44 -5.5t36.5 -15.5t29 -25t21.5 -33v67h68v-624h-72zM243 53q26 0 48.5 10.5t40 33t27 58.5t9.5 86q0 47 -8.5 79.5t-24.5 52
t-37 28.5t-47 9q-28 0 -53 -10.5t-43.5 -32t-29 -55t-10.5 -79.5q0 -42 9 -75t26 -56.5t40.5 -36t52.5 -12.5z" />
    <glyph glyph-name="r" unicode="r" 
d="M119 457h75l-3 -133l-9 15q6 31 21 55t36 40.5t46 25t52 8.5q36 0 66.5 -12.5t54.5 -37.5l-32 -56l-4 -9l-7 4q-2 8 -6 15t-17 17q-16 10 -29.5 13.5t-30.5 3.5q-25 0 -50 -9.5t-45.5 -29.5t-32.5 -51t-12 -74v-243h-73v458z" />
    <glyph glyph-name="s" unicode="s" 
d="M251 -10q-38 0 -72.5 8t-65 24t-56.5 40l40 68l6 9l6 -4q2 -8 4.5 -16.5t13.5 -20.5q21 -21 50.5 -34.5t75.5 -13.5q37 0 62.5 9t39.5 25.5t14 38.5q0 15 -6 26.5t-19.5 21.5t-35.5 20t-54 20q-52 15 -91 35t-60 46.5t-21 60.5q0 35 19 60.5t56.5 40t92.5 14.5
q32 0 58 -4.5t48 -13.5t40.5 -22.5t35.5 -31.5l-41 -50l-7 -8l-5 5q-1 8 -4.5 15.5t-14.5 18.5q-23 18 -52 27.5t-56 9.5q-40 0 -69 -14t-29 -43q0 -15 10.5 -29.5t38.5 -29t80 -29.5q57 -18 91.5 -36.5t50 -42.5t15.5 -57q0 -38 -20.5 -71t-62.5 -52.5t-106 -19.5v0z" />
    <glyph glyph-name="t" unicode="t" 
d="M299 -7q-44 0 -72 15t-43 46.5t-19.5 79.5t-2.5 114l12 326l75 9l10 1l1 -7q-5 -7 -8.5 -14t-5.5 -24l-9 -113l3 -18l-7 -165q-3 -76 4 -117.5t25 -57t48 -15.5q33 0 58.5 13t53.5 33l22 -57q-34 -25 -70 -37t-75 -12v0zM70 457h329v-59h-329v59z" />
    <glyph glyph-name="u" unicode="u" 
d="M221 -11q-27 0 -51 8t-43.5 24.5t-33.5 41.5t-21.5 60t-7.5 79l1 255h70v-255q0 -43 8 -73t22.5 -48t33.5 -26t40 -8q24 0 46 9.5t39.5 28.5t27.5 49t10 71v252h70v-386q0 -18 1.5 -35.5t8.5 -35.5h-69q-5 12 -7 23.5t-2.5 23.5t-0.5 23q-11 -19 -26 -34t-33.5 -25.5
t-39 -16t-43.5 -5.5z" />
    <glyph glyph-name="v" unicode="v" 
d="M221 0l-181 457h72l148 -375h-14l81 186q24 55 38.5 102t21.5 87h68q-8 -42 -25 -92t-42 -108l-111 -257h-56z" />
    <glyph glyph-name="w" unicode="w" 
d="M108 -1l-92 458h63l74 -367l78 324h44l97 -323q13 89 21.5 146t13 93.5t6 61.5t1.5 50v15h67q-10 -77 -21.5 -153.5t-25 -152.5t-29.5 -152h-68l-84 296l-80 -296h-65z" />
    <glyph glyph-name="x" unicode="x" 
d="M47 0l161 232l-158 225h79l119 -169l114 169h74l-148 -222l168 -235h-82l-126 178l-119 -178h-82z" />
    <glyph glyph-name="y" unicode="y" 
d="M127 -174q-32 0 -58.5 10t-46.5 29l31 49l6 9l6 -4q2 -8 7 -13.5t19 -14.5q9 -3 19 -4.5t21 -1.5q27 0 45.5 13t32.5 40t27 68l87 269q15 46 29 91t19 91h72q-7 -46 -22 -93t-32 -94l-114 -322q-24 -67 -61.5 -94.5t-86.5 -27.5v0zM46 457h75l148 -381l-32 -89z" />
    <glyph glyph-name="z" unicode="z" 
d="M50 49l283 345h-262v63h355v-49l-278 -346h258q17 0 24 2t13 8h7v-10v-62h-400v49z" />
    <glyph glyph-name="braceleft" unicode="{" 
d="M371 -95q-72 0 -120 14.5t-71.5 52.5t-20.5 108l4 100q0 44 -10.5 68.5t-30.5 34t-49 9.5h-20v56h19q31 0 51.5 11t31 34.5t10.5 61.5l-2 72q0 58 20.5 96.5t61 58t100.5 19.5h63v-57h-82q-46 0 -69.5 -26.5t-23.5 -79.5l2 -70q0 -37 -9.5 -65.5t-29 -49t-48.5 -33.5
q29 -9 47.5 -29.5t28 -51.5t9.5 -74l-3 -84q0 -45 13 -71.5t41 -37.5t72 -11h51v-56h-36z" />
    <glyph glyph-name="bar" unicode="|" 
d="M217 -151v803h67v-803h-67z" />
    <glyph glyph-name="braceright" unicode="}" 
d="M91 -95h-36v56h51q45 0 72.5 11t40.5 37.5t13 71.5l-3 84q0 43 9.5 74t28.5 51.5t47 29.5q-29 13 -48.5 33.5t-29 49t-9.5 65.5l2 70q0 53 -23 79.5t-70 26.5h-82v57h63q61 0 101 -19.5t60.5 -58t20.5 -96.5l-2 -72q0 -38 10.5 -61.5t31.5 -34.5t51 -11h19v-56h-20
q-28 0 -48.5 -9.5t-31 -34t-10.5 -68.5l4 -100q3 -70 -20 -108t-71.5 -52.5t-120.5 -14.5z" />
    <glyph glyph-name="asciitilde" unicode="~" 
d="M348 266q-26 0 -46 8t-36.5 19t-33 19t-36.5 8q-23 0 -41 -10t-35 -37l-49 22q11 23 27.5 41t40.5 28.5t55 10.5q26 0 45 -8t35 -19t32.5 -19t37.5 -8q22 0 37 10t34 38l46 -28q-17 -28 -34 -44.5t-35.5 -23.5t-43.5 -7z" />
    <glyph glyph-name="uni00A0" unicode="&#xa0;" 
 />
    <glyph glyph-name="exclamdown" unicode="&#xa1;" 
d="M215 393h50l27 -390q0 -30 -6.5 -48.5t-17.5 -27t-27 -8.5t-27.5 8.5t-17.5 25.5t-6 40zM239 598q24 0 42 -17.5t18 -40.5q0 -24 -18 -42t-42 -18t-41.5 18t-17.5 42t17.5 41t41.5 17z" />
    <glyph glyph-name="cent" unicode="&#xa2;" 
d="M246 -73h-52l95 696h49zM285 32q-50 0 -92 18t-72.5 50t-47.5 75.5t-17 95.5q0 51 17 94.5t47.5 75.5t72.5 50t91 18q56 0 100.5 -22.5t72.5 -62.5l-45 -44l-7 -7l-5 5q0 8 -3.5 15t-15.5 19q-22 20 -47 28t-58 8q-29 0 -55 -12t-46.5 -34.5t-32.5 -54.5t-12 -71
t12 -71.5t33 -56.5t50.5 -37.5t63.5 -13.5q23 0 44 6.5t40 19t35 30.5l42 -49q-34 -36 -75.5 -54t-89.5 -18v0z" />
    <glyph glyph-name="sterling" unicode="&#xa3;" 
d="M65 -8l-26 57q41 20 64.5 42t34 53t10.5 78q0 19 -3.5 43.5t-11.5 55.5h-66v57h52q-4 17 -5.5 33t-1.5 31q0 55 24 95.5t64 63t88 22.5q37 0 69.5 -12.5t60.5 -38.5l-44 -55q-17 20 -38 34.5t-66 14.5q-27 0 -47.5 -15t-32 -42.5t-11.5 -65.5q0 -13 2 -29t6 -36h130v-57
h-116q7 -28 10 -52.5t3 -44.5q0 -25 -4 -48.5t-12 -44.5t-20 -41q27 3 53 -2.5t50 -14t47 -15.5t45 -7q19 0 36.5 7t34.5 21l26 -52q-26 -21 -52 -31.5t-52 -10.5q-14 0 -36.5 7t-49.5 15.5t-53 15.5t-47 7q-22 0 -51 -9.5t-64 -28.5z" />
    <glyph glyph-name="currency" unicode="&#xa4;" 
d="M104 164l-36 35l56 57q-14 20 -21 43t-7 46q0 24 7 47t22 43l-57 57l36 35l56 -56q20 14 43 21.5t48 7.5q23 0 45.5 -7t43.5 -21l56 55l36 -35l-56 -55q15 -21 22.5 -44t7.5 -48t-7.5 -48t-21.5 -43l55 -55l-36 -35l-55 55q-20 -15 -43 -22t-47 -7q-25 0 -48 7.5
t-44 22.5zM250 245q33 0 55.5 14t34 37t11.5 49q0 28 -11.5 50.5t-34 36.5t-55.5 14q-31 0 -53.5 -14t-34.5 -36.5t-12 -50.5q0 -27 11.5 -49.5t34 -36.5t54.5 -14z" />
    <glyph glyph-name="yen" unicode="&#xa5;" 
d="M238 217h-154v57h154v-57zM278 274h148v-57h-148v57zM238 98h-154v56h154v-56zM278 154h148v-56h-148v56zM292 0h-68v295l-188 329h78l145 -261l133 260h74l-174 -328v-295z" />
    <glyph glyph-name="brokenbar" unicode="&#xa6;" 
d="M217 295v357h67v-357h-67zM217 -151v347h67v-347h-67z" />
    <glyph glyph-name="section" unicode="&#xa7;" 
d="M238 -54q-51 0 -96.5 21.5t-76.5 63.5l52 61q6 -2 7 -5t2.5 -8.5t7 -14.5t20.5 -23q11 -10 23 -16t26.5 -9.5t30.5 -3.5q24 0 43.5 6t32.5 17t20 25.5t7 30.5q0 23 -10 39.5t-35.5 30.5t-71.5 27q-51 17 -82 35t-45 40.5t-14 52.5q0 17 6 32t16.5 28.5t26 24t33.5 16.5
q-34 20 -50.5 48t-16.5 65q0 38 21.5 70.5t58.5 52t83 19.5q33 0 62.5 -10.5t53.5 -30.5t40 -48l-57 -50q-2 2 -3.5 5t-2.5 6q-2 13 -10 25.5t-20.5 22t-28.5 15.5t-35 6q-24 0 -44.5 -10.5t-32.5 -27.5t-12 -39q0 -23 9 -38t28.5 -27t49.5 -24t72 -28q23 -11 40 -23.5
t28.5 -26.5t17.5 -30t6 -34q0 -20 -9.5 -39t-26 -33.5t-38.5 -23.5q32 -22 48 -49.5t16 -61.5q0 -33 -13 -61t-36 -48t-54 -31.5t-67 -11.5zM307 228q12 7 20 16t12 21t4 27q0 17 -6 29.5t-18.5 23.5t-32 20.5t-46.5 18.5l-43 15q-10 -3 -18.5 -9.5t-14.5 -14.5t-9 -18
t-3 -21q0 -16 6 -30t18.5 -25t32.5 -20t47 -17q17 -5 30 -8.5t21 -7.5z" />
    <glyph glyph-name="dieresis" unicode="&#xa8;" 
d="M163 564q-21 0 -36 15t-15 35t15 35.5t36 15.5q20 0 35 -15t15 -36q0 -20 -15 -35t-35 -15zM341 564q-21 0 -35.5 14.5t-14.5 35.5t14.5 36t35.5 15q20 0 35 -15t15 -36q0 -20 -15 -35t-35 -15z" />
    <glyph glyph-name="copyright" unicode="&#xa9;" 
d="M261 122q-41 0 -74 21t-52.5 56.5t-19.5 76.5q0 32 12 58.5t32 47t45 31.5t50 11q54 0 88.5 -25.5t44.5 -67.5l-52 -19q-4 7 -4 12t-1 10t-6.5 12t-21.5 18q-8 5 -18.5 7.5t-21.5 2.5q-14 0 -29.5 -5t-29.5 -16t-23 -29t-9 -43q0 -30 12.5 -54t34 -38.5t47.5 -14.5
q16 0 30.5 5.5t26 15.5t18.5 24l44 -29q-21 -32 -54 -50t-69 -18zM255 19q-50 0 -93.5 20t-77 55t-52 81.5t-18.5 98.5q0 53 19 99.5t52 81.5t77 55t94 20q49 0 93 -20t77.5 -55t52.5 -81.5t19 -99.5q0 -43 -12.5 -81t-34.5 -70t-52.5 -55t-67 -36t-76.5 -13zM257 62
q40 0 76 17t63.5 46t43 68t15.5 82q0 44 -15.5 82.5t-42.5 67.5t-63 46t-77 17t-77 -16.5t-63 -45.5t-42.5 -68t-15.5 -84q0 -44 15.5 -82.5t42.5 -67.5t63 -45.5t77 -16.5z" />
    <glyph glyph-name="ordfeminine" unicode="&#xaa;" 
d="M219 258q-57 0 -88 28t-31 71q0 39 22.5 67t62 43t89.5 15q11 0 23 -0.5t25 -1.5t27 -3l1 -47q-11 2 -24 3t-25.5 1.5t-23.5 0.5q-36 0 -61.5 -8t-39.5 -24t-14 -41q0 -20 8.5 -32.5t23.5 -17.5t33 -5q27 0 47.5 9t34.5 26.5t21.5 44t7.5 61.5q0 50 -10.5 78t-32 39.5
t-54.5 11.5q-24 0 -46 -8.5t-42 -28.5l-31 39q25 26 56.5 37.5t66.5 11.5q45 0 78.5 -15t52 -51.5t18.5 -102.5v-192h-65v50q-10 -18 -22.5 -29.5t-27.5 -18t-30 -9t-30 -2.5zM76 211h349v-54h-349v54z" />
    <glyph glyph-name="guillemotleft" unicode="&#xab;" 
d="M225 61l-158 169v23l152 147l39 -41l-121 -118l128 -140zM406 61l-157 169v23l151 147l39 -41l-121 -118l128 -140z" />
    <glyph glyph-name="logicalnot" unicode="&#xac;" 
d="M350 157v127h-259v63h323v-190h-64z" />
    <glyph glyph-name="uni00AD" unicode="&#xad;" 
d="M111 281v67h280v-67h-280z" />
    <glyph glyph-name="registered" unicode="&#xae;" 
d="M329 131l-62 125h-66v-123h-46v292h94q44 0 70 -11t38 -30t12 -44t-14.5 -47t-42.5 -30l64 -125zM201 296h52q35 0 53 11t18 33t-18.5 33t-55.5 11h-49v-88zM255 19q-50 0 -93.5 20t-77 55t-52 81.5t-18.5 98.5q0 53 19 99.5t52 81.5t77 55t94 20q49 0 93 -20t77.5 -55
t52.5 -81.5t19 -99.5q0 -43 -12.5 -81t-34.5 -70t-52.5 -55t-67 -36t-76.5 -13zM257 62q40 0 76 17t63.5 46t43 68t15.5 82q0 44 -15.5 82.5t-42.5 67.5t-63 46t-77 17t-77 -16.5t-63 -45.5t-42.5 -68t-15.5 -84q0 -44 15.5 -82.5t42.5 -67.5t63 -45.5t77 -16.5z" />
    <glyph glyph-name="macron" unicode="&#xaf;" 
d="M123 565v56h254v-56h-254z" />
    <glyph glyph-name="degree" unicode="&#xb0;" 
d="M256 370q-37 0 -68 18t-49 48.5t-18 67.5q0 29 11 53.5t29.5 42.5t43 28.5t51.5 10.5q37 0 67.5 -18.5t49 -49t18.5 -67.5q0 -36 -18 -66.5t-48.5 -49t-68.5 -18.5zM256 425q22 0 38.5 11t26.5 29.5t10 39.5t-9.5 39.5t-26 30t-38.5 11.5q-20 0 -37.5 -11.5t-27.5 -29.5
t-10 -40q0 -21 10 -39.5t27 -29.5t37 -11z" />
    <glyph glyph-name="plusminus" unicode="&#xb1;" 
d="M222 155v188h-177v61h177v171h63v-171h171v-61h-171v-188h-63zM46 17v63h411v-63h-411z" />
    <glyph glyph-name="uni00B2" unicode="&#xb2;" 
d="M126 287q47 43 83.5 75.5t62 59t39 51.5t13.5 52q0 24 -9 38t-25 20t-36 6t-38.5 -6t-33.5 -18q-10 -13 -13.5 -20t-2.5 -15l-4 -5l-8 6l-39 31q22 35 58 54.5t81 19.5q36 0 64.5 -13.5t44.5 -38t16 -59.5q0 -31 -14 -59t-38 -55.5t-55.5 -56.5t-67.5 -62h133q17 0 24 2
t13 8h7v-10v-46h-255v41z" />
    <glyph glyph-name="uni00B3" unicode="&#xb3;" 
d="M242 239q-35 0 -67 11.5t-54 33.5l33 40l7 8l5 -5q1 -8 5 -14t17 -17q11 -5 23.5 -8.5t28.5 -3.5q38 0 58 20t20 51q0 28 -14.5 44t-41 22.5t-63.5 3.5v43q32 0 52.5 5t32.5 14.5t16.5 22.5t4.5 27q0 17 -8 28.5t-21.5 18t-31.5 6.5q-21 0 -40.5 -6.5t-36.5 -22.5l-34 33
q23 23 52.5 32.5t58.5 9.5q53 0 85 -27t32 -70q0 -31 -17 -54.5t-48 -33.5q22 -7 39.5 -19.5t28 -32t10.5 -46.5q0 -32 -15.5 -58t-44.5 -41t-72 -15v0z" />
    <glyph glyph-name="acute" unicode="&#xb4;" 
d="M254 522l-38 26l84 149l55 -40z" />
    <glyph glyph-name="uni00B5" unicode="&#xb5;" 
d="M24 -167q0 17 2 53t5 81t6 91t5 84t2 60v255h66v-271q0 -42 8 -69.5t21.5 -43.5t31 -23t36.5 -7q33 0 55.5 18.5t34 52t11.5 78.5v265h64v-341q0 -23 4.5 -38.5t13.5 -23t22 -7.5q14 0 28.5 12t20.5 25l6 12l27 -51q-19 -28 -40.5 -41.5t-47.5 -13.5q-21 0 -39 10.5
t-29 28t-14 38.5q-11 -26 -31 -43t-43.5 -25.5t-48.5 -8.5q-24 0 -46.5 7.5t-40 23.5t-27.5 39v-56.5v-57t-0.5 -56.5t-0.5 -57h-62z" />
    <glyph glyph-name="paragraph" unicode="&#xb6;" 
d="M243 -68v390q-37 2 -70 16.5t-57 39t-38 56.5t-14 68q0 43 23.5 80t77.5 60t146 23h125v-733h-58v676h-76v-676h-59z" />
    <glyph glyph-name="periodcentered" unicode="&#xb7;" 
d="M238 274q-25 0 -42 16.5t-17 40.5t18 40.5t41 16.5t41.5 -16.5t18.5 -40.5q0 -23 -17.5 -40t-42.5 -17z" />
    <glyph glyph-name="cedilla" unicode="&#xb8;" 
d="M268 -197q-26 0 -51 7.5t-48 23.5l25 42q19 -15 40.5 -22.5t46.5 -7.5q26 0 38 9.5t12 26.5q0 16 -14 24.5t-37 8.5h-30l11 85h44l-6 -47q30 -2 48.5 -12t27.5 -24t9 -29q0 -34 -28.5 -59.5t-87.5 -25.5z" />
    <glyph glyph-name="uni00B9" unicode="&#xb9;" 
d="M232 246v324l-83 -24l-13 33l111 54h41v-387h-56z" />
    <glyph glyph-name="ordmasculine" unicode="&#xba;" 
d="M250 260q-45 0 -80.5 23t-56 64.5t-20.5 96.5t20.5 96.5t56 64.5t80.5 23q46 0 81 -23t55.5 -64.5t20.5 -96.5t-20.5 -96.5t-55.5 -64.5t-81 -23zM250 312q28 0 48.5 16.5t32.5 46.5t12 70t-12 69.5t-33 46t-48 16.5t-48 -16.5t-33 -46t-12 -69.5t12 -70t33 -46.5
t48 -16.5zM76 211h349v-54h-349v54z" />
    <glyph glyph-name="guillemotright" unicode="&#xbb;" 
d="M293 61l-40 40l128 140l-121 118l39 41l152 -147v-23zM112 61l-40 40l128 140l-121 118l39 41l151 -147v-23z" />
    <glyph glyph-name="onequarter" unicode="&#xbc;" 
d="M93 380v252l-64 -20l-11 31l88 43h37v-306h-50zM396 -70v73h-139v32l150 201h38v-194h45v-40h-45v-72h-49zM312 42h85v116zM123 -42l-47 26l313 681l48 -27z" />
    <glyph glyph-name="onehalf" unicode="&#xbd;" 
d="M93 380v252l-64 -20l-11 31l88 43h37v-306h-50zM280 -70v36q38 35 67 60.5t48.5 45.5t30 39t10.5 40q0 17 -7 27t-19 14.5t-28 4.5t-30 -4.5t-25.5 -14t-20.5 -25.5l-34 27q17 28 46 43.5t64 15.5q29 0 52 -10.5t36.5 -30.5t13.5 -47q0 -25 -10.5 -46.5t-28.5 -42
t-42.5 -43t-52.5 -48.5h135v-41h-205zM123 -42l-47 26l313 681l48 -27z" />
    <glyph glyph-name="threequarters" unicode="&#xbe;" 
d="M103 374q-28 0 -54.5 9t-43.5 27l28 36l7 8l5 -4q1 -8 6 -14t18 -16q6 -3 14 -4.5t18 -1.5q29 0 44 14.5t15 37.5q0 22 -11 34.5t-31.5 17t-49.5 1.5v38q25 0 41 3.5t25 11t13 16.5t4 19q0 13 -6 22t-16.5 14t-24.5 5q-16 0 -31.5 -5t-29.5 -18l-29 29q19 19 43 27t47 8
q44 0 70 -21.5t26 -56.5q0 -25 -14 -43t-37 -26q25 -7 43 -26t18 -52q0 -37 -28 -63.5t-79 -26.5v0zM396 3h-139v32l150 201h38v-194h45v-40h-45v-72h-49v73zM397 42v116l-85 -116h85zM123 -42l-47 26l313 681l48 -27z" />
    <glyph glyph-name="questiondown" unicode="&#xbf;" 
d="M272 316q0 -36 -10 -61.5t-26 -44.5t-33.5 -36t-33.5 -35t-26 -42t-10 -59q0 -22 8 -40.5t23 -32t35.5 -20.5t44.5 -7q38 0 67 11t51 35q10 13 12.5 20t1.5 15l4 6l8 -6l46 -38q-21 -32 -47 -55.5t-61 -36t-85 -12.5q-53 0 -93 19t-62 54t-22 83q0 41 10.5 69t26.5 48.5
t34 37.5t34 34.5t26.5 40t10.5 53.5v41h66v-41zM237 553q24 0 41 -17t17 -40t-17 -40t-41 -17q-23 0 -40 17t-17 40t17 40t40 17v0z" />
    <glyph glyph-name="Agrave" unicode="&#xc0;" 
d="M357 182h-226l14 54h196zM249 474l-164 -474h-69l230 634h8l230 -634h-72zM293 660l-170 61l40 70l153 -89z" />
    <glyph glyph-name="Aacute" unicode="&#xc1;" 
d="M357 182h-226l14 54h196zM249 474l-164 -474h-69l230 634h8l230 -634h-72zM177 660l-23 42l152 89l40 -70z" />
    <glyph glyph-name="Acircumflex" unicode="&#xc2;" 
d="M357 182h-226l14 54h196zM249 474l-164 -474h-69l230 634h8l230 -634h-72zM125 655l-33 38l143 98h22l151 -99l-30 -36l-130 70z" />
    <glyph glyph-name="Atilde" unicode="&#xc3;" 
d="M357 182h-226l14 54h196zM249 474l-164 -474h-69l230 634h8l230 -634h-72zM379 791l46 -28q-22 -42 -42.5 -58.5t-50.5 -16.5q-22 0 -39.5 8t-32 19t-29 19t-31.5 8t-30.5 -10t-25.5 -37l-49 22q14 34 39 57t64 23q22 0 38.5 -8t30.5 -19t28.5 -19t32.5 -8q16 0 26.5 10
t24.5 38z" />
    <glyph glyph-name="Adieresis" unicode="&#xc4;" 
d="M357 182h-226l14 54h196zM249 474l-164 -474h-69l230 634h8l230 -634h-72zM160 688q-20 0 -35 15t-15 35t15 35.5t35 15.5q21 0 36 -15t15 -36q0 -20 -15 -35t-36 -15zM338 688q-20 0 -34.5 14.5t-14.5 35.5t14.5 36t34.5 15q21 0 36 -15t15 -36q0 -20 -15 -35t-36 -15z
" />
    <glyph glyph-name="Aring" unicode="&#xc5;" 
d="M357 182h-226l14 54h196zM249 474l-164 -474h-69l230 634h8l230 -634h-72zM250 619q-25 0 -46 12t-33.5 32t-12.5 44t13 44t34 32t45 12q25 0 45.5 -12t33 -32t12.5 -45q0 -23 -12 -43t-32.5 -32t-46.5 -12zM251 662q17 0 29 13t12 32q0 20 -12 33t-29 13t-29.5 -13
t-12.5 -33q0 -19 12.5 -32t29.5 -13z" />
    <glyph glyph-name="AE" unicode="&#xc6;" 
d="M15 0l196 624h284v-62h-171v-205h145v-64h-145v-231h169v-62h-230v169h-130l-54 -169h-64zM147 227h116v335h-11z" />
    <glyph glyph-name="Ccedilla" unicode="&#xc7;" 
d="M285 -10q-51 0 -95 18.5t-77.5 57.5t-52.5 99t-19 143q0 73 14 127.5t38 91.5t55 59t65 32t68 10q68 0 116 -33.5t72 -89.5l-60 -28l-9 -4l-3 7q3 8 0 14.5t-11 20.5q-25 34 -51.5 45.5t-55.5 11.5q-39 0 -70.5 -17.5t-54 -51t-34 -81.5t-11.5 -109q0 -59 13.5 -107
t37 -83t55 -54t67.5 -19q25 0 48.5 9t43.5 26.5t34 40.5l52 -34q-30 -50 -72 -76t-103 -26v0zM277 -197q-26 0 -51 7.5t-48 23.5l25 42q19 -15 40.5 -22.5t46.5 -7.5q26 0 38 9.5t12 26.5q0 16 -14 24.5t-37 8.5h-30l11 85h44l-6 -47q30 -2 48.5 -12t27.5 -24t9 -29
q0 -34 -28.5 -59.5t-87.5 -25.5z" />
    <glyph glyph-name="Egrave" unicode="&#xc8;" 
d="M59 0v624h382v-62h-316v-205h261v-64h-261v-231h313v-62h-379zM302 660l-170 61l40 70l153 -89z" />
    <glyph glyph-name="Eacute" unicode="&#xc9;" 
d="M59 0v624h382v-62h-316v-205h261v-64h-261v-231h313v-62h-379zM186 660l-23 42l152 89l40 -70z" />
    <glyph glyph-name="Ecircumflex" unicode="&#xca;" 
d="M59 0v624h382v-62h-316v-205h261v-64h-261v-231h313v-62h-379zM134 655l-33 38l143 98h22l151 -99l-30 -36l-130 70z" />
    <glyph glyph-name="Edieresis" unicode="&#xcb;" 
d="M59 0v624h382v-62h-316v-205h261v-64h-261v-231h313v-62h-379zM169 688q-20 0 -35 15t-15 35t15 35.5t35 15.5q21 0 36 -15t15 -36q0 -20 -15 -35t-36 -15zM347 688q-20 0 -34.5 14.5t-14.5 35.5t14.5 36t34.5 15q21 0 36 -15t15 -36q0 -20 -15 -35t-36 -15z" />
    <glyph glyph-name="Igrave" unicode="&#xcc;" 
d="M81 0v59h123v505h-116v59h309v-59h-123v-506h129v-58h-322zM282 660l-170 61l40 70l153 -89z" />
    <glyph glyph-name="Iacute" unicode="&#xcd;" 
d="M81 0v59h123v505h-116v59h309v-59h-123v-506h129v-58h-322zM166 660l-23 42l152 89l40 -70z" />
    <glyph glyph-name="Icircumflex" unicode="&#xce;" 
d="M81 0v59h123v505h-116v59h309v-59h-123v-506h129v-58h-322zM114 655l-33 38l143 98h22l151 -99l-30 -36l-130 70z" />
    <glyph glyph-name="Idieresis" unicode="&#xcf;" 
d="M81 0v59h123v505h-116v59h309v-59h-123v-506h129v-58h-322zM149 688q-20 0 -35 15t-15 35t15 35.5t35 15.5q21 0 36 -15t15 -36q0 -20 -15 -35t-36 -15zM327 688q-20 0 -34.5 14.5t-14.5 35.5t14.5 36t34.5 15q21 0 36 -15t15 -36q0 -20 -15 -35t-36 -15z" />
    <glyph glyph-name="Eth" unicode="&#xd0;" 
d="M79 -1v302h-49v58h49v264h139q47 0 81 -10t58 -27t41 -37.5t29 -42.5q9 -16 18 -43t15 -65.5t6 -88.5q0 -73 -17.5 -131t-51 -97.5t-82 -60.5t-110.5 -21h-126zM143 57h60q64 0 107.5 29.5t66 85.5t22.5 134q0 80 -19.5 138t-60.5 89t-105 31h-71v-205h105v-58h-105v-244
z" />
    <glyph glyph-name="Ntilde" unicode="&#xd1;" 
d="M50 623h68l262 -462v462h66h10v-7q-6 -6 -7.5 -13t-1.5 -24v-579h-55l-275 490v-490h-67v623zM379 791l46 -28q-22 -42 -42.5 -58.5t-50.5 -16.5q-22 0 -39.5 8t-32 19t-29 19t-31.5 8t-30.5 -10t-25.5 -37l-49 22q14 34 39 57t64 23q22 0 38.5 -8t30.5 -19t28.5 -19
t32.5 -8q16 0 26.5 10t24.5 38z" />
    <glyph glyph-name="Ograve" unicode="&#xd2;" 
d="M250 -11q-71 0 -121 37t-76 108.5t-26 173.5q0 99 26 170.5t76 110t121 38.5q72 0 121.5 -38.5t75.5 -110t26 -170.5q0 -102 -26 -173.5t-75.5 -108.5t-121.5 -37zM250 50q48 0 81.5 30t51.5 87.5t18 140.5q0 79 -18 136.5t-51.5 89.5t-81.5 32q-47 0 -81 -32t-52 -89.5
t-18 -136.5q0 -83 18 -140.5t52 -87.5t81 -30zM293 660l-170 61l40 70l153 -89z" />
    <glyph glyph-name="Oacute" unicode="&#xd3;" 
d="M250 -11q-71 0 -121 37t-76 108.5t-26 173.5q0 99 26 170.5t76 110t121 38.5q72 0 121.5 -38.5t75.5 -110t26 -170.5q0 -102 -26 -173.5t-75.5 -108.5t-121.5 -37zM250 50q48 0 81.5 30t51.5 87.5t18 140.5q0 79 -18 136.5t-51.5 89.5t-81.5 32q-47 0 -81 -32t-52 -89.5
t-18 -136.5q0 -83 18 -140.5t52 -87.5t81 -30zM177 660l-23 42l152 89l40 -70z" />
    <glyph glyph-name="Ocircumflex" unicode="&#xd4;" 
d="M250 -11q-71 0 -121 37t-76 108.5t-26 173.5q0 99 26 170.5t76 110t121 38.5q72 0 121.5 -38.5t75.5 -110t26 -170.5q0 -102 -26 -173.5t-75.5 -108.5t-121.5 -37zM250 50q48 0 81.5 30t51.5 87.5t18 140.5q0 79 -18 136.5t-51.5 89.5t-81.5 32q-47 0 -81 -32t-52 -89.5
t-18 -136.5q0 -83 18 -140.5t52 -87.5t81 -30zM125 655l-33 38l143 98h22l151 -99l-30 -36l-130 70z" />
    <glyph glyph-name="Otilde" unicode="&#xd5;" 
d="M250 -11q-71 0 -121 37t-76 108.5t-26 173.5q0 99 26 170.5t76 110t121 38.5q72 0 121.5 -38.5t75.5 -110t26 -170.5q0 -102 -26 -173.5t-75.5 -108.5t-121.5 -37zM250 50q48 0 81.5 30t51.5 87.5t18 140.5q0 79 -18 136.5t-51.5 89.5t-81.5 32q-47 0 -81 -32t-52 -89.5
t-18 -136.5q0 -83 18 -140.5t52 -87.5t81 -30zM379 791l46 -28q-22 -42 -42.5 -58.5t-50.5 -16.5q-22 0 -39.5 8t-32 19t-29 19t-31.5 8t-30.5 -10t-25.5 -37l-49 22q14 34 39 57t64 23q22 0 38.5 -8t30.5 -19t28.5 -19t32.5 -8q16 0 26.5 10t24.5 38z" />
    <glyph glyph-name="Odieresis" unicode="&#xd6;" 
d="M250 -11q-71 0 -121 37t-76 108.5t-26 173.5q0 99 26 170.5t76 110t121 38.5q72 0 121.5 -38.5t75.5 -110t26 -170.5q0 -102 -26 -173.5t-75.5 -108.5t-121.5 -37zM250 50q48 0 81.5 30t51.5 87.5t18 140.5q0 79 -18 136.5t-51.5 89.5t-81.5 32q-47 0 -81 -32t-52 -89.5
t-18 -136.5q0 -83 18 -140.5t52 -87.5t81 -30zM160 688q-20 0 -35 15t-15 35t15 35.5t35 15.5q21 0 36 -15t15 -36q0 -20 -15 -35t-36 -15zM338 688q-20 0 -34.5 14.5t-14.5 35.5t14.5 36t34.5 15q21 0 36 -15t15 -36q0 -20 -15 -35t-36 -15z" />
    <glyph glyph-name="multiply" unicode="&#xd7;" 
d="M381 145l-127 133l-125 -129l-44 44l126 131l-126 133l47 46l124 -131l126 131l48 -44l-130 -134l127 -134z" />
    <glyph glyph-name="Oslash" unicode="&#xd8;" 
d="M85 -42l-44 20l375 704l42 -22zM250 -11q-71 0 -121 37t-76 108.5t-26 173.5q0 99 26 170.5t76 110t121 38.5q72 0 121.5 -38.5t75.5 -110t26 -170.5q0 -102 -26 -173.5t-75.5 -108.5t-121.5 -37zM250 50q48 0 81.5 30t51.5 87.5t18 140.5q0 79 -18 136.5t-51.5 89.5
t-81.5 32q-47 0 -81 -32t-52 -89.5t-18 -136.5q0 -83 18 -140.5t52 -87.5t81 -30z" />
    <glyph glyph-name="Ugrave" unicode="&#xd9;" 
d="M251 -11q-100 0 -150.5 59.5t-50.5 166.5v408h68h10v-7q-6 -6 -7.5 -13t-1.5 -24v-365q0 -76 29.5 -121t103.5 -45q75 0 105 45t30 124v406h67v-405q0 -79 -25 -129.5t-70.5 -75t-107.5 -24.5v0zM293 660l-170 61l40 70l153 -89z" />
    <glyph glyph-name="Uacute" unicode="&#xda;" 
d="M251 -11q-100 0 -150.5 59.5t-50.5 166.5v408h68h10v-7q-6 -6 -7.5 -13t-1.5 -24v-365q0 -76 29.5 -121t103.5 -45q75 0 105 45t30 124v406h67v-405q0 -79 -25 -129.5t-70.5 -75t-107.5 -24.5v0zM177 660l-23 42l152 89l40 -70z" />
    <glyph glyph-name="Ucircumflex" unicode="&#xdb;" 
d="M251 -11q-100 0 -150.5 59.5t-50.5 166.5v408h68h10v-7q-6 -6 -7.5 -13t-1.5 -24v-365q0 -76 29.5 -121t103.5 -45q75 0 105 45t30 124v406h67v-405q0 -79 -25 -129.5t-70.5 -75t-107.5 -24.5v0zM125 655l-33 38l143 98h22l151 -99l-30 -36l-130 70z" />
    <glyph glyph-name="Udieresis" unicode="&#xdc;" 
d="M251 -11q-100 0 -150.5 59.5t-50.5 166.5v408h68h10v-7q-6 -6 -7.5 -13t-1.5 -24v-365q0 -76 29.5 -121t103.5 -45q75 0 105 45t30 124v406h67v-405q0 -79 -25 -129.5t-70.5 -75t-107.5 -24.5v0zM160 688q-20 0 -35 15t-15 35t15 35.5t35 15.5q21 0 36 -15t15 -36
q0 -20 -15 -35t-36 -15zM338 688q-20 0 -34.5 14.5t-14.5 35.5t14.5 36t34.5 15q21 0 36 -15t15 -36q0 -20 -15 -35t-36 -15z" />
    <glyph glyph-name="Yacute" unicode="&#xdd;" 
d="M220 0v246l-192 377h80l153 -302l138 302h74l-177 -377v-246h-76zM177 660l-23 42l152 89l40 -70z" />
    <glyph glyph-name="Thorn" unicode="&#xde;" 
d="M59 0v623h78l1.5 -1.5t0.5 -1.5q0 -3 -4 -9.5t-6 -15.5v-89h130q70 0 113 -24t63.5 -64t20.5 -88t-20 -87t-62 -62t-110 -23h-135v-158h-70zM129 219h135q43 0 69.5 14.5t38.5 39.5t12 55q0 31 -13 56t-41 40.5t-73 15.5h-128v-221z" />
    <glyph glyph-name="germandbls" unicode="&#xdf;" 
d="M281 -10q-29 0 -55 7.5t-49 23.5l35 56q15 -12 33 -18t40 -6q21 0 41.5 10.5t36.5 29.5t25.5 44.5t9.5 55.5q0 27 -9 51t-28 41.5t-48 27.5t-69 10h-30v57h36q15 0 29.5 4.5t27.5 13.5t23 22t16 30.5t6 39.5q0 26 -8.5 47.5t-23.5 38.5t-35 26t-44 9q-38 0 -64.5 -23.5
t-40 -65t-13.5 -97.5v-425h-68v423q0 83 22.5 137.5t62 81.5t91.5 27q54 0 96.5 -24.5t67.5 -64.5t25 -87q0 -28 -9.5 -54t-27 -46.5t-42.5 -33.5q29 -9 51.5 -26t38.5 -40.5t24.5 -51.5t8.5 -60q0 -53 -22.5 -96.5t-63.5 -69t-97 -25.5z" />
    <glyph glyph-name="agrave" unicode="&#xe0;" 
d="M211 -11q-78 0 -120 35.5t-42 90.5q0 37 18 66.5t49.5 50t73.5 31.5t89 11q17 0 34.5 -0.5t37 -2t40.5 -4.5l2 -55q-18 3 -36.5 4.5t-36.5 2.5t-35 1q-36 0 -66 -6t-52 -18t-34 -31t-12 -46q0 -21 7.5 -35.5t20.5 -23t30.5 -12.5t38.5 -4q39 0 69.5 12.5t52 36.5t32.5 59
t11 80q0 68 -16 106t-47.5 54t-80.5 16q-33 0 -65 -12.5t-58 -38.5l-35 46q32 32 74 48t89 16q45 0 82 -11t63.5 -36.5t41 -68.5t14.5 -108v-243h-78v70q-13 -25 -31.5 -41t-39.5 -24.5t-43 -12t-42 -3.5zM244 507l-101 135l55 40l84 -149z" />
    <glyph glyph-name="aacute" unicode="&#xe1;" 
d="M211 -11q-78 0 -120 35.5t-42 90.5q0 37 18 66.5t49.5 50t73.5 31.5t89 11q17 0 34.5 -0.5t37 -2t40.5 -4.5l2 -55q-18 3 -36.5 4.5t-36.5 2.5t-35 1q-36 0 -66 -6t-52 -18t-34 -31t-12 -46q0 -21 7.5 -35.5t20.5 -23t30.5 -12.5t38.5 -4q39 0 69.5 12.5t52 36.5t32.5 59
t11 80q0 68 -16 106t-47.5 54t-80.5 16q-33 0 -65 -12.5t-58 -38.5l-35 46q32 32 74 48t89 16q45 0 82 -11t63.5 -36.5t41 -68.5t14.5 -108v-243h-78v70q-13 -25 -31.5 -41t-39.5 -24.5t-43 -12t-42 -3.5zM243 507l-38 26l84 149l55 -40z" />
    <glyph glyph-name="acircumflex" unicode="&#xe2;" 
d="M211 -11q-78 0 -120 35.5t-42 90.5q0 37 18 66.5t49.5 50t73.5 31.5t89 11q17 0 34.5 -0.5t37 -2t40.5 -4.5l2 -55q-18 3 -36.5 4.5t-36.5 2.5t-35 1q-36 0 -66 -6t-52 -18t-34 -31t-12 -46q0 -21 7.5 -35.5t20.5 -23t30.5 -12.5t38.5 -4q39 0 69.5 12.5t52 36.5t32.5 59
t11 80q0 68 -16 106t-47.5 54t-80.5 16q-33 0 -65 -12.5t-58 -38.5l-35 46q32 32 74 48t89 16q45 0 82 -11t63.5 -36.5t41 -68.5t14.5 -108v-243h-78v70q-13 -25 -31.5 -41t-39.5 -24.5t-43 -12t-42 -3.5zM139 511l-40 34l139 140h24l139 -140l-40 -34l-111 110z" />
    <glyph glyph-name="atilde" unicode="&#xe3;" 
d="M211 -11q-78 0 -120 35.5t-42 90.5q0 37 18 66.5t49.5 50t73.5 31.5t89 11q17 0 34.5 -0.5t37 -2t40.5 -4.5l2 -55q-18 3 -36.5 4.5t-36.5 2.5t-35 1q-36 0 -66 -6t-52 -18t-34 -31t-12 -46q0 -21 7.5 -35.5t20.5 -23t30.5 -12.5t38.5 -4q39 0 69.5 12.5t52 36.5t32.5 59
t11 80q0 68 -16 106t-47.5 54t-80.5 16q-33 0 -65 -12.5t-58 -38.5l-35 46q32 32 74 48t89 16q45 0 82 -11t63.5 -36.5t41 -68.5t14.5 -108v-243h-78v70q-13 -25 -31.5 -41t-39.5 -24.5t-43 -12t-42 -3.5zM375 677l46 -28q-22 -42 -42.5 -58.5t-50.5 -16.5q-22 0 -39.5 8
t-32 19t-29 19t-31.5 8t-30.5 -10t-25.5 -37l-49 22q14 34 39 57t64 23q22 0 38.5 -8t30.5 -19t28.5 -19t32.5 -8q16 0 26.5 10t24.5 38z" />
    <glyph glyph-name="adieresis" unicode="&#xe4;" 
d="M211 -11q-78 0 -120 35.5t-42 90.5q0 37 18 66.5t49.5 50t73.5 31.5t89 11q17 0 34.5 -0.5t37 -2t40.5 -4.5l2 -55q-18 3 -36.5 4.5t-36.5 2.5t-35 1q-36 0 -66 -6t-52 -18t-34 -31t-12 -46q0 -21 7.5 -35.5t20.5 -23t30.5 -12.5t38.5 -4q39 0 69.5 12.5t52 36.5t32.5 59
t11 80q0 68 -16 106t-47.5 54t-80.5 16q-33 0 -65 -12.5t-58 -38.5l-35 46q32 32 74 48t89 16q45 0 82 -11t63.5 -36.5t41 -68.5t14.5 -108v-243h-78v70q-13 -25 -31.5 -41t-39.5 -24.5t-43 -12t-42 -3.5zM162 564q-21 0 -36 15t-15 35t15 35.5t36 15.5q20 0 35 -15t15 -36
q0 -20 -15 -35t-35 -15zM340 564q-21 0 -35.5 14.5t-14.5 35.5t14.5 36t35.5 15q20 0 35 -15t15 -36q0 -20 -15 -35t-35 -15z" />
    <glyph glyph-name="aring" unicode="&#xe5;" 
d="M211 -11q-78 0 -120 35.5t-42 90.5q0 37 18 66.5t49.5 50t73.5 31.5t89 11q17 0 34.5 -0.5t37 -2t40.5 -4.5l2 -55q-18 3 -36.5 4.5t-36.5 2.5t-35 1q-36 0 -66 -6t-52 -18t-34 -31t-12 -46q0 -21 7.5 -35.5t20.5 -23t30.5 -12.5t38.5 -4q39 0 69.5 12.5t52 36.5t32.5 59
t11 80q0 68 -16 106t-47.5 54t-80.5 16q-33 0 -65 -12.5t-58 -38.5l-35 46q32 32 74 48t89 16q45 0 82 -11t63.5 -36.5t41 -68.5t14.5 -108v-243h-78v70q-13 -25 -31.5 -41t-39.5 -24.5t-43 -12t-42 -3.5zM249 517q-24 0 -44.5 12t-33.5 32t-13 44t13 44t33.5 32t44.5 12
q25 0 46 -12t33.5 -31.5t12.5 -44.5q0 -24 -13 -44t-33.5 -32t-45.5 -12zM250 560q17 0 29.5 13.5t12.5 32.5t-12.5 32.5t-29.5 13.5t-29 -13.5t-12 -32.5t12 -32.5t29 -13.5z" />
    <glyph glyph-name="ae" unicode="&#xe6;" 
d="M142 -11q-47 0 -76 18t-42.5 48.5t-13.5 67.5q0 36 13.5 64.5t39.5 48t66 30.5t92 13q0 44 -8 73t-25.5 44t-45.5 15q-22 0 -41 -10.5t-35 -32.5l-35 44q22 28 50.5 41.5t65.5 13.5q24 0 45.5 -7.5t38.5 -21t27 -33.5q12 20 28.5 33.5t36 21t39.5 7.5q46 0 74 -24
t41 -68.5t13 -106.5v-38l-208 -7v-48q0 -29 7 -52.5t21 -40.5t33 -26t43 -9q16 0 29 4t24 12.5t20 20.5l35 -42q-22 -26 -50.5 -39.5t-63.5 -13.5q-25 0 -48.5 8.5t-43 24t-33.5 36.5q-11 -21 -28.5 -36.5t-39 -24t-45.5 -8.5zM144 50q36 0 52 23t20.5 61.5t4.5 84.5
q-53 -2 -85.5 -11.5t-47 -30t-14.5 -55.5q0 -28 8 -43.5t24 -22t38 -6.5zM282 279l150 5q0 42 -7 70.5t-22.5 42.5t-40.5 14t-43 -15.5t-27.5 -44.5t-9.5 -72z" />
    <glyph glyph-name="ccedilla" unicode="&#xe7;" 
d="M285 -11q-50 0 -92 18t-72.5 50t-47.5 75.5t-17 95.5q0 51 17 94.5t47.5 75.5t72.5 50t91 18q56 0 100.5 -22.5t72.5 -62.5l-45 -44l-7 -7l-5 5q0 8 -3.5 15t-15.5 19q-22 20 -47 28t-58 8q-29 0 -55 -12t-46.5 -34.5t-32.5 -54.5t-12 -71t12 -71.5t33 -56.5t50.5 -37.5
t63.5 -13.5q23 0 44 6.5t40 19t35 30.5l42 -49q-34 -36 -75.5 -54t-89.5 -18v0zM283 -197q-26 0 -51 7.5t-48 23.5l25 42q19 -15 40.5 -22.5t46.5 -7.5q26 0 38 9.5t12 26.5q0 16 -14 24.5t-37 8.5h-30l11 85h44l-6 -47q30 -2 48.5 -12t27.5 -24t9 -29q0 -34 -28.5 -59.5
t-87.5 -25.5z" />
    <glyph glyph-name="egrave" unicode="&#xe8;" 
d="M272 -10q-50 0 -91 15.5t-70.5 45.5t-45.5 74.5t-16 101.5q0 58 16.5 103t45 75.5t67 46.5t81.5 16q39 0 73 -13t59 -39.5t39.5 -67.5t14.5 -97q0 -8 -0.5 -16.5t-1.5 -16.5h-325q2 -44 15 -76.5t34 -53t48.5 -30.5t58.5 -10q24 0 45 5.5t39.5 17t33.5 28.5l40 -39
q-19 -23 -43.5 -39t-53.5 -23.5t-63 -7.5zM121 274h251q0 32 -8.5 57.5t-24 44t-37 28t-48.5 9.5q-24 0 -45.5 -8t-39.5 -25.5t-30.5 -43.5t-17.5 -62zM254 507l-101 135l55 40l84 -149z" />
    <glyph glyph-name="eacute" unicode="&#xe9;" 
d="M272 -10q-50 0 -91 15.5t-70.5 45.5t-45.5 74.5t-16 101.5q0 58 16.5 103t45 75.5t67 46.5t81.5 16q39 0 73 -13t59 -39.5t39.5 -67.5t14.5 -97q0 -8 -0.5 -16.5t-1.5 -16.5h-325q2 -44 15 -76.5t34 -53t48.5 -30.5t58.5 -10q24 0 45 5.5t39.5 17t33.5 28.5l40 -39
q-19 -23 -43.5 -39t-53.5 -23.5t-63 -7.5zM121 274h251q0 32 -8.5 57.5t-24 44t-37 28t-48.5 9.5q-24 0 -45.5 -8t-39.5 -25.5t-30.5 -43.5t-17.5 -62zM253 507l-38 26l84 149l55 -40z" />
    <glyph glyph-name="ecircumflex" unicode="&#xea;" 
d="M272 -10q-50 0 -91 15.5t-70.5 45.5t-45.5 74.5t-16 101.5q0 58 16.5 103t45 75.5t67 46.5t81.5 16q39 0 73 -13t59 -39.5t39.5 -67.5t14.5 -97q0 -8 -0.5 -16.5t-1.5 -16.5h-325q2 -44 15 -76.5t34 -53t48.5 -30.5t58.5 -10q24 0 45 5.5t39.5 17t33.5 28.5l40 -39
q-19 -23 -43.5 -39t-53.5 -23.5t-63 -7.5zM121 274h251q0 32 -8.5 57.5t-24 44t-37 28t-48.5 9.5q-24 0 -45.5 -8t-39.5 -25.5t-30.5 -43.5t-17.5 -62zM149 511l-40 34l139 140h24l139 -140l-40 -34l-111 110z" />
    <glyph glyph-name="edieresis" unicode="&#xeb;" 
d="M272 -10q-50 0 -91 15.5t-70.5 45.5t-45.5 74.5t-16 101.5q0 58 16.5 103t45 75.5t67 46.5t81.5 16q39 0 73 -13t59 -39.5t39.5 -67.5t14.5 -97q0 -8 -0.5 -16.5t-1.5 -16.5h-325q2 -44 15 -76.5t34 -53t48.5 -30.5t58.5 -10q24 0 45 5.5t39.5 17t33.5 28.5l40 -39
q-19 -23 -43.5 -39t-53.5 -23.5t-63 -7.5zM121 274h251q0 32 -8.5 57.5t-24 44t-37 28t-48.5 9.5q-24 0 -45.5 -8t-39.5 -25.5t-30.5 -43.5t-17.5 -62zM172 564q-21 0 -36 15t-15 35t15 35.5t36 15.5q20 0 35 -15t15 -36q0 -20 -15 -35t-35 -15zM350 564q-21 0 -35.5 14.5
t-14.5 35.5t14.5 36t35.5 15q20 0 35 -15t15 -36q0 -20 -15 -35t-35 -15z" />
    <glyph glyph-name="igrave" unicode="&#xec;" 
d="M100 0v58h117v341h-111v58h183v-399h107v-58h-296zM244 507l-101 135l55 40l84 -149z" />
    <glyph glyph-name="iacute" unicode="&#xed;" 
d="M100 0v58h117v341h-111v58h183v-399h107v-58h-296zM246 522l-38 26l84 149l55 -40z" />
    <glyph glyph-name="icircumflex" unicode="&#xee;" 
d="M100 0v58h117v341h-111v58h183v-399h107v-58h-296zM139 511l-40 34l139 140h24l139 -140l-40 -34l-111 110z" />
    <glyph glyph-name="idieresis" unicode="&#xef;" 
d="M100 0v58h117v341h-111v58h183v-399h107v-58h-296zM155 564q-21 0 -36 15t-15 35t15 35.5t36 15.5q20 0 35 -15t15 -36q0 -20 -15 -35t-35 -15zM333 564q-21 0 -35.5 14.5t-14.5 35.5t14.5 36t35.5 15q20 0 35 -15t15 -36q0 -20 -15 -35t-35 -15z" />
    <glyph glyph-name="eth" unicode="&#xf0;" 
d="M256 -12q-43 0 -82 17.5t-69.5 49t-47.5 74.5t-17 94q0 50 17 94t46 78t65 53t74 19q26 0 48.5 -5.5t42.5 -17t36 -29.5q-16 38 -37 72.5t-49 64.5l-128 -36l-18 48l104 28q-15 13 -31.5 24t-34 21.5t-36.5 18.5l81 16q23 -13 44.5 -28t42.5 -34l108 29l17 -44l-85 -25
q28 -32 49 -67.5t35.5 -75.5t21.5 -83.5t7 -90.5q0 -60 -13.5 -109t-39 -83.5t-63.5 -53.5t-88 -19zM256 50q25 0 48.5 10.5t42 33t29.5 56.5t11 82q0 39 -8 68t-21 49t-30.5 32.5t-36.5 18.5t-38 6q-24 0 -48.5 -11t-44 -33t-31.5 -54.5t-12 -75.5q0 -41 11 -74.5t30 -57.5
t44 -37t54 -13z" />
    <glyph glyph-name="ntilde" unicode="&#xf1;" 
d="M72 0v457h70v-81q18 28 42 48.5t53 32t60 11.5q38 0 68 -19t48 -61t18 -111v-277h-70v275q0 48 -11 76.5t-30 41t-43 12.5q-23 0 -46.5 -10t-43.5 -28.5t-32.5 -44.5t-12.5 -59v-263h-70zM390 677l46 -28q-22 -42 -42.5 -58.5t-50.5 -16.5q-22 0 -39.5 8t-32 19t-29 19
t-31.5 8t-30.5 -10t-25.5 -37l-49 22q14 34 39 57t64 23q22 0 38.5 -8t30.5 -19t28.5 -19t32.5 -8q16 0 26.5 10t24.5 38z" />
    <glyph glyph-name="ograve" unicode="&#xf2;" 
d="M250 -8q-62 0 -109.5 30.5t-74.5 84t-27 122.5q0 70 27 123.5t74.5 84t109.5 30.5t109.5 -30.5t74.5 -84t27 -123.5q0 -69 -27 -122.5t-74.5 -84t-109.5 -30.5zM250 52q40 0 70 23t47.5 63t17.5 92t-17.5 92t-47.5 62.5t-70 22.5q-39 0 -69.5 -22.5t-48 -62.5t-17.5 -92
t17.5 -92t48 -63t69.5 -23zM244 507l-101 135l55 40l84 -149z" />
    <glyph glyph-name="oacute" unicode="&#xf3;" 
d="M250 -8q-62 0 -109.5 30.5t-74.5 84t-27 122.5q0 70 27 123.5t74.5 84t109.5 30.5t109.5 -30.5t74.5 -84t27 -123.5q0 -69 -27 -122.5t-74.5 -84t-109.5 -30.5zM250 52q40 0 70 23t47.5 63t17.5 92t-17.5 92t-47.5 62.5t-70 22.5q-39 0 -69.5 -22.5t-48 -62.5t-17.5 -92
t17.5 -92t48 -63t69.5 -23zM243 507l-38 26l84 149l55 -40z" />
    <glyph glyph-name="ocircumflex" unicode="&#xf4;" 
d="M250 -8q-62 0 -109.5 30.5t-74.5 84t-27 122.5q0 70 27 123.5t74.5 84t109.5 30.5t109.5 -30.5t74.5 -84t27 -123.5q0 -69 -27 -122.5t-74.5 -84t-109.5 -30.5zM250 52q40 0 70 23t47.5 63t17.5 92t-17.5 92t-47.5 62.5t-70 22.5q-39 0 -69.5 -22.5t-48 -62.5t-17.5 -92
t17.5 -92t48 -63t69.5 -23zM139 511l-40 34l139 140h24l139 -140l-40 -34l-111 110z" />
    <glyph glyph-name="otilde" unicode="&#xf5;" 
d="M250 -8q-62 0 -109.5 30.5t-74.5 84t-27 122.5q0 70 27 123.5t74.5 84t109.5 30.5t109.5 -30.5t74.5 -84t27 -123.5q0 -69 -27 -122.5t-74.5 -84t-109.5 -30.5zM250 52q40 0 70 23t47.5 63t17.5 92t-17.5 92t-47.5 62.5t-70 22.5q-39 0 -69.5 -22.5t-48 -62.5t-17.5 -92
t17.5 -92t48 -63t69.5 -23zM375 677l46 -28q-22 -42 -42.5 -58.5t-50.5 -16.5q-22 0 -39.5 8t-32 19t-29 19t-31.5 8t-30.5 -10t-25.5 -37l-49 22q14 34 39 57t64 23q22 0 38.5 -8t30.5 -19t28.5 -19t32.5 -8q16 0 26.5 10t24.5 38z" />
    <glyph glyph-name="odieresis" unicode="&#xf6;" 
d="M250 -8q-62 0 -109.5 30.5t-74.5 84t-27 122.5q0 70 27 123.5t74.5 84t109.5 30.5t109.5 -30.5t74.5 -84t27 -123.5q0 -69 -27 -122.5t-74.5 -84t-109.5 -30.5zM250 52q40 0 70 23t47.5 63t17.5 92t-17.5 92t-47.5 62.5t-70 22.5q-39 0 -69.5 -22.5t-48 -62.5t-17.5 -92
t17.5 -92t48 -63t69.5 -23zM162 564q-21 0 -36 15t-15 35t15 35.5t36 15.5q20 0 35 -15t15 -36q0 -20 -15 -35t-35 -15zM340 564q-21 0 -35.5 14.5t-14.5 35.5t14.5 36t35.5 15q20 0 35 -15t15 -36q0 -20 -15 -35t-35 -15z" />
    <glyph glyph-name="divide" unicode="&#xf7;" 
d="M71 281v67h360v-67h-360zM255 432q-18 0 -31 13t-13 31q0 19 13.5 32.5t30.5 13.5q19 0 32 -14t13 -32t-13 -31t-32 -13zM256 104q-18 0 -32 12.5t-14 31.5q0 20 14.5 33t31.5 13t30.5 -14t13.5 -32t-13 -31t-31 -13z" />
    <glyph glyph-name="oslash" unicode="&#xf8;" 
d="M121 -63l-51 27l302 555l54 -28zM250 -8q-62 0 -109.5 30.5t-74.5 84t-27 122.5q0 70 27 123.5t74.5 84t109.5 30.5t109.5 -30.5t74.5 -84t27 -123.5q0 -69 -27 -122.5t-74.5 -84t-109.5 -30.5zM250 52q40 0 70 23t47.5 63t17.5 92t-17.5 92t-47.5 62.5t-70 22.5
q-39 0 -69.5 -22.5t-48 -62.5t-17.5 -92t17.5 -92t48 -63t69.5 -23z" />
    <glyph glyph-name="ugrave" unicode="&#xf9;" 
d="M221 -11q-27 0 -51 8t-43.5 24.5t-33.5 41.5t-21.5 60t-7.5 79l1 255h70v-255q0 -43 8 -73t22.5 -48t33.5 -26t40 -8q24 0 46 9.5t39.5 28.5t27.5 49t10 71v252h70v-386q0 -18 1.5 -35.5t8.5 -35.5h-69q-5 12 -7 23.5t-2.5 23.5t-0.5 23q-11 -19 -26 -34t-33.5 -25.5
t-39 -16t-43.5 -5.5zM244 507l-101 135l55 40l84 -149z" />
    <glyph glyph-name="uacute" unicode="&#xfa;" 
d="M221 -11q-27 0 -51 8t-43.5 24.5t-33.5 41.5t-21.5 60t-7.5 79l1 255h70v-255q0 -43 8 -73t22.5 -48t33.5 -26t40 -8q24 0 46 9.5t39.5 28.5t27.5 49t10 71v252h70v-386q0 -18 1.5 -35.5t8.5 -35.5h-69q-5 12 -7 23.5t-2.5 23.5t-0.5 23q-11 -19 -26 -34t-33.5 -25.5
t-39 -16t-43.5 -5.5zM243 507l-38 26l84 149l55 -40z" />
    <glyph glyph-name="ucircumflex" unicode="&#xfb;" 
d="M221 -11q-27 0 -51 8t-43.5 24.5t-33.5 41.5t-21.5 60t-7.5 79l1 255h70v-255q0 -43 8 -73t22.5 -48t33.5 -26t40 -8q24 0 46 9.5t39.5 28.5t27.5 49t10 71v252h70v-386q0 -18 1.5 -35.5t8.5 -35.5h-69q-5 12 -7 23.5t-2.5 23.5t-0.5 23q-11 -19 -26 -34t-33.5 -25.5
t-39 -16t-43.5 -5.5zM139 511l-40 34l139 140h24l139 -140l-40 -34l-111 110z" />
    <glyph glyph-name="udieresis" unicode="&#xfc;" 
d="M221 -11q-27 0 -51 8t-43.5 24.5t-33.5 41.5t-21.5 60t-7.5 79l1 255h70v-255q0 -43 8 -73t22.5 -48t33.5 -26t40 -8q24 0 46 9.5t39.5 28.5t27.5 49t10 71v252h70v-386q0 -18 1.5 -35.5t8.5 -35.5h-69q-5 12 -7 23.5t-2.5 23.5t-0.5 23q-11 -19 -26 -34t-33.5 -25.5
t-39 -16t-43.5 -5.5zM162 564q-21 0 -36 15t-15 35t15 35.5t36 15.5q20 0 35 -15t15 -36q0 -20 -15 -35t-35 -15zM340 564q-21 0 -35.5 14.5t-14.5 35.5t14.5 36t35.5 15q20 0 35 -15t15 -36q0 -20 -15 -35t-35 -15z" />
    <glyph glyph-name="yacute" unicode="&#xfd;" 
d="M127 -174q-32 0 -58.5 10t-46.5 29l31 49l6 9l6 -4q2 -8 7 -13.5t19 -14.5q9 -3 19 -4.5t21 -1.5q27 0 45.5 13t32.5 40t27 68l87 269q15 46 29 91t19 91h72q-7 -46 -22 -93t-32 -94l-114 -322q-24 -67 -61.5 -94.5t-86.5 -27.5v0zM46 457h75l148 -381l-32 -89zM246 507
l-38 26l84 149l55 -40z" />
    <glyph glyph-name="thorn" unicode="&#xfe;" 
d="M60 665h72h10v-7q-6 -6 -7.5 -13t-1.5 -24v-254q11 35 31.5 57t48 32.5t59.5 10.5q38 0 72.5 -14.5t61 -43.5t42 -73t15.5 -104t-16.5 -106t-44 -76.5t-62 -46t-70.5 -15.5q-27 0 -52.5 8.5t-46.5 25t-37 38.5v-227h-74v832zM258 52q24 0 47 8.5t42 28.5t30 54.5t11 85.5
q0 55 -14 93.5t-40.5 59.5t-64.5 23q-28 2 -52.5 -8t-43.5 -33t-29.5 -60.5t-10.5 -90.5q1 -32 7 -58t17 -45.5t26 -32t34 -19t41 -6.5v0z" />
    <glyph glyph-name="ydieresis" unicode="&#xff;" 
d="M127 -174q-32 0 -58.5 10t-46.5 29l31 49l6 9l6 -4q2 -8 7 -13.5t19 -14.5q9 -3 19 -4.5t21 -1.5q27 0 45.5 13t32.5 40t27 68l87 269q15 46 29 91t19 91h72q-7 -46 -22 -93t-32 -94l-114 -322q-24 -67 -61.5 -94.5t-86.5 -27.5v0zM46 457h75l148 -381l-32 -89zM165 564
q-21 0 -36 15t-15 35t15 35.5t36 15.5q20 0 35 -15t15 -36q0 -20 -15 -35t-35 -15zM343 564q-21 0 -35.5 14.5t-14.5 35.5t14.5 36t35.5 15q20 0 35 -15t15 -36q0 -20 -15 -35t-35 -15z" />
    <glyph glyph-name="Amacron" unicode="&#x100;" 
d="M357 182h-226l14 54h196zM249 474l-164 -474h-69l230 634h8l230 -634h-72zM123 731v56h254v-56h-254z" />
    <glyph glyph-name="amacron" unicode="&#x101;" 
d="M211 -11q-78 0 -120 35.5t-42 90.5q0 37 18 66.5t49.5 50t73.5 31.5t89 11q17 0 34.5 -0.5t37 -2t40.5 -4.5l2 -55q-18 3 -36.5 4.5t-36.5 2.5t-35 1q-36 0 -66 -6t-52 -18t-34 -31t-12 -46q0 -21 7.5 -35.5t20.5 -23t30.5 -12.5t38.5 -4q39 0 69.5 12.5t52 36.5t32.5 59
t11 80q0 68 -16 106t-47.5 54t-80.5 16q-33 0 -65 -12.5t-58 -38.5l-35 46q32 32 74 48t89 16q45 0 82 -11t63.5 -36.5t41 -68.5t14.5 -108v-243h-78v70q-13 -25 -31.5 -41t-39.5 -24.5t-43 -12t-42 -3.5zM123 565v56h254v-56h-254z" />
    <glyph glyph-name="Abreve" unicode="&#x102;" 
d="M357 182h-226l14 54h196zM249 474l-164 -474h-69l230 634h8l230 -634h-72zM340 787l52 -24q-22 -44 -58.5 -68t-83.5 -24q-46 0 -82.5 24t-59.5 68l52 24q17 -35 38.5 -51.5t51.5 -16.5q20 0 36.5 7t29.5 22.5t24 38.5z" />
    <glyph glyph-name="abreve" unicode="&#x103;" 
d="M211 -11q-78 0 -120 35.5t-42 90.5q0 37 18 66.5t49.5 50t73.5 31.5t89 11q17 0 34.5 -0.5t37 -2t40.5 -4.5l2 -55q-18 3 -36.5 4.5t-36.5 2.5t-35 1q-36 0 -66 -6t-52 -18t-34 -31t-12 -46q0 -21 7.5 -35.5t20.5 -23t30.5 -12.5t38.5 -4q39 0 69.5 12.5t52 36.5t32.5 59
t11 80q0 68 -16 106t-47.5 54t-80.5 16q-33 0 -65 -12.5t-58 -38.5l-35 46q32 32 74 48t89 16q45 0 82 -11t63.5 -36.5t41 -68.5t14.5 -108v-243h-78v70q-13 -25 -31.5 -41t-39.5 -24.5t-43 -12t-42 -3.5zM340 654l52 -24q-22 -44 -58.5 -68t-83.5 -24q-46 0 -82.5 24
t-59.5 68l52 24q17 -35 38.5 -51.5t51.5 -16.5q20 0 36.5 7t29.5 22.5t24 38.5z" />
    <glyph glyph-name="Aogonek" unicode="&#x104;" 
d="M357 182h-226l14 54h196zM249 474l-164 -474h-69l230 634h8l230 -634h-72zM444 -179l-16 -48q-33 5 -58 16.5t-39.5 30t-14.5 43.5q0 27 14 53.5t41 52t66 48.5l27 -17q-25 -20 -43.5 -41.5t-28.5 -42.5t-10 -39q0 -21 15 -36t47 -20z" />
    <glyph glyph-name="aogonek" unicode="&#x105;" 
d="M211 -11q-78 0 -120 35.5t-42 90.5q0 37 18 66.5t49.5 50t73.5 31.5t89 11q17 0 34.5 -0.5t37 -2t40.5 -4.5l2 -55q-18 3 -36.5 4.5t-36.5 2.5t-35 1q-36 0 -66 -6t-52 -18t-34 -31t-12 -46q0 -21 7.5 -35.5t20.5 -23t30.5 -12.5t38.5 -4q39 0 69.5 12.5t52 36.5t32.5 59
t11 80q0 68 -16 106t-47.5 54t-80.5 16q-33 0 -65 -12.5t-58 -38.5l-35 46q32 32 74 48t89 16q45 0 82 -11t63.5 -36.5t41 -68.5t14.5 -108v-243h-78v70q-13 -25 -31.5 -41t-39.5 -24.5t-43 -12t-42 -3.5zM379 -179l-16 -48q-33 5 -58 16.5t-39.5 30t-14.5 43.5
q0 27 14 53.5t41 52t66 48.5l27 -17q-25 -20 -43.5 -41.5t-28.5 -42.5t-10 -39q0 -21 15 -36t47 -20z" />
    <glyph glyph-name="Cacute" unicode="&#x106;" 
d="M285 -10q-51 0 -95 18.5t-77.5 57.5t-52.5 99t-19 143q0 73 14 127.5t38 91.5t55 59t65 32t68 10q68 0 116 -33.5t72 -89.5l-60 -28l-9 -4l-3 7q3 8 0 14.5t-11 20.5q-25 34 -51.5 45.5t-55.5 11.5q-39 0 -70.5 -17.5t-54 -51t-34 -81.5t-11.5 -109q0 -59 13.5 -107
t37 -83t55 -54t67.5 -19q25 0 48.5 9t43.5 26.5t34 40.5l52 -34q-30 -50 -72 -76t-103 -26v0zM197 660l-23 42l152 89l40 -70z" />
    <glyph glyph-name="cacute" unicode="&#x107;" 
d="M285 -11q-50 0 -92 18t-72.5 50t-47.5 75.5t-17 95.5q0 51 17 94.5t47.5 75.5t72.5 50t91 18q56 0 100.5 -22.5t72.5 -62.5l-45 -44l-7 -7l-5 5q0 8 -3.5 15t-15.5 19q-22 20 -47 28t-58 8q-29 0 -55 -12t-46.5 -34.5t-32.5 -54.5t-12 -71t12 -71.5t33 -56.5t50.5 -37.5
t63.5 -13.5q23 0 44 6.5t40 19t35 30.5l42 -49q-34 -36 -75.5 -54t-89.5 -18v0zM279 507l-38 26l84 149l55 -40z" />
    <glyph glyph-name="Ccircumflex" unicode="&#x108;" 
d="M285 -10q-51 0 -95 18.5t-77.5 57.5t-52.5 99t-19 143q0 73 14 127.5t38 91.5t55 59t65 32t68 10q68 0 116 -33.5t72 -89.5l-60 -28l-9 -4l-3 7q3 8 0 14.5t-11 20.5q-25 34 -51.5 45.5t-55.5 11.5q-39 0 -70.5 -17.5t-54 -51t-34 -81.5t-11.5 -109q0 -59 13.5 -107
t37 -83t55 -54t67.5 -19q25 0 48.5 9t43.5 26.5t34 40.5l52 -34q-30 -50 -72 -76t-103 -26v0zM145 655l-33 38l143 98h22l151 -99l-30 -36l-130 70z" />
    <glyph glyph-name="ccircumflex" unicode="&#x109;" 
d="M285 -11q-50 0 -92 18t-72.5 50t-47.5 75.5t-17 95.5q0 51 17 94.5t47.5 75.5t72.5 50t91 18q56 0 100.5 -22.5t72.5 -62.5l-45 -44l-7 -7l-5 5q0 8 -3.5 15t-15.5 19q-22 20 -47 28t-58 8q-29 0 -55 -12t-46.5 -34.5t-32.5 -54.5t-12 -71t12 -71.5t33 -56.5t50.5 -37.5
t63.5 -13.5q23 0 44 6.5t40 19t35 30.5l42 -49q-34 -36 -75.5 -54t-89.5 -18v0zM175 511l-40 34l139 140h24l139 -140l-40 -34l-111 110z" />
    <glyph glyph-name="Cdotaccent" unicode="&#x10a;" 
d="M285 -10q-51 0 -95 18.5t-77.5 57.5t-52.5 99t-19 143q0 73 14 127.5t38 91.5t55 59t65 32t68 10q68 0 116 -33.5t72 -89.5l-60 -28l-9 -4l-3 7q3 8 0 14.5t-11 20.5q-25 34 -51.5 45.5t-55.5 11.5q-39 0 -70.5 -17.5t-54 -51t-34 -81.5t-11.5 -109q0 -59 13.5 -107
t37 -83t55 -54t67.5 -19q25 0 48.5 9t43.5 26.5t34 40.5l52 -34q-30 -50 -72 -76t-103 -26v0zM268 693q-21 0 -36 15t-15 36q0 22 14.5 37t36.5 15q21 0 36.5 -15.5t15.5 -36.5t-15.5 -36t-36.5 -15z" />
    <glyph glyph-name="cdotaccent" unicode="&#x10b;" 
d="M285 -11q-50 0 -92 18t-72.5 50t-47.5 75.5t-17 95.5q0 51 17 94.5t47.5 75.5t72.5 50t91 18q56 0 100.5 -22.5t72.5 -62.5l-45 -44l-7 -7l-5 5q0 8 -3.5 15t-15.5 19q-22 20 -47 28t-58 8q-29 0 -55 -12t-46.5 -34.5t-32.5 -54.5t-12 -71t12 -71.5t33 -56.5t50.5 -37.5
t63.5 -13.5q23 0 44 6.5t40 19t35 30.5l42 -49q-34 -36 -75.5 -54t-89.5 -18v0zM285 553q-21 0 -36 15t-15 36q0 22 14.5 37t36.5 15q21 0 36.5 -15.5t15.5 -36.5t-15.5 -36t-36.5 -15z" />
    <glyph glyph-name="Ccaron" unicode="&#x10c;" 
d="M285 -10q-51 0 -95 18.5t-77.5 57.5t-52.5 99t-19 143q0 73 14 127.5t38 91.5t55 59t65 32t68 10q68 0 116 -33.5t72 -89.5l-60 -28l-9 -4l-3 7q3 8 0 14.5t-11 20.5q-25 34 -51.5 45.5t-55.5 11.5q-39 0 -70.5 -17.5t-54 -51t-34 -81.5t-11.5 -109q0 -59 13.5 -107
t37 -83t55 -54t67.5 -19q25 0 48.5 9t43.5 26.5t34 40.5l52 -34q-30 -50 -72 -76t-103 -26v0zM391 793l33 -38l-143 -98h-22l-151 99l30 36l130 -70z" />
    <glyph glyph-name="ccaron" unicode="&#x10d;" 
d="M285 -11q-50 0 -92 18t-72.5 50t-47.5 75.5t-17 95.5q0 51 17 94.5t47.5 75.5t72.5 50t91 18q56 0 100.5 -22.5t72.5 -62.5l-45 -44l-7 -7l-5 5q0 8 -3.5 15t-15.5 19q-22 20 -47 28t-58 8q-29 0 -55 -12t-46.5 -34.5t-32.5 -54.5t-12 -71t12 -71.5t33 -56.5t50.5 -37.5
t63.5 -13.5q23 0 44 6.5t40 19t35 30.5l42 -49q-34 -36 -75.5 -54t-89.5 -18v0zM174 688l111 -110l111 110l40 -34l-139 -140h-24l-139 140z" />
    <glyph glyph-name="Dcaron" unicode="&#x10e;" 
d="M54 -1v624h145q54 0 91 -10t63 -28.5t46 -46.5q21 -28 34.5 -63t20 -76.5t6.5 -90.5q-3 -72 -19 -129t-48 -97t-82.5 -61.5t-123.5 -21.5h-133zM120 54h64q72 0 117.5 29t67.5 85t21 136q0 82 -20 140t-62.5 89t-112.5 31h-75v-510zM341 793l33 -38l-143 -98h-22l-151 99
l30 36l130 -70z" />
    <glyph glyph-name="dcaron" unicode="&#x10f;" 
d="M183 -10q-28 0 -54.5 13t-47.5 41t-33.5 75t-12.5 114t12.5 112.5t34.5 72.5t49 39t57 12q37 0 63.5 -19.5t38.5 -55.5v271h61h10v-7q-6 -6 -7.5 -13t-1.5 -24v-550q0 -18 1 -35.5t7 -35.5h-63q-4 11 -6 21.5t-3 21.5t-1 23q-10 -22 -25.5 -39.5t-35 -27t-43.5 -9.5v0z
M195 52q32 0 52 21t29.5 61t9.5 97q0 58 -10.5 97.5t-31 60t-52.5 20.5q-23 0 -41 -10t-30 -30t-18 -51t-6 -74q0 -51 7 -87.5t19.5 -59.5t31 -34t40.5 -11v0zM433 668q18 0 31.5 -15t13.5 -37q0 -20 -10 -46.5t-26 -53.5t-33 -49l-29 21q10 12 19 24.5t15 26t6 27.5
q0 10 -8 17.5t-16.5 17.5t-8.5 27q0 14 12 27t34 13z" />
    <glyph glyph-name="Dcroat" unicode="&#x110;" 
d="M79 -1v302h-49v58h49v264h139q47 0 81 -10t58 -27t41 -37.5t29 -42.5q9 -16 18 -43t15 -65.5t6 -88.5q0 -73 -17.5 -131t-51 -97.5t-82 -60.5t-110.5 -21h-126zM143 57h60q64 0 107.5 29.5t66 85.5t22.5 134q0 80 -19.5 138t-60.5 89t-105 31h-71v-205h105v-58h-105v-244
z" />
    <glyph glyph-name="dcroat" unicode="&#x111;" 
d="M234 -10q-35 0 -68.5 15t-61 45t-43.5 76t-16 107q0 63 17 107.5t45 73t62 42t69 13.5q32 0 57.5 -10t45 -27.5t30.5 -41.5v275h66h10v-7q-6 -6 -7.5 -13t-1.5 -24l1 -550q0 -18 1.5 -35.5t8.5 -35.5h-71q-5 12 -7 24t-2.5 23.5t-0.5 23.5q-14 -24 -34 -42.5t-45 -28.5
t-55 -10v0zM245 53q33 0 56 13.5t37 38t20.5 57t6.5 69.5q0 51 -13 91.5t-41 64t-72 23.5q-30 0 -53.5 -11.5t-39 -33.5t-23.5 -52.5t-8 -68.5q0 -57 15 -100t44 -67t71 -24v0zM230 520v57h270v-57h-270z" />
    <glyph glyph-name="Emacron" unicode="&#x112;" 
d="M59 0v624h382v-62h-316v-205h261v-64h-261v-231h313v-62h-379zM132 731v56h254v-56h-254z" />
    <glyph glyph-name="emacron" unicode="&#x113;" 
d="M272 -10q-50 0 -91 15.5t-70.5 45.5t-45.5 74.5t-16 101.5q0 58 16.5 103t45 75.5t67 46.5t81.5 16q39 0 73 -13t59 -39.5t39.5 -67.5t14.5 -97q0 -8 -0.5 -16.5t-1.5 -16.5h-325q2 -44 15 -76.5t34 -53t48.5 -30.5t58.5 -10q24 0 45 5.5t39.5 17t33.5 28.5l40 -39
q-19 -23 -43.5 -39t-53.5 -23.5t-63 -7.5zM121 274h251q0 32 -8.5 57.5t-24 44t-37 28t-48.5 9.5q-24 0 -45.5 -8t-39.5 -25.5t-30.5 -43.5t-17.5 -62zM133 565v56h254v-56h-254z" />
    <glyph glyph-name="Ebreve" unicode="&#x114;" 
d="M59 0v624h382v-62h-316v-205h261v-64h-261v-231h313v-62h-379zM349 787l52 -24q-22 -44 -58.5 -68t-83.5 -24q-46 0 -82.5 24t-59.5 68l52 24q17 -35 38.5 -51.5t51.5 -16.5q20 0 36.5 7t29.5 22.5t24 38.5z" />
    <glyph glyph-name="ebreve" unicode="&#x115;" 
d="M272 -10q-50 0 -91 15.5t-70.5 45.5t-45.5 74.5t-16 101.5q0 58 16.5 103t45 75.5t67 46.5t81.5 16q39 0 73 -13t59 -39.5t39.5 -67.5t14.5 -97q0 -8 -0.5 -16.5t-1.5 -16.5h-325q2 -44 15 -76.5t34 -53t48.5 -30.5t58.5 -10q24 0 45 5.5t39.5 17t33.5 28.5l40 -39
q-19 -23 -43.5 -39t-53.5 -23.5t-63 -7.5zM121 274h251q0 32 -8.5 57.5t-24 44t-37 28t-48.5 9.5q-24 0 -45.5 -8t-39.5 -25.5t-30.5 -43.5t-17.5 -62zM350 654l52 -24q-22 -44 -58.5 -68t-83.5 -24q-46 0 -82.5 24t-59.5 68l52 24q17 -35 38.5 -51.5t51.5 -16.5
q20 0 36.5 7t29.5 22.5t24 38.5z" />
    <glyph glyph-name="Edotaccent" unicode="&#x116;" 
d="M59 0v624h382v-62h-316v-205h261v-64h-261v-231h313v-62h-379zM257 693q-21 0 -36 15t-15 36q0 22 14.5 37t36.5 15q21 0 36.5 -15.5t15.5 -36.5t-15.5 -36t-36.5 -15z" />
    <glyph glyph-name="edotaccent" unicode="&#x117;" 
d="M272 -10q-50 0 -91 15.5t-70.5 45.5t-45.5 74.5t-16 101.5q0 58 16.5 103t45 75.5t67 46.5t81.5 16q39 0 73 -13t59 -39.5t39.5 -67.5t14.5 -97q0 -8 -0.5 -16.5t-1.5 -16.5h-325q2 -44 15 -76.5t34 -53t48.5 -30.5t58.5 -10q24 0 45 5.5t39.5 17t33.5 28.5l40 -39
q-19 -23 -43.5 -39t-53.5 -23.5t-63 -7.5zM121 274h251q0 32 -8.5 57.5t-24 44t-37 28t-48.5 9.5q-24 0 -45.5 -8t-39.5 -25.5t-30.5 -43.5t-17.5 -62zM259 553q-21 0 -36 15t-15 36q0 22 14.5 37t36.5 15q21 0 36.5 -15.5t15.5 -36.5t-15.5 -36t-36.5 -15z" />
    <glyph glyph-name="Eogonek" unicode="&#x118;" 
d="M59 0v624h382v-62h-316v-205h261v-64h-261v-231h313v-62h-379zM379 -179l-16 -48q-33 5 -58 16.5t-39.5 30t-14.5 43.5q0 27 14 53.5t41 52t66 48.5l27 -17q-25 -20 -43.5 -41.5t-28.5 -42.5t-10 -39q0 -21 15 -36t47 -20z" />
    <glyph glyph-name="eogonek" unicode="&#x119;" 
d="M272 -10q-50 0 -91 15.5t-70.5 45.5t-45.5 74.5t-16 101.5q0 58 16.5 103t45 75.5t67 46.5t81.5 16q39 0 73 -13t59 -39.5t39.5 -67.5t14.5 -97q0 -8 -0.5 -16.5t-1.5 -16.5h-325q2 -44 15 -76.5t34 -53t48.5 -30.5t58.5 -10q24 0 45 5.5t39.5 17t33.5 28.5l40 -39
q-19 -23 -43.5 -39t-53.5 -23.5t-63 -7.5zM121 274h251q0 32 -8.5 57.5t-24 44t-37 28t-48.5 9.5q-24 0 -45.5 -8t-39.5 -25.5t-30.5 -43.5t-17.5 -62zM358 -164l-16 -48q-33 5 -58 16.5t-39.5 30t-14.5 43.5q0 27 14 53.5t41 52t66 48.5l27 -17q-25 -20 -43.5 -41.5
t-28.5 -42.5t-10 -39q0 -21 15 -36t47 -20z" />
    <glyph glyph-name="Ecaron" unicode="&#x11a;" 
d="M59 0v624h382v-62h-316v-205h261v-64h-261v-231h313v-62h-379zM380 793l33 -38l-143 -98h-22l-151 99l30 36l130 -70z" />
    <glyph glyph-name="ecaron" unicode="&#x11b;" 
d="M272 -10q-50 0 -91 15.5t-70.5 45.5t-45.5 74.5t-16 101.5q0 58 16.5 103t45 75.5t67 46.5t81.5 16q39 0 73 -13t59 -39.5t39.5 -67.5t14.5 -97q0 -8 -0.5 -16.5t-1.5 -16.5h-325q2 -44 15 -76.5t34 -53t48.5 -30.5t58.5 -10q24 0 45 5.5t39.5 17t33.5 28.5l40 -39
q-19 -23 -43.5 -39t-53.5 -23.5t-63 -7.5zM121 274h251q0 32 -8.5 57.5t-24 44t-37 28t-48.5 9.5q-24 0 -45.5 -8t-39.5 -25.5t-30.5 -43.5t-17.5 -62zM148 688l111 -110l111 110l40 -34l-139 -140h-24l-139 140z" />
    <glyph glyph-name="Gcircumflex" unicode="&#x11c;" 
d="M277 -10q-74 0 -128.5 39t-83.5 110t-29 165q-1 81 14.5 137.5t41.5 93.5t58 58t64.5 29t59.5 8q37 0 72.5 -13.5t65 -36.5t46.5 -55l-49 -39l-8 -7l-4 6q1 8 -2.5 14.5t-14.5 19.5q-15 17 -31 28t-34.5 16t-41.5 5q-27 0 -52 -7.5t-46 -25t-37 -46.5t-24.5 -71t-8.5 -99
q0 -65 12 -114.5t34.5 -83.5t54 -51.5t71.5 -17.5q14 0 29.5 2t31 6.5t30.5 12t27 17.5v148h-113v61h178v-244q-44 -32 -90 -48.5t-93 -16.5v0zM149 655l-33 38l143 98h22l151 -99l-30 -36l-130 70z" />
    <glyph glyph-name="gcircumflex" unicode="&#x11d;" 
d="M247 -172q-48 0 -86.5 7.5t-66 22t-42 36.5t-14.5 52q0 28 12 50t31.5 36.5t42.5 21.5l30 -18q-18 -11 -29 -22t-16 -25.5t-5 -34.5q0 -17 10 -30.5t28.5 -22.5t45 -14t60.5 -5q46 0 74.5 9.5t42.5 26t14 37.5q0 22 -8 36t-33 21t-76 7q-35 0 -64 3t-52 10t-38.5 17.5
t-23.5 25.5t-8 35q0 26 14.5 50t39.5 46l34 -27q-10 -11 -16 -19.5t-8.5 -16t-2.5 -16.5q0 -16 12.5 -26t43.5 -14.5t84 -4.5t86 -8.5t50.5 -24.5t24.5 -37t7 -46q0 -27 -10.5 -51.5t-33.5 -44t-61 -31t-93 -11.5zM226 155q-49 0 -85 21.5t-55.5 58t-19.5 80.5t19.5 80
t55.5 57.5t85 21.5q50 0 85.5 -21.5t55 -57.5t19.5 -80t-19.5 -80.5t-55 -58t-85.5 -21.5zM226 215q29 0 51.5 13.5t35.5 36.5t13 50q0 28 -13 50.5t-35.5 36t-51.5 13.5t-51.5 -13.5t-35.5 -36t-13 -50.5q0 -27 13 -50t35.5 -36.5t51.5 -13.5zM359 383l-28 33
q29 29 60.5 42.5t74.5 10.5l9 -59q-33 3 -62 -2t-54 -25zM115 511l-40 34l139 140h24l139 -140l-40 -34l-111 110z" />
    <glyph glyph-name="Gbreve" unicode="&#x11e;" 
d="M277 -10q-74 0 -128.5 39t-83.5 110t-29 165q-1 81 14.5 137.5t41.5 93.5t58 58t64.5 29t59.5 8q37 0 72.5 -13.5t65 -36.5t46.5 -55l-49 -39l-8 -7l-4 6q1 8 -2.5 14.5t-14.5 19.5q-15 17 -31 28t-34.5 16t-41.5 5q-27 0 -52 -7.5t-46 -25t-37 -46.5t-24.5 -71t-8.5 -99
q0 -65 12 -114.5t34.5 -83.5t54 -51.5t71.5 -17.5q14 0 29.5 2t31 6.5t30.5 12t27 17.5v148h-113v61h178v-244q-44 -32 -90 -48.5t-93 -16.5v0zM364 787l52 -24q-22 -44 -58.5 -68t-83.5 -24q-46 0 -82.5 24t-59.5 68l52 24q17 -35 38.5 -51.5t51.5 -16.5q20 0 36.5 7
t29.5 22.5t24 38.5z" />
    <glyph glyph-name="gbreve" unicode="&#x11f;" 
d="M247 -172q-48 0 -86.5 7.5t-66 22t-42 36.5t-14.5 52q0 28 12 50t31.5 36.5t42.5 21.5l30 -18q-18 -11 -29 -22t-16 -25.5t-5 -34.5q0 -17 10 -30.5t28.5 -22.5t45 -14t60.5 -5q46 0 74.5 9.5t42.5 26t14 37.5q0 22 -8 36t-33 21t-76 7q-35 0 -64 3t-52 10t-38.5 17.5
t-23.5 25.5t-8 35q0 26 14.5 50t39.5 46l34 -27q-10 -11 -16 -19.5t-8.5 -16t-2.5 -16.5q0 -16 12.5 -26t43.5 -14.5t84 -4.5t86 -8.5t50.5 -24.5t24.5 -37t7 -46q0 -27 -10.5 -51.5t-33.5 -44t-61 -31t-93 -11.5zM226 155q-49 0 -85 21.5t-55.5 58t-19.5 80.5t19.5 80
t55.5 57.5t85 21.5q50 0 85.5 -21.5t55 -57.5t19.5 -80t-19.5 -80.5t-55 -58t-85.5 -21.5zM226 215q29 0 51.5 13.5t35.5 36.5t13 50q0 28 -13 50.5t-35.5 36t-51.5 13.5t-51.5 -13.5t-35.5 -36t-13 -50.5q0 -27 13 -50t35.5 -36.5t51.5 -13.5zM359 383l-28 33
q29 29 60.5 42.5t74.5 10.5l9 -59q-33 3 -62 -2t-54 -25zM260 524q-43 0 -80.5 19.5t-69.5 57.5l36 45q19 -30 48.5 -50t64.5 -20q32 0 61.5 17.5t57.5 52.5l28 -42q-18 -24 -41.5 -42t-50 -28t-54.5 -10z" />
    <glyph glyph-name="Gdotaccent" unicode="&#x120;" 
d="M277 -10q-74 0 -128.5 39t-83.5 110t-29 165q-1 81 14.5 137.5t41.5 93.5t58 58t64.5 29t59.5 8q37 0 72.5 -13.5t65 -36.5t46.5 -55l-49 -39l-8 -7l-4 6q1 8 -2.5 14.5t-14.5 19.5q-15 17 -31 28t-34.5 16t-41.5 5q-27 0 -52 -7.5t-46 -25t-37 -46.5t-24.5 -71t-8.5 -99
q0 -65 12 -114.5t34.5 -83.5t54 -51.5t71.5 -17.5q14 0 29.5 2t31 6.5t30.5 12t27 17.5v148h-113v61h178v-244q-44 -32 -90 -48.5t-93 -16.5v0zM272 693q-21 0 -36 15t-15 36q0 22 14.5 37t36.5 15q21 0 36.5 -15.5t15.5 -36.5t-15.5 -36t-36.5 -15z" />
    <glyph glyph-name="gdotaccent" unicode="&#x121;" 
d="M247 -172q-48 0 -86.5 7.5t-66 22t-42 36.5t-14.5 52q0 28 12 50t31.5 36.5t42.5 21.5l30 -18q-18 -11 -29 -22t-16 -25.5t-5 -34.5q0 -17 10 -30.5t28.5 -22.5t45 -14t60.5 -5q46 0 74.5 9.5t42.5 26t14 37.5q0 22 -8 36t-33 21t-76 7q-35 0 -64 3t-52 10t-38.5 17.5
t-23.5 25.5t-8 35q0 26 14.5 50t39.5 46l34 -27q-10 -11 -16 -19.5t-8.5 -16t-2.5 -16.5q0 -16 12.5 -26t43.5 -14.5t84 -4.5t86 -8.5t50.5 -24.5t24.5 -37t7 -46q0 -27 -10.5 -51.5t-33.5 -44t-61 -31t-93 -11.5zM226 155q-49 0 -85 21.5t-55.5 58t-19.5 80.5t19.5 80
t55.5 57.5t85 21.5q50 0 85.5 -21.5t55 -57.5t19.5 -80t-19.5 -80.5t-55 -58t-85.5 -21.5zM226 215q29 0 51.5 13.5t35.5 36.5t13 50q0 28 -13 50.5t-35.5 36t-51.5 13.5t-51.5 -13.5t-35.5 -36t-13 -50.5q0 -27 13 -50t35.5 -36.5t51.5 -13.5zM359 383l-28 33
q29 29 60.5 42.5t74.5 10.5l9 -59q-33 3 -62 -2t-54 -25zM225 553q-21 0 -36 15t-15 36q0 22 14.5 37t36.5 15q21 0 36.5 -15.5t15.5 -36.5t-15.5 -36t-36.5 -15z" />
    <glyph glyph-name="uni0122" unicode="&#x122;" 
d="M277 -10q-74 0 -128.5 39t-83.5 110t-29 165q-1 81 14.5 137.5t41.5 93.5t58 58t64.5 29t59.5 8q37 0 72.5 -13.5t65 -36.5t46.5 -55l-49 -39l-8 -7l-4 6q1 8 -2.5 14.5t-14.5 19.5q-15 17 -31 28t-34.5 16t-41.5 5q-27 0 -52 -7.5t-46 -25t-37 -46.5t-24.5 -71t-8.5 -99
q0 -65 12 -114.5t34.5 -83.5t54 -51.5t71.5 -17.5q14 0 29.5 2t31 6.5t30.5 12t27 17.5v148h-113v61h178v-244q-44 -32 -90 -48.5t-93 -16.5v0zM237 -275l-30 27q24 23 41 50t17 44q0 12 -11.5 22t-23 20.5t-11.5 27.5q0 22 15 37.5t38 15.5q24 0 42.5 -21t18.5 -54
q0 -24 -10.5 -50.5t-32 -56t-53.5 -62.5z" />
    <glyph glyph-name="uni0123" unicode="&#x123;" 
d="M247 -172q-48 0 -86.5 7.5t-66 22t-42 36.5t-14.5 52q0 28 12 50t31.5 36.5t42.5 21.5l30 -18q-18 -11 -29 -22t-16 -25.5t-5 -34.5q0 -17 10 -30.5t28.5 -22.5t45 -14t60.5 -5q46 0 74.5 9.5t42.5 26t14 37.5q0 22 -8 36t-33 21t-76 7q-35 0 -64 3t-52 10t-38.5 17.5
t-23.5 25.5t-8 35q0 26 14.5 50t39.5 46l34 -27q-10 -11 -16 -19.5t-8.5 -16t-2.5 -16.5q0 -16 12.5 -26t43.5 -14.5t84 -4.5t86 -8.5t50.5 -24.5t24.5 -37t7 -46q0 -27 -10.5 -51.5t-33.5 -44t-61 -31t-93 -11.5zM226 155q-49 0 -85 21.5t-55.5 58t-19.5 80.5t19.5 80
t55.5 57.5t85 21.5q50 0 85.5 -21.5t55 -57.5t19.5 -80t-19.5 -80.5t-55 -58t-85.5 -21.5zM226 215q29 0 51.5 13.5t35.5 36.5t13 50q0 28 -13 50.5t-35.5 36t-51.5 13.5t-51.5 -13.5t-35.5 -36t-13 -50.5q0 -27 13 -50t35.5 -36.5t51.5 -13.5zM359 383l-28 33
q29 29 60.5 42.5t74.5 10.5l9 -59q-33 3 -62 -2t-54 -25zM263 811l34 -30q-28 -26 -46.5 -56t-18.5 -49q0 -10 7.5 -18.5t18 -16.5t18 -18t7.5 -24q0 -25 -16.5 -42t-42.5 -17t-47 23t-21 60q0 20 6.5 41.5t20 45t33.5 49t47 52.5z" />
    <glyph glyph-name="Hcircumflex" unicode="&#x124;" 
d="M50 623h72h10v-7q-6 -6 -7.5 -13t-1.5 -24v-222h244v266h72h10v-7q-6 -6 -7.5 -13t-1.5 -24v-579h-74v297h-243v-297h-73v623zM125 655l-33 38l143 98h22l151 -99l-30 -36l-130 70z" />
    <glyph glyph-name="hcircumflex" unicode="&#x125;" 
d="M73 665h69h10v-7q-6 -6 -7.5 -13t-1.5 -24v-245q18 28 42.5 48.5t52 32t55.5 11.5q41 0 72.5 -19t49 -61t17.5 -111v-277h-70v275q0 48 -11 76.5t-30 41t-43 12.5q-18 0 -37 -6t-36.5 -18t-31.5 -29.5t-22 -39.5t-8 -49v-263h-70v665zM-7 697l-33 38l143 98h22l151 -99
l-30 -36l-130 70z" />
    <glyph glyph-name="Hbar" unicode="&#x126;" 
d="M7 498v55h480v-55h-480zM50 623h72h10v-7q-6 -6 -7.5 -13t-1.5 -24v-222h244v266h72h10v-7q-6 -6 -7.5 -13t-1.5 -24v-579h-74v297h-243v-297h-73v623z" />
    <glyph glyph-name="hbar" unicode="&#x127;" 
d="M73 665h69h10v-7q-6 -6 -7.5 -13t-1.5 -24v-245q18 28 42.5 48.5t52 32t55.5 11.5q41 0 72.5 -19t49 -61t17.5 -111v-277h-70v275q0 48 -11 76.5t-30 41t-43 12.5q-18 0 -37 -6t-36.5 -18t-31.5 -29.5t-22 -39.5t-8 -49v-263h-70v665zM0 520v57h270v-57h-270z" />
    <glyph glyph-name="Itilde" unicode="&#x128;" 
d="M81 0v59h123v505h-116v59h309v-59h-123v-506h129v-58h-322zM364 843l46 -28q-22 -42 -42.5 -58.5t-50.5 -16.5q-22 0 -39.5 8t-32 19t-29 19t-31.5 8t-30.5 -10t-25.5 -37l-49 22q14 34 39 57t64 23q22 0 38.5 -8t30.5 -19t28.5 -19t32.5 -8q16 0 26.5 10t24.5 38z" />
    <glyph glyph-name="itilde" unicode="&#x129;" 
d="M100 0v58h117v341h-111v58h183v-399h107v-58h-296zM347 671l46 -22q-19 -42 -39 -58.5t-46 -16.5q-18 0 -33 8t-28 19t-25 19t-24 8q-13 0 -25 -10.5t-20 -31.5l-46 22q11 34 35.5 54.5t49.5 20.5q18 0 34.5 -8t31 -19t27 -19t23.5 -8t20.5 10t18.5 32z" />
    <glyph glyph-name="Imacron" unicode="&#x12a;" 
d="M81 0v59h123v505h-116v59h309v-59h-123v-506h129v-58h-322zM112 731v56h254v-56h-254z" />
    <glyph glyph-name="imacron" unicode="&#x12b;" 
d="M100 0v58h117v341h-111v58h183v-399h107v-58h-296zM123 565v56h254v-56h-254z" />
    <glyph glyph-name="Ibreve" unicode="&#x12c;" 
d="M81 0v59h123v505h-116v59h309v-59h-123v-506h129v-58h-322zM329 787l52 -24q-22 -44 -58.5 -68t-83.5 -24q-46 0 -82.5 24t-59.5 68l52 24q17 -35 38.5 -51.5t51.5 -16.5q20 0 36.5 7t29.5 22.5t24 38.5z" />
    <glyph glyph-name="ibreve" unicode="&#x12d;" 
d="M100 0v58h117v341h-111v58h183v-399h107v-58h-296zM340 654l52 -24q-22 -44 -58.5 -68t-83.5 -24q-46 0 -82.5 24t-59.5 68l52 24q17 -35 38.5 -51.5t51.5 -16.5q20 0 36.5 7t29.5 22.5t24 38.5z" />
    <glyph glyph-name="Iogonek" unicode="&#x12e;" 
d="M81 0v59h123v505h-116v59h309v-59h-123v-506h129v-58h-322zM383 -179l-16 -48q-33 5 -58 16.5t-39.5 30t-14.5 43.5q0 27 14 53.5t41 52t66 48.5l27 -17q-25 -20 -43.5 -41.5t-28.5 -42.5t-10 -39q0 -21 15 -36t47 -20z" />
    <glyph glyph-name="iogonek" unicode="&#x12f;" 
d="M100 0v58h117v341h-111v58h183v-399h107v-58h-296zM249 553q-21 0 -36 15t-15 36q0 22 14.5 37t36.5 15q21 0 36.5 -15.5t15.5 -36.5t-15.5 -36t-36.5 -15zM376 -179l-16 -48q-33 5 -58 16.5t-39.5 30t-14.5 43.5q0 27 14 53.5t41 52t66 48.5l27 -17q-25 -20 -43.5 -41.5
t-28.5 -42.5t-10 -39q0 -21 15 -36t47 -20z" />
    <glyph glyph-name="Idotaccent" unicode="&#x130;" 
d="M81 0v59h123v505h-116v59h309v-59h-123v-506h129v-58h-322zM237 693q-21 0 -36 15t-15 36q0 22 14.5 37t36.5 15q21 0 36.5 -15.5t15.5 -36.5t-15.5 -36t-36.5 -15z" />
    <glyph glyph-name="dotlessi" unicode="&#x131;" 
d="M100 0v58h117v341h-111v58h183v-399h107v-58h-296z" />
    <glyph glyph-name="Jcircumflex" unicode="&#x134;" 
d="M196 -11q-44 0 -81 17.5t-66 51.5l40 50l7 8l5 -4q1 -9 4.5 -16t16.5 -18q17 -13 34.5 -20t39.5 -7q34 0 55 15t31 49.5t10 92.5v356h-120v59h285v-59h-96v-355q2 -60 -11 -102t-37 -68.5t-54 -38t-63 -11.5v0zM205 655l-33 38l143 98h22l151 -99l-30 -36l-130 70z" />
    <glyph glyph-name="jcircumflex" unicode="&#x135;" 
d="M194 -174q-43 0 -81.5 16t-64.5 48l40 54l6 8l6 -4q2 -8 5 -15.5t14 -19.5q14 -11 32.5 -18t41.5 -7q30 0 53.5 13.5t36.5 42t13 74.5v380h-170v59h243v-435q0 -69 -24 -112.5t-63.5 -63.5t-87.5 -20v0zM217 511l-40 34l139 140h24l139 -140l-40 -34l-111 110z" />
    <glyph glyph-name="uni0136" unicode="&#x136;" 
d="M166 312l-49 -54v-258h-75v623h74h10v-7q-6 -6 -7.5 -13t-1.5 -24v-243l260 292l12 -2t12.5 -1.5t13.5 -1t14 -0.5h26l-236 -269l252 -354l-90 -4zM207 -275l-30 27q24 23 41 50t17 44q0 12 -11.5 22t-23 20.5t-11.5 27.5q0 22 15 37.5t38 15.5q24 0 42.5 -21t18.5 -54
q0 -24 -10.5 -50.5t-32 -56t-53.5 -62.5z" />
    <glyph glyph-name="uni0137" unicode="&#x137;" 
d="M199 229l-60 -56v-173h-73v665h72h10v-7q-6 -6 -7.5 -13t-1.5 -24v-374l229 212l12 -2t12.5 -1.5t14 -1t14.5 -0.5h26l-192 -181l224 -273l-93 -4zM221 -275l-30 27q24 23 41 50t17 44q0 12 -11.5 22t-23 20.5t-11.5 27.5q0 22 15 37.5t38 15.5q24 0 42.5 -21t18.5 -54
q0 -24 -10.5 -50.5t-32 -56t-53.5 -62.5z" />
    <glyph glyph-name="kgreenlandic" unicode="&#x138;" 
d="M199 229l-60 -56v-173h-73v457h72h10v-7q-6 -6 -7.5 -13t-1.5 -24v-166l229 212l12 -2t12.5 -1.5t14 -1t14.5 -0.5h26l-192 -181l224 -273l-93 -4z" />
    <glyph glyph-name="Lacute" unicode="&#x139;" 
d="M66 623h72h10v-7q-6 -6 -7.5 -13t-1.5 -24v-519h300v-60h-373v623zM127 660l-23 42l152 89l40 -70z" />
    <glyph glyph-name="lacute" unicode="&#x13a;" 
d="M79 0v58h135v549h-129v58h202v-607h134v-58h-342zM177 702l-23 42l152 89l40 -70z" />
    <glyph glyph-name="uni013B" unicode="&#x13b;" 
d="M66 623h72h10v-7q-6 -6 -7.5 -13t-1.5 -24v-519h300v-60h-373v623zM221 -275l-30 27q24 23 41 50t17 44q0 12 -11.5 22t-23 20.5t-11.5 27.5q0 22 15 37.5t38 15.5q24 0 42.5 -21t18.5 -54q0 -24 -10.5 -50.5t-32 -56t-53.5 -62.5z" />
    <glyph glyph-name="uni013C" unicode="&#x13c;" 
d="M79 0v58h135v549h-129v58h202v-607h134v-58h-342zM221 -275l-30 27q24 23 41 50t17 44q0 12 -11.5 22t-23 20.5t-11.5 27.5q0 22 15 37.5t38 15.5q24 0 42.5 -21t18.5 -54q0 -24 -10.5 -50.5t-32 -56t-53.5 -62.5z" />
    <glyph glyph-name="Lcaron" unicode="&#x13d;" 
d="M339 411l-28 24q23 21 37.5 45.5t14.5 38.5q0 11 -10 20t-20.5 19t-10.5 23q0 20 13.5 33.5t34.5 13.5t37.5 -18.5t16.5 -47.5q0 -22 -9.5 -46t-28 -50t-47.5 -55zM66 623h72h10v-7q-6 -6 -7.5 -13t-1.5 -24v-519h300v-60h-373v623z" />
    <glyph glyph-name="lcaron" unicode="&#x13e;" 
d="M79 0v58h135v549h-129v58h202v-607h134v-58h-342zM372 454l-28 24q16 14 27.5 30t18 30.5t6.5 24.5q0 8 -6 14.5t-14.5 13t-14.5 14.5t-6 19q0 20 13.5 33.5t34.5 13.5t37.5 -18.5t16.5 -47.5q0 -21 -9.5 -45.5t-28 -50.5t-47.5 -55z" />
    <glyph glyph-name="Ldot" unicode="&#x13f;" 
d="M66 623h72h10v-7q-6 -6 -7.5 -13t-1.5 -24v-519h300v-60h-373v623zM298 274q-25 0 -42 16.5t-17 40.5t18 40.5t41 16.5t41.5 -16.5t18.5 -40.5q0 -23 -17.5 -40t-42.5 -17z" />
    <glyph glyph-name="ldot" unicode="&#x140;" 
d="M69 0v58h115v549h-109v58h182v-607h154v-58h-342zM388 274q-25 0 -42 16.5t-17 40.5t18 40.5t41 16.5t41.5 -16.5t18.5 -40.5q0 -23 -17.5 -40t-42.5 -17z" />
    <glyph glyph-name="Lslash" unicode="&#x141;" 
d="M73 0v243l-53 -17v61l53 18v318h81q1 0 1.5 -0.5t0.5 -1.5q0 -4 -4 -8.5t-6 -23.5v-261l166 54q8 3 14.5 5.5t10.5 4.5v-64l-191 -61v-207h300v-60h-373z" />
    <glyph glyph-name="lslash" unicode="&#x142;" 
d="M79 0v58h135v221l-79 -27v66l79 27v262h-129v58h202v-295l91 33v-69l-91 -31v-245h134v-58h-342z" />
    <glyph glyph-name="Nacute" unicode="&#x143;" 
d="M50 623h68l262 -462v462h66h10v-7q-6 -6 -7.5 -13t-1.5 -24v-579h-55l-275 490v-490h-67v623zM177 660l-23 42l152 89l40 -70z" />
    <glyph glyph-name="nacute" unicode="&#x144;" 
d="M72 0v457h70v-81q18 28 42 48.5t53 32t60 11.5q38 0 68 -19t48 -61t18 -111v-277h-70v275q0 48 -11 76.5t-30 41t-43 12.5q-23 0 -46.5 -10t-43.5 -28.5t-32.5 -44.5t-12.5 -59v-263h-70zM258 507l-38 26l84 149l55 -40z" />
    <glyph glyph-name="uni0145" unicode="&#x145;" 
d="M50 623h68l262 -462v462h66h10v-7q-6 -6 -7.5 -13t-1.5 -24v-579h-55l-275 490v-490h-67v623zM221 -275l-30 27q24 23 41 50t17 44q0 12 -11.5 22t-23 20.5t-11.5 27.5q0 22 15 37.5t38 15.5q24 0 42.5 -21t18.5 -54q0 -24 -10.5 -50.5t-32 -56t-53.5 -62.5z" />
    <glyph glyph-name="uni0146" unicode="&#x146;" 
d="M72 0v457h70v-81q18 28 42 48.5t53 32t60 11.5q38 0 68 -19t48 -61t18 -111v-277h-70v275q0 48 -11 76.5t-30 41t-43 12.5q-23 0 -46.5 -10t-43.5 -28.5t-32.5 -44.5t-12.5 -59v-263h-70zM231 -275l-30 27q24 23 41 50t17 44q0 12 -11.5 22t-23 20.5t-11.5 27.5
q0 22 15 37.5t38 15.5q24 0 42.5 -21t18.5 -54q0 -24 -10.5 -50.5t-32 -56t-53.5 -62.5z" />
    <glyph glyph-name="Ncaron" unicode="&#x147;" 
d="M50 623h68l262 -462v462h66h10v-7q-6 -6 -7.5 -13t-1.5 -24v-579h-55l-275 490v-490h-67v623zM371 793l33 -38l-143 -98h-22l-151 99l30 36l130 -70z" />
    <glyph glyph-name="ncaron" unicode="&#x148;" 
d="M72 0v457h70v-81q18 28 42 48.5t53 32t60 11.5q38 0 68 -19t48 -61t18 -111v-277h-70v275q0 48 -11 76.5t-30 41t-43 12.5q-23 0 -46.5 -10t-43.5 -28.5t-32.5 -44.5t-12.5 -59v-263h-70zM153 688l111 -110l111 110l40 -34l-139 -140h-24l-139 140z" />
    <glyph glyph-name="Eng" unicode="&#x14a;" 
d="M380 623h74q0 -6 -3.5 -11t-3.5 -16v-596q0 -62 -18.5 -103t-52.5 -61.5t-81 -20.5q-23 0 -45 6t-42 19l35 62q7 -2 10.5 -6t7.5 -8t12.5 -7t24.5 -3q31 0 48.5 15.5t25 47.5t8.5 81l-263 468v-490h-67v623h68l262 -462v462z" />
    <glyph glyph-name="eng" unicode="&#x14b;" 
d="M262 -176q-26 0 -50.5 8.5t-46.5 25.5l34 67q3 -1 5.5 -6t8.5 -11.5t18 -11.5t33 -5q33 0 54.5 17t32 51.5t10.5 85.5v230q0 36 -6.5 61t-18 40t-26.5 22t-33 7q-19 0 -38 -6.5t-36.5 -18.5t-31 -29.5t-21.5 -39.5t-8 -48v-263h-74v457h74v-81q13 21 30 38t36.5 29
t40.5 18.5t42 6.5q30 0 56 -10.5t45 -33t29.5 -59t10.5 -88.5v-221q0 -61 -13 -105t-36 -72t-54 -41.5t-67 -13.5z" />
    <glyph glyph-name="Omacron" unicode="&#x14c;" 
d="M250 -11q-71 0 -121 37t-76 108.5t-26 173.5q0 99 26 170.5t76 110t121 38.5q72 0 121.5 -38.5t75.5 -110t26 -170.5q0 -102 -26 -173.5t-75.5 -108.5t-121.5 -37zM250 50q48 0 81.5 30t51.5 87.5t18 140.5q0 79 -18 136.5t-51.5 89.5t-81.5 32q-47 0 -81 -32t-52 -89.5
t-18 -136.5q0 -83 18 -140.5t52 -87.5t81 -30zM123 731v56h254v-56h-254z" />
    <glyph glyph-name="omacron" unicode="&#x14d;" 
d="M250 -8q-62 0 -109.5 30.5t-74.5 84t-27 122.5q0 70 27 123.5t74.5 84t109.5 30.5t109.5 -30.5t74.5 -84t27 -123.5q0 -69 -27 -122.5t-74.5 -84t-109.5 -30.5zM250 52q40 0 70 23t47.5 63t17.5 92t-17.5 92t-47.5 62.5t-70 22.5q-39 0 -69.5 -22.5t-48 -62.5t-17.5 -92
t17.5 -92t48 -63t69.5 -23zM123 565v56h254v-56h-254z" />
    <glyph glyph-name="Obreve" unicode="&#x14e;" 
d="M250 -11q-71 0 -121 37t-76 108.5t-26 173.5q0 99 26 170.5t76 110t121 38.5q72 0 121.5 -38.5t75.5 -110t26 -170.5q0 -102 -26 -173.5t-75.5 -108.5t-121.5 -37zM250 50q48 0 81.5 30t51.5 87.5t18 140.5q0 79 -18 136.5t-51.5 89.5t-81.5 32q-47 0 -81 -32t-52 -89.5
t-18 -136.5q0 -83 18 -140.5t52 -87.5t81 -30zM340 787l52 -24q-22 -44 -58.5 -68t-83.5 -24q-46 0 -82.5 24t-59.5 68l52 24q17 -35 38.5 -51.5t51.5 -16.5q20 0 36.5 7t29.5 22.5t24 38.5z" />
    <glyph glyph-name="obreve" unicode="&#x14f;" 
d="M250 -8q-62 0 -109.5 30.5t-74.5 84t-27 122.5q0 70 27 123.5t74.5 84t109.5 30.5t109.5 -30.5t74.5 -84t27 -123.5q0 -69 -27 -122.5t-74.5 -84t-109.5 -30.5zM250 52q40 0 70 23t47.5 63t17.5 92t-17.5 92t-47.5 62.5t-70 22.5q-39 0 -69.5 -22.5t-48 -62.5t-17.5 -92
t17.5 -92t48 -63t69.5 -23zM340 654l52 -24q-22 -44 -58.5 -68t-83.5 -24q-46 0 -82.5 24t-59.5 68l52 24q17 -35 38.5 -51.5t51.5 -16.5q20 0 36.5 7t29.5 22.5t24 38.5z" />
    <glyph glyph-name="Ohungarumlaut" unicode="&#x150;" 
d="M250 -11q-71 0 -121 37t-76 108.5t-26 173.5q0 99 26 170.5t76 110t121 38.5q72 0 121.5 -38.5t75.5 -110t26 -170.5q0 -102 -26 -173.5t-75.5 -108.5t-121.5 -37zM250 50q48 0 81.5 30t51.5 87.5t18 140.5q0 79 -18 136.5t-51.5 89.5t-81.5 32q-47 0 -81 -32t-52 -89.5
t-18 -136.5q0 -83 18 -140.5t52 -87.5t81 -30zM282 645l-32 41l131 124l46 -64zM104 645l-32 41l131 124l47 -64z" />
    <glyph glyph-name="ohungarumlaut" unicode="&#x151;" 
d="M250 -8q-62 0 -109.5 30.5t-74.5 84t-27 122.5q0 70 27 123.5t74.5 84t109.5 30.5t109.5 -30.5t74.5 -84t27 -123.5q0 -69 -27 -122.5t-74.5 -84t-109.5 -30.5zM250 52q40 0 70 23t47.5 63t17.5 92t-17.5 92t-47.5 62.5t-70 22.5q-39 0 -69.5 -22.5t-48 -62.5t-17.5 -92
t17.5 -92t48 -63t69.5 -23zM342 522l-50 30l88 147l63 -42zM187 522l-50 30l88 147l63 -42z" />
    <glyph glyph-name="OE" unicode="&#x152;" 
d="M172 -7q-37 0 -67.5 19t-51.5 58.5t-32.5 99.5t-11.5 142q0 106 19.5 177t56 107t88.5 36q21 0 41.5 -8.5t38.5 -28.5v29h231v-62h-169v-205h143v-64h-143v-231h167v-62h-230v31q-17 -20 -37 -29t-43 -9zM179 54q26 0 46 21t27 54v356q-12 34 -31 61.5t-50 27.5
q-19 0 -37 -12.5t-31.5 -42t-21.5 -80t-8 -126.5q0 -82 12.5 -140t36 -88.5t57.5 -30.5z" />
    <glyph glyph-name="oe" unicode="&#x153;" 
d="M372 -12q-34 0 -64 10.5t-55 30.5q-22 -20 -46.5 -30t-52.5 -10q-25 0 -51 10.5t-48 37t-35.5 73t-13.5 118.5q0 88 22 140t57.5 75t75.5 23q30 0 53.5 -11.5t40.5 -34.5q20 23 45 34.5t56 11.5q42 0 72 -20.5t46 -61t16 -101.5v-62h-228q2 -71 13.5 -109t33.5 -51.5
t54 -13.5q31 0 55 9.5t41 28.5l35 -43q-26 -27 -56.5 -40.5t-65.5 -13.5zM163 50q10 0 19 2.5t16 8t11 12.5t4 16q0 2 -0.5 7.5t-2.5 15.5q-4 24 -6 46t-3 42t-1 38q0 39 2 64.5t4.5 40.5t2.5 19q0 9 -3.5 17t-10 14t-15.5 9.5t-19 3.5q-23 0 -45 -16.5t-36 -53t-14 -97.5
q0 -64 12 -106t33.5 -62.5t51.5 -20.5zM263 278h168q0 48 -8 77t-26 42.5t-47 13.5q-26 0 -45.5 -15.5t-30.5 -45t-11 -72.5z" />
    <glyph glyph-name="Racute" unicode="&#x154;" 
d="M56 0v623h184q74 0 119.5 -22t66.5 -62t21 -94q0 -35 -15.5 -70t-44 -61t-67.5 -36l144 -278h-78l-138 275h-121v-275h-71zM127 337h121q67 0 97 29.5t30 78.5q0 31 -13 56.5t-41 40.5t-73 15h-121v-220zM177 660l-23 42l152 89l40 -70z" />
    <glyph glyph-name="racute" unicode="&#x155;" 
d="M119 457h75l-3 -133l-9 15q6 31 21 55t36 40.5t46 25t52 8.5q36 0 66.5 -12.5t54.5 -37.5l-32 -56l-4 -9l-7 4q-2 8 -6 15t-17 17q-16 10 -29.5 13.5t-30.5 3.5q-25 0 -50 -9.5t-45.5 -29.5t-32.5 -51t-12 -74v-243h-73v458zM283 507l-38 26l84 149l55 -40z" />
    <glyph glyph-name="uni0156" unicode="&#x156;" 
d="M56 0v623h184q74 0 119.5 -22t66.5 -62t21 -94q0 -35 -15.5 -70t-44 -61t-67.5 -36l144 -278h-78l-138 275h-121v-275h-71zM127 337h121q67 0 97 29.5t30 78.5q0 31 -13 56.5t-41 40.5t-73 15h-121v-220zM221 -275l-30 27q24 23 41 50t17 44q0 12 -11.5 22t-23 20.5
t-11.5 27.5q0 22 15 37.5t38 15.5q24 0 42.5 -21t18.5 -54q0 -24 -10.5 -50.5t-32 -56t-53.5 -62.5z" />
    <glyph glyph-name="uni0157" unicode="&#x157;" 
d="M119 457h75l-3 -133l-9 15q6 31 21 55t36 40.5t46 25t52 8.5q36 0 66.5 -12.5t54.5 -37.5l-32 -56l-4 -9l-7 4q-2 8 -6 15t-17 17q-16 10 -29.5 13.5t-30.5 3.5q-25 0 -50 -9.5t-45.5 -29.5t-32.5 -51t-12 -74v-243h-73v458zM241 -275l-30 27q24 23 41 50t17 44
q0 12 -11.5 22t-23 20.5t-11.5 27.5q0 22 15 37.5t38 15.5q24 0 42.5 -21t18.5 -54q0 -24 -10.5 -50.5t-32 -56t-53.5 -62.5z" />
    <glyph glyph-name="Rcaron" unicode="&#x158;" 
d="M56 0v623h184q74 0 119.5 -22t66.5 -62t21 -94q0 -35 -15.5 -70t-44 -61t-67.5 -36l144 -278h-78l-138 275h-121v-275h-71zM127 337h121q67 0 97 29.5t30 78.5q0 31 -13 56.5t-41 40.5t-73 15h-121v-220zM371 793l33 -38l-143 -98h-22l-151 99l30 36l130 -70z" />
    <glyph glyph-name="rcaron" unicode="&#x159;" 
d="M119 457h75l-3 -133l-9 15q6 31 21 55t36 40.5t46 25t52 8.5q36 0 66.5 -12.5t54.5 -37.5l-32 -56l-4 -9l-7 4q-2 8 -6 15t-17 17q-16 10 -29.5 13.5t-30.5 3.5q-25 0 -50 -9.5t-45.5 -29.5t-32.5 -51t-12 -74v-243h-73v458zM178 688l111 -110l111 110l40 -34l-139 -140
h-24l-139 140z" />
    <glyph glyph-name="Sacute" unicode="&#x15a;" 
d="M247 -10q-61 0 -109.5 20t-85.5 59l36 63l4 9l7 -4q2 -7 5 -15.5t14 -20.5q26 -22 60.5 -35t78.5 -13q28 0 51.5 8.5t41 23t27 34t9.5 41.5q0 17 -3.5 31t-13 25.5t-25.5 23t-41 24.5t-60 28q-65 25 -102.5 54.5t-53 62.5t-15.5 68q0 46 23 80.5t65.5 54t101.5 19.5
q34 0 65.5 -9.5t59 -26.5t48.5 -42l-39 -52l-6 -8l-6 4q-1 8 -4 16t-14 20q-24 23 -51 31.5t-64 8.5q-25 0 -44.5 -7t-33.5 -20t-21.5 -29.5t-7.5 -34.5q0 -17 4 -31t14 -27t27.5 -26t44 -26t64.5 -28q46 -19 76.5 -37.5t48 -39t25 -44.5t7.5 -53q0 -43 -21.5 -84.5
t-67.5 -68.5t-119 -27v0zM188 660l-23 42l152 89l40 -70z" />
    <glyph glyph-name="sacute" unicode="&#x15b;" 
d="M251 -10q-38 0 -72.5 8t-65 24t-56.5 40l40 68l6 9l6 -4q2 -8 4.5 -16.5t13.5 -20.5q21 -21 50.5 -34.5t75.5 -13.5q37 0 62.5 9t39.5 25.5t14 38.5q0 15 -6 26.5t-19.5 21.5t-35.5 20t-54 20q-52 15 -91 35t-60 46.5t-21 60.5q0 35 19 60.5t56.5 40t92.5 14.5
q32 0 58 -4.5t48 -13.5t40.5 -22.5t35.5 -31.5l-41 -50l-7 -8l-5 5q-1 8 -4.5 15.5t-14.5 18.5q-23 18 -52 27.5t-56 9.5q-40 0 -69 -14t-29 -43q0 -15 10.5 -29.5t38.5 -29t80 -29.5q57 -18 91.5 -36.5t50 -42.5t15.5 -57q0 -38 -20.5 -71t-62.5 -52.5t-106 -19.5v0z
M254 507l-38 26l84 149l55 -40z" />
    <glyph glyph-name="Scircumflex" unicode="&#x15c;" 
d="M247 -10q-61 0 -109.5 20t-85.5 59l36 63l4 9l7 -4q2 -7 5 -15.5t14 -20.5q26 -22 60.5 -35t78.5 -13q28 0 51.5 8.5t41 23t27 34t9.5 41.5q0 17 -3.5 31t-13 25.5t-25.5 23t-41 24.5t-60 28q-65 25 -102.5 54.5t-53 62.5t-15.5 68q0 46 23 80.5t65.5 54t101.5 19.5
q34 0 65.5 -9.5t59 -26.5t48.5 -42l-39 -52l-6 -8l-6 4q-1 8 -4 16t-14 20q-24 23 -51 31.5t-64 8.5q-25 0 -44.5 -7t-33.5 -20t-21.5 -29.5t-7.5 -34.5q0 -17 4 -31t14 -27t27.5 -26t44 -26t64.5 -28q46 -19 76.5 -37.5t48 -39t25 -44.5t7.5 -53q0 -43 -21.5 -84.5
t-67.5 -68.5t-119 -27v0zM136 655l-33 38l143 98h22l151 -99l-30 -36l-130 70z" />
    <glyph glyph-name="scircumflex" unicode="&#x15d;" 
d="M251 -10q-38 0 -72.5 8t-65 24t-56.5 40l40 68l6 9l6 -4q2 -8 4.5 -16.5t13.5 -20.5q21 -21 50.5 -34.5t75.5 -13.5q37 0 62.5 9t39.5 25.5t14 38.5q0 15 -6 26.5t-19.5 21.5t-35.5 20t-54 20q-52 15 -91 35t-60 46.5t-21 60.5q0 35 19 60.5t56.5 40t92.5 14.5
q32 0 58 -4.5t48 -13.5t40.5 -22.5t35.5 -31.5l-41 -50l-7 -8l-5 5q-1 8 -4.5 15.5t-14.5 18.5q-23 18 -52 27.5t-56 9.5q-40 0 -69 -14t-29 -43q0 -15 10.5 -29.5t38.5 -29t80 -29.5q57 -18 91.5 -36.5t50 -42.5t15.5 -57q0 -38 -20.5 -71t-62.5 -52.5t-106 -19.5v0z
M139 511l-40 34l139 140h24l139 -140l-40 -34l-111 110z" />
    <glyph glyph-name="Scedilla" unicode="&#x15e;" 
d="M247 -10q-61 0 -109.5 20t-85.5 59l36 63l4 9l7 -4q2 -7 5 -15.5t14 -20.5q26 -22 60.5 -35t78.5 -13q28 0 51.5 8.5t41 23t27 34t9.5 41.5q0 17 -3.5 31t-13 25.5t-25.5 23t-41 24.5t-60 28q-65 25 -102.5 54.5t-53 62.5t-15.5 68q0 46 23 80.5t65.5 54t101.5 19.5
q34 0 65.5 -9.5t59 -26.5t48.5 -42l-39 -52l-6 -8l-6 4q-1 8 -4 16t-14 20q-24 23 -51 31.5t-64 8.5q-25 0 -44.5 -7t-33.5 -20t-21.5 -29.5t-7.5 -34.5q0 -17 4 -31t14 -27t27.5 -26t44 -26t64.5 -28q46 -19 76.5 -37.5t48 -39t25 -44.5t7.5 -53q0 -43 -21.5 -84.5
t-67.5 -68.5t-119 -27v0zM244 -197q-26 0 -51 7.5t-48 23.5l25 42q19 -15 40.5 -22.5t46.5 -7.5q26 0 38 9.5t12 26.5q0 16 -14 24.5t-37 8.5h-30l11 85h44l-6 -47q30 -2 48.5 -12t27.5 -24t9 -29q0 -34 -28.5 -59.5t-87.5 -25.5z" />
    <glyph glyph-name="scedilla" unicode="&#x15f;" 
d="M251 -10q-38 0 -72.5 8t-65 24t-56.5 40l40 68l6 9l6 -4q2 -8 4.5 -16.5t13.5 -20.5q21 -21 50.5 -34.5t75.5 -13.5q37 0 62.5 9t39.5 25.5t14 38.5q0 15 -6 26.5t-19.5 21.5t-35.5 20t-54 20q-52 15 -91 35t-60 46.5t-21 60.5q0 35 19 60.5t56.5 40t92.5 14.5
q32 0 58 -4.5t48 -13.5t40.5 -22.5t35.5 -31.5l-41 -50l-7 -8l-5 5q-1 8 -4.5 15.5t-14.5 18.5q-23 18 -52 27.5t-56 9.5q-40 0 -69 -14t-29 -43q0 -15 10.5 -29.5t38.5 -29t80 -29.5q57 -18 91.5 -36.5t50 -42.5t15.5 -57q0 -38 -20.5 -71t-62.5 -52.5t-106 -19.5v0z
M268 -197q-26 0 -51 7.5t-48 23.5l25 42q19 -15 40.5 -22.5t46.5 -7.5q26 0 38 9.5t12 26.5q0 16 -14 24.5t-37 8.5h-30l11 85h44l-6 -47q30 -2 48.5 -12t27.5 -24t9 -29q0 -34 -28.5 -59.5t-87.5 -25.5z" />
    <glyph glyph-name="Scaron" unicode="&#x160;" 
d="M247 -10q-61 0 -109.5 20t-85.5 59l36 63l4 9l7 -4q2 -7 5 -15.5t14 -20.5q26 -22 60.5 -35t78.5 -13q28 0 51.5 8.5t41 23t27 34t9.5 41.5q0 17 -3.5 31t-13 25.5t-25.5 23t-41 24.5t-60 28q-65 25 -102.5 54.5t-53 62.5t-15.5 68q0 46 23 80.5t65.5 54t101.5 19.5
q34 0 65.5 -9.5t59 -26.5t48.5 -42l-39 -52l-6 -8l-6 4q-1 8 -4 16t-14 20q-24 23 -51 31.5t-64 8.5q-25 0 -44.5 -7t-33.5 -20t-21.5 -29.5t-7.5 -34.5q0 -17 4 -31t14 -27t27.5 -26t44 -26t64.5 -28q46 -19 76.5 -37.5t48 -39t25 -44.5t7.5 -53q0 -43 -21.5 -84.5
t-67.5 -68.5t-119 -27v0zM382 793l33 -38l-143 -98h-22l-151 99l30 36l130 -70z" />
    <glyph glyph-name="scaron" unicode="&#x161;" 
d="M251 -10q-38 0 -72.5 8t-65 24t-56.5 40l40 68l6 9l6 -4q2 -8 4.5 -16.5t13.5 -20.5q21 -21 50.5 -34.5t75.5 -13.5q37 0 62.5 9t39.5 25.5t14 38.5q0 15 -6 26.5t-19.5 21.5t-35.5 20t-54 20q-52 15 -91 35t-60 46.5t-21 60.5q0 35 19 60.5t56.5 40t92.5 14.5
q32 0 58 -4.5t48 -13.5t40.5 -22.5t35.5 -31.5l-41 -50l-7 -8l-5 5q-1 8 -4.5 15.5t-14.5 18.5q-23 18 -52 27.5t-56 9.5q-40 0 -69 -14t-29 -43q0 -15 10.5 -29.5t38.5 -29t80 -29.5q57 -18 91.5 -36.5t50 -42.5t15.5 -57q0 -38 -20.5 -71t-62.5 -52.5t-106 -19.5v0z
M144 688l111 -110l111 110l40 -34l-139 -140h-24l-139 140z" />
    <glyph glyph-name="uni0162" unicode="&#x162;" 
d="M208 0v561h-177v63h432v-63h-184v-561h-71zM247 -197q-26 0 -51 7.5t-48 23.5l25 42q19 -15 40.5 -22.5t46.5 -7.5q26 0 38 9.5t12 26.5q0 16 -14 24.5t-37 8.5h-30l11 85h44l-6 -47q30 -2 48.5 -12t27.5 -24t9 -29q0 -34 -28.5 -59.5t-87.5 -25.5z" />
    <glyph glyph-name="uni0163" unicode="&#x163;" 
d="M299 -7q-44 0 -72 15t-43 46.5t-19.5 79.5t-2.5 114l12 326l75 9l10 1l1 -7q-5 -7 -8.5 -14t-5.5 -24l-9 -113l3 -18l-7 -165q-3 -76 4 -117.5t25 -57t48 -15.5q33 0 58.5 13t53.5 33l22 -57q-34 -25 -70 -37t-75 -12v0zM70 457h329v-59h-329v59zM247 -197q-26 0 -51 7.5
t-48 23.5l25 42q19 -15 40.5 -22.5t46.5 -7.5q26 0 38 9.5t12 26.5q0 16 -14 24.5t-37 8.5h-30l11 85h44l-6 -47q30 -2 48.5 -12t27.5 -24t9 -29q0 -34 -28.5 -59.5t-87.5 -25.5z" />
    <glyph glyph-name="Tcaron" unicode="&#x164;" 
d="M208 0v561h-177v63h432v-63h-184v-561h-71zM371 793l33 -38l-143 -98h-22l-151 99l30 36l130 -70z" />
    <glyph glyph-name="tcaron" unicode="&#x165;" 
d="M299 -7q-44 0 -72 15t-43 46.5t-19.5 79.5t-2.5 114l12 326l75 9l10 1l1 -7q-5 -7 -8.5 -14t-5.5 -24l-9 -113l3 -18l-7 -165q-3 -76 4 -117.5t25 -57t48 -15.5q33 0 58.5 13t53.5 33l22 -57q-34 -25 -70 -37t-75 -12v0zM70 457h329v-59h-329v59zM382 489l-28 24
q16 14 27.5 30t18 30.5t6.5 24.5q0 8 -6 14.5t-14.5 13t-14.5 14.5t-6 19q0 20 13.5 33.5t34.5 13.5t37.5 -18.5t16.5 -47.5q0 -21 -9.5 -45.5t-28 -50.5t-47.5 -55z" />
    <glyph glyph-name="Tbar" unicode="&#x166;" 
d="M208 0v561h-177v63h432v-63h-184v-561h-71zM88 283v57h324v-57h-324z" />
    <glyph glyph-name="tbar" unicode="&#x167;" 
d="M61 220v57h329v-57h-329zM299 -7q-44 0 -72 15t-43 46.5t-19.5 79.5t-2.5 114l12 326l75 9l10 1l1 -7q-5 -7 -8.5 -14t-5.5 -24l-9 -113l3 -18l-7 -165q-3 -76 4 -117.5t25 -57t48 -15.5q33 0 58.5 13t53.5 33l22 -57q-34 -25 -70 -37t-75 -12v0zM70 457h329v-59h-329v59
z" />
    <glyph glyph-name="Utilde" unicode="&#x168;" 
d="M251 -11q-100 0 -150.5 59.5t-50.5 166.5v408h68h10v-7q-6 -6 -7.5 -13t-1.5 -24v-365q0 -76 29.5 -121t103.5 -45q75 0 105 45t30 124v406h67v-405q0 -79 -25 -129.5t-70.5 -75t-107.5 -24.5v0zM379 791l46 -28q-22 -42 -42.5 -58.5t-50.5 -16.5q-22 0 -39.5 8t-32 19
t-29 19t-31.5 8t-30.5 -10t-25.5 -37l-49 22q14 34 39 57t64 23q22 0 38.5 -8t30.5 -19t28.5 -19t32.5 -8q16 0 26.5 10t24.5 38z" />
    <glyph glyph-name="utilde" unicode="&#x169;" 
d="M221 -11q-27 0 -51 8t-43.5 24.5t-33.5 41.5t-21.5 60t-7.5 79l1 255h70v-255q0 -43 8 -73t22.5 -48t33.5 -26t40 -8q24 0 46 9.5t39.5 28.5t27.5 49t10 71v252h70v-386q0 -18 1.5 -35.5t8.5 -35.5h-69q-5 12 -7 23.5t-2.5 23.5t-0.5 23q-11 -19 -26 -34t-33.5 -25.5
t-39 -16t-43.5 -5.5zM375 677l46 -28q-22 -42 -42.5 -58.5t-50.5 -16.5q-22 0 -39.5 8t-32 19t-29 19t-31.5 8t-30.5 -10t-25.5 -37l-49 22q14 34 39 57t64 23q22 0 38.5 -8t30.5 -19t28.5 -19t32.5 -8q16 0 26.5 10t24.5 38z" />
    <glyph glyph-name="Umacron" unicode="&#x16a;" 
d="M251 -11q-100 0 -150.5 59.5t-50.5 166.5v408h68h10v-7q-6 -6 -7.5 -13t-1.5 -24v-365q0 -76 29.5 -121t103.5 -45q75 0 105 45t30 124v406h67v-405q0 -79 -25 -129.5t-70.5 -75t-107.5 -24.5v0zM123 731v56h254v-56h-254z" />
    <glyph glyph-name="umacron" unicode="&#x16b;" 
d="M221 -11q-27 0 -51 8t-43.5 24.5t-33.5 41.5t-21.5 60t-7.5 79l1 255h70v-255q0 -43 8 -73t22.5 -48t33.5 -26t40 -8q24 0 46 9.5t39.5 28.5t27.5 49t10 71v252h70v-386q0 -18 1.5 -35.5t8.5 -35.5h-69q-5 12 -7 23.5t-2.5 23.5t-0.5 23q-11 -19 -26 -34t-33.5 -25.5
t-39 -16t-43.5 -5.5zM123 565v56h254v-56h-254z" />
    <glyph glyph-name="Ubreve" unicode="&#x16c;" 
d="M251 -11q-100 0 -150.5 59.5t-50.5 166.5v408h68h10v-7q-6 -6 -7.5 -13t-1.5 -24v-365q0 -76 29.5 -121t103.5 -45q75 0 105 45t30 124v406h67v-405q0 -79 -25 -129.5t-70.5 -75t-107.5 -24.5v0zM340 787l52 -24q-22 -44 -58.5 -68t-83.5 -24q-46 0 -82.5 24t-59.5 68
l52 24q17 -35 38.5 -51.5t51.5 -16.5q20 0 36.5 7t29.5 22.5t24 38.5z" />
    <glyph glyph-name="ubreve" unicode="&#x16d;" 
d="M221 -11q-27 0 -51 8t-43.5 24.5t-33.5 41.5t-21.5 60t-7.5 79l1 255h70v-255q0 -43 8 -73t22.5 -48t33.5 -26t40 -8q24 0 46 9.5t39.5 28.5t27.5 49t10 71v252h70v-386q0 -18 1.5 -35.5t8.5 -35.5h-69q-5 12 -7 23.5t-2.5 23.5t-0.5 23q-11 -19 -26 -34t-33.5 -25.5
t-39 -16t-43.5 -5.5zM340 654l52 -24q-22 -44 -58.5 -68t-83.5 -24q-46 0 -82.5 24t-59.5 68l52 24q17 -35 38.5 -51.5t51.5 -16.5q20 0 36.5 7t29.5 22.5t24 38.5z" />
    <glyph glyph-name="Uring" unicode="&#x16e;" 
d="M251 -11q-100 0 -150.5 59.5t-50.5 166.5v408h68h10v-7q-6 -6 -7.5 -13t-1.5 -24v-365q0 -76 29.5 -121t103.5 -45q75 0 105 45t30 124v406h67v-405q0 -79 -25 -129.5t-70.5 -75t-107.5 -24.5v0zM250 619q-25 0 -46 12t-33.5 32t-12.5 44t13 44t34 32t45 12
q25 0 45.5 -12t33 -32t12.5 -45q0 -23 -12 -43t-32.5 -32t-46.5 -12zM251 662q17 0 29 13t12 32q0 20 -12 33t-29 13t-29.5 -13t-12.5 -33q0 -19 12.5 -32t29.5 -13z" />
    <glyph glyph-name="uring" unicode="&#x16f;" 
d="M221 -11q-27 0 -51 8t-43.5 24.5t-33.5 41.5t-21.5 60t-7.5 79l1 255h70v-255q0 -43 8 -73t22.5 -48t33.5 -26t40 -8q24 0 46 9.5t39.5 28.5t27.5 49t10 71v252h70v-386q0 -18 1.5 -35.5t8.5 -35.5h-69q-5 12 -7 23.5t-2.5 23.5t-0.5 23q-11 -19 -26 -34t-33.5 -25.5
t-39 -16t-43.5 -5.5zM249 517q-24 0 -44.5 12t-33.5 32t-13 44t13 44t33.5 32t44.5 12q25 0 46 -12t33.5 -31.5t12.5 -44.5q0 -24 -13 -44t-33.5 -32t-45.5 -12zM250 560q17 0 29.5 13.5t12.5 32.5t-12.5 32.5t-29.5 13.5t-29 -13.5t-12 -32.5t12 -32.5t29 -13.5z" />
    <glyph glyph-name="Uhungarumlaut" unicode="&#x170;" 
d="M251 -11q-100 0 -150.5 59.5t-50.5 166.5v408h68h10v-7q-6 -6 -7.5 -13t-1.5 -24v-365q0 -76 29.5 -121t103.5 -45q75 0 105 45t30 124v406h67v-405q0 -79 -25 -129.5t-70.5 -75t-107.5 -24.5v0zM282 645l-32 41l131 124l46 -64zM104 645l-32 41l131 124l47 -64z" />
    <glyph glyph-name="uhungarumlaut" unicode="&#x171;" 
d="M221 -11q-27 0 -51 8t-43.5 24.5t-33.5 41.5t-21.5 60t-7.5 79l1 255h70v-255q0 -43 8 -73t22.5 -48t33.5 -26t40 -8q24 0 46 9.5t39.5 28.5t27.5 49t10 71v252h70v-386q0 -18 1.5 -35.5t8.5 -35.5h-69q-5 12 -7 23.5t-2.5 23.5t-0.5 23q-11 -19 -26 -34t-33.5 -25.5
t-39 -16t-43.5 -5.5zM342 522l-50 30l88 147l63 -42zM187 522l-50 30l88 147l63 -42z" />
    <glyph glyph-name="Uogonek" unicode="&#x172;" 
d="M251 -11q-100 0 -150.5 59.5t-50.5 166.5v408h68h10v-7q-6 -6 -7.5 -13t-1.5 -24v-365q0 -76 29.5 -121t103.5 -45q75 0 105 45t30 124v406h67v-405q0 -79 -25 -129.5t-70.5 -75t-107.5 -24.5v0zM332 -169l-16 -48q-33 5 -58 16.5t-39.5 30t-14.5 43.5q0 27 14 53.5
t41 52t66 48.5l27 -17q-25 -20 -43.5 -41.5t-28.5 -42.5t-10 -39q0 -21 15 -36t47 -20z" />
    <glyph glyph-name="uogonek" unicode="&#x173;" 
d="M221 -11q-27 0 -51 8t-43.5 24.5t-33.5 41.5t-21.5 60t-7.5 79l1 255h70v-255q0 -43 8 -73t22.5 -48t33.5 -26t40 -8q24 0 46 9.5t39.5 28.5t27.5 49t10 71v252h70v-386q0 -18 1.5 -35.5t8.5 -35.5h-69q-5 12 -7 23.5t-2.5 23.5t-0.5 23q-11 -19 -26 -34t-33.5 -25.5
t-39 -16t-43.5 -5.5zM408 -179l-16 -48q-33 5 -58 16.5t-39.5 30t-14.5 43.5q0 27 14 53.5t41 52t66 48.5l27 -17q-25 -20 -43.5 -41.5t-28.5 -42.5t-10 -39q0 -21 15 -36t47 -20z" />
    <glyph glyph-name="Wcircumflex" unicode="&#x174;" 
d="M117 0l-100 623h65l67 -421l100 375h22l101 -377l57 423h59l-99 -623h-27l-107 407l-109 -407h-29zM135 655l-33 38l143 98h22l151 -99l-30 -36l-130 70z" />
    <glyph glyph-name="wcircumflex" unicode="&#x175;" 
d="M108 -1l-92 458h63l74 -367l78 324h44l97 -323q13 89 21.5 146t13 93.5t6 61.5t1.5 50v15h67q-10 -77 -21.5 -153.5t-25 -152.5t-29.5 -152h-68l-84 296l-80 -296h-65zM139 511l-40 34l139 140h24l139 -140l-40 -34l-111 110z" />
    <glyph glyph-name="Ycircumflex" unicode="&#x176;" 
d="M220 0v246l-192 377h80l153 -302l138 302h74l-177 -377v-246h-76zM125 655l-33 38l143 98h22l151 -99l-30 -36l-130 70z" />
    <glyph glyph-name="ycircumflex" unicode="&#x177;" 
d="M127 -174q-32 0 -58.5 10t-46.5 29l31 49l6 9l6 -4q2 -8 7 -13.5t19 -14.5q9 -3 19 -4.5t21 -1.5q27 0 45.5 13t32.5 40t27 68l87 269q15 46 29 91t19 91h72q-7 -46 -22 -93t-32 -94l-114 -322q-24 -67 -61.5 -94.5t-86.5 -27.5v0zM46 457h75l148 -381l-32 -89zM142 511
l-40 34l139 140h24l139 -140l-40 -34l-111 110z" />
    <glyph glyph-name="Ydieresis" unicode="&#x178;" 
d="M220 0v246l-192 377h80l153 -302l138 302h74l-177 -377v-246h-76zM160 688q-20 0 -35 15t-15 35t15 35.5t35 15.5q21 0 36 -15t15 -36q0 -20 -15 -35t-36 -15zM338 688q-20 0 -34.5 14.5t-14.5 35.5t14.5 36t34.5 15q21 0 36 -15t15 -36q0 -20 -15 -35t-36 -15z" />
    <glyph glyph-name="Zacute" unicode="&#x179;" 
d="M50 49l314 511h-302v63h385v-49l-309 -512h281q17 0 24 2t13 8h7v-10v-62h-413v49zM187 660l-23 42l152 89l40 -70z" />
    <glyph glyph-name="zacute" unicode="&#x17a;" 
d="M50 49l283 345h-262v63h355v-49l-278 -346h258q17 0 24 2t13 8h7v-10v-62h-400v49zM243 507l-38 26l84 149l55 -40z" />
    <glyph glyph-name="Zdotaccent" unicode="&#x17b;" 
d="M50 49l314 511h-302v63h385v-49l-309 -512h281q17 0 24 2t13 8h7v-10v-62h-413v49zM258 693q-21 0 -36 15t-15 36q0 22 14.5 37t36.5 15q21 0 36.5 -15.5t15.5 -36.5t-15.5 -36t-36.5 -15z" />
    <glyph glyph-name="zdotaccent" unicode="&#x17c;" 
d="M50 49l283 345h-262v63h355v-49l-278 -346h258q17 0 24 2t13 8h7v-10v-62h-400v49zM254 553q-21 0 -36 15t-15 36q0 22 14.5 37t36.5 15q21 0 36.5 -15.5t15.5 -36.5t-15.5 -36t-36.5 -15z" />
    <glyph glyph-name="Zcaron" unicode="&#x17d;" 
d="M50 49l314 511h-302v63h385v-49l-309 -512h281q17 0 24 2t13 8h7v-10v-62h-413v49zM381 793l33 -38l-143 -98h-22l-151 99l30 36l130 -70z" />
    <glyph glyph-name="zcaron" unicode="&#x17e;" 
d="M50 49l283 345h-262v63h355v-49l-278 -346h258q17 0 24 2t13 8h7v-10v-62h-400v49zM138 688l111 -110l111 110l40 -34l-139 -140h-24l-139 140z" />
    <glyph glyph-name="uni018F" unicode="&#x18f;" 
d="M250 -11q-71 0 -121 37t-76 108.5t-26 173.5q0 99 26 170.5t76 110t121 38.5q72 0 121.5 -38.5t75.5 -110t26 -170.5q0 -102 -26 -173.5t-75.5 -108.5t-121.5 -37zM250 50q48 0 81.5 30t51.5 87.5t18 140.5q0 79 -18 136.5t-51.5 89.5t-81.5 32q-47 0 -81 -32t-52 -89.5
t-18 -136.5q0 -83 18 -140.5t52 -87.5t81 -30z" />
    <glyph glyph-name="florin" unicode="&#x192;" 
d="M100 -175q-25 0 -45 9t-37 26l41 64q3 -1 5.5 -6t6.5 -11t13 -10.5t25 -4.5q19 0 33.5 15t24 45.5t12.5 74.5l22 299h-121v57h125l7 92q6 69 26 112.5t53 64.5t77 21q34 0 62 -13.5t50 -39.5l-33 -66q-4 0 -6 2.5t-3 7.5q-2 12 -8.5 21.5t-16 16.5t-21 10.5t-23.5 3.5
q-24 0 -42.5 -12t-30 -44.5t-15.5 -94.5l-6 -82h123v-57h-128l-24 -302q-6 -73 -26.5 -117t-51 -63t-68.5 -19z" />
    <glyph glyph-name="uni0198" unicode="&#x198;" 
d="M42 623h74h10v-7q-6 -6 -7.5 -13t-1.5 -24v-253q48 84 91.5 142t82 93t73.5 50.5t67 15.5q9 0 18 -1t17 -3l-1 -72v-10h-7q-6 6 -13 10t-24 5h-1.5h-1.5q-10 0 -26 -5t-39 -21.5t-56 -51t-77 -93t-103 -147.5v-238h-75v623zM145 342l53 42l273 -384l-90 -4z" />
    <glyph glyph-name="Ohorn" unicode="&#x1a0;" 
d="M250 -11q-71 0 -121 37t-76 108.5t-26 173.5q0 99 26 170.5t76 110t121 38.5q72 0 121.5 -38.5t75.5 -110t26 -170.5q0 -102 -26 -173.5t-75.5 -108.5t-121.5 -37zM250 50q48 0 81.5 30t51.5 87.5t18 140.5q0 79 -18 136.5t-51.5 89.5t-81.5 32q-47 0 -81 -32t-52 -89.5
t-18 -136.5q0 -83 18 -140.5t52 -87.5t81 -30zM379 535l-10 49q19 0 27.5 7t11 27.5t2.5 59.5h58q0 -52 -6 -83.5t-24.5 -45.5t-58.5 -14z" />
    <glyph glyph-name="ohorn" unicode="&#x1a1;" 
d="M250 -8q-62 0 -109.5 30.5t-74.5 84t-27 122.5q0 70 27 123.5t74.5 84t109.5 30.5t109.5 -30.5t74.5 -84t27 -123.5q0 -69 -27 -122.5t-74.5 -84t-109.5 -30.5zM250 52q40 0 70 23t47.5 63t17.5 92t-17.5 92t-47.5 62.5t-70 22.5q-39 0 -69.5 -22.5t-48 -62.5t-17.5 -92
t17.5 -92t48 -63t69.5 -23zM453 520q0 -48 -7 -77.5t-27 -42.5t-60 -13v49q16 0 23 16t7 68h64z" />
    <glyph glyph-name="Uhorn" unicode="&#x1af;" 
d="M226 -11q-90 0 -135.5 59.5t-45.5 166.5v408h61h9v-7q-5 -6 -6.5 -13t-1.5 -24v-365q0 -76 26.5 -121t93.5 -45q68 0 94.5 45t26.5 124v406h61v-405q0 -79 -22.5 -129.5t-63.5 -75t-97 -24.5v0zM408 574l-10 49q19 0 27.5 7t11 27.5t2.5 59.5h58q0 -52 -6 -83.5
t-24.5 -45.5t-58.5 -14z" />
    <glyph glyph-name="uhorn" unicode="&#x1b0;" 
d="M189 -11q-26 0 -49 8t-41.5 24.5t-31.5 41.5t-20 60t-7 79l1 255h66v-255q0 -43 8 -73t21.5 -48t31.5 -26t38 -8q23 0 44 9.5t37.5 28.5t26 49t9.5 71v252h66v-386q0 -18 1.5 -35.5t8.5 -35.5h-66q-4 12 -6 23.5t-2.5 23.5t-0.5 23q-10 -19 -24.5 -34t-32 -25.5
t-37.5 -16t-41 -5.5zM475 541q0 -48 -7 -77.5t-27 -42.5t-60 -13v49q16 0 23 16t7 68h64z" />
    <glyph glyph-name="uni01B8" unicode="&#x1b8;" 
d="M268 -11q-65 0 -109 25.5t-66 67t-22 90.5q0 41 14.5 77t41.5 63.5t64 43.5t82 16h65v-52q-44 2 -80 -5t-61.5 -24t-39.5 -45.5t-14 -68.5q0 -38 15.5 -67t45 -45t71.5 -16q29 0 48 8t35 24q11 13 14.5 19.5t2.5 14.5l5 6l7 -7l42 -54q-32 -35 -73 -53t-88 -18v0zM88 560
v63h305v-63h-227l172 -188l-70 -4z" />
    <glyph glyph-name="uni01B9" unicode="&#x1b9;" 
d="M288 -177q-65 0 -109 25.5t-66 67t-22 90.5q0 41 14.5 77t41.5 63.5t64 43.5t82 16h65v-52q-44 2 -80 -5t-61.5 -24t-39.5 -45.5t-14 -68.5q0 -38 15.5 -67t45 -45t71.5 -16q29 0 48 8t35 24q11 13 14.5 19.5t2.5 14.5l5 6l7 -7l42 -54q-32 -35 -73 -53t-88 -18v0z
M108 394v63h305v-63h-227l172 -188l-70 -4z" />
    <glyph glyph-name="uni01C7" unicode="&#x1c7;" 
d="M286 -151q-44 0 -81 17.5t-66 51.5l47 57q6 -4 8 -9t3.5 -10.5t7.5 -12.5q5 -6 16.5 -13.5t27.5 -13t36 -5.5q32 0 53.5 15t32.5 49.5t11 92.5v496h-130v59h199v-59v0v-495q2 -60 -11 -102t-37 -68t-54 -38t-63 -12zM66 0v623h82q0 -7 -2.5 -8.5t-4.5 -5.5t-2 -20v-528
h170v-61h-243z" />
    <glyph glyph-name="uni01C8" unicode="&#x1c8;" 
d="M66 0v623h82q0 -10 -4.5 -17.5t-4.5 -16.5v-528h160v-61h-233zM248 -174q-29 0 -54.5 7t-46.5 21.5t-39 35.5l47 62q5 -5 7 -11t5 -12.5t11.5 -13.5t27.5 -16q8 -3 15.5 -5.5t15.5 -4t16 -1.5q23 0 41.5 7.5t32.5 23t21.5 40.5t7.5 59v380h-140v59h213v-435
q0 -52 -14 -88.5t-38.5 -59.5t-57.5 -34.5t-71 -13.5zM383 552q-21 0 -36 15t-15 36q0 22 14.5 37t36.5 15q21 0 36.5 -15.5t15.5 -36.5t-15.5 -36t-36.5 -15z" />
    <glyph glyph-name="uni01C9" unicode="&#x1c9;" 
d="M248 -174q-44 0 -79 16t-61 48l47 62q5 -5 7 -11t5 -12.5t11.5 -13.5t27.5 -16q11 -5 22.5 -8t24.5 -3q30 0 53.5 13.5t36.5 42t13 74.5v380h-140v59h213v-435q0 -52 -14 -88.5t-38.5 -59.5t-57.5 -34.5t-71 -13.5zM19 0v58h65v549h-59v58h132v-607h124v-58h-262z
M382 553q-21 0 -36 15t-15 36q0 22 14.5 37t36.5 15q21 0 36.5 -15.5t15.5 -36.5t-15.5 -36t-36.5 -15z" />
    <glyph glyph-name="Gcaron" unicode="&#x1e6;" 
d="M277 -10q-74 0 -128.5 39t-83.5 110t-29 165q-1 81 14.5 137.5t41.5 93.5t58 58t64.5 29t59.5 8q37 0 72.5 -13.5t65 -36.5t46.5 -55l-49 -39l-8 -7l-4 6q1 8 -2.5 14.5t-14.5 19.5q-15 17 -31 28t-34.5 16t-41.5 5q-27 0 -52 -7.5t-46 -25t-37 -46.5t-24.5 -71t-8.5 -99
q0 -65 12 -114.5t34.5 -83.5t54 -51.5t71.5 -17.5q14 0 29.5 2t31 6.5t30.5 12t27 17.5v148h-113v61h178v-244q-44 -32 -90 -48.5t-93 -16.5v0zM395 793l33 -38l-143 -98h-22l-151 99l30 36l130 -70z" />
    <glyph glyph-name="gcaron" unicode="&#x1e7;" 
d="M247 -172q-48 0 -86.5 7.5t-66 22t-42 36.5t-14.5 52q0 28 12 50t31.5 36.5t42.5 21.5l30 -18q-18 -11 -29 -22t-16 -25.5t-5 -34.5q0 -17 10 -30.5t28.5 -22.5t45 -14t60.5 -5q46 0 74.5 9.5t42.5 26t14 37.5q0 22 -8 36t-33 21t-76 7q-35 0 -64 3t-52 10t-38.5 17.5
t-23.5 25.5t-8 35q0 26 14.5 50t39.5 46l34 -27q-10 -11 -16 -19.5t-8.5 -16t-2.5 -16.5q0 -16 12.5 -26t43.5 -14.5t84 -4.5t86 -8.5t50.5 -24.5t24.5 -37t7 -46q0 -27 -10.5 -51.5t-33.5 -44t-61 -31t-93 -11.5zM226 155q-49 0 -85 21.5t-55.5 58t-19.5 80.5t19.5 80
t55.5 57.5t85 21.5q50 0 85.5 -21.5t55 -57.5t19.5 -80t-19.5 -80.5t-55 -58t-85.5 -21.5zM226 215q29 0 51.5 13.5t35.5 36.5t13 50q0 28 -13 50.5t-35.5 36t-51.5 13.5t-51.5 -13.5t-35.5 -36t-13 -50.5q0 -27 13 -50t35.5 -36.5t51.5 -13.5zM359 383l-28 33
q29 29 60.5 42.5t74.5 10.5l9 -59q-33 3 -62 -2t-54 -25zM114 688l111 -110l111 110l40 -34l-139 -140h-24l-139 140z" />
    <glyph glyph-name="uni01EA" unicode="&#x1ea;" 
d="M250 -11q-71 0 -121 37t-76 108.5t-26 173.5q0 99 26 170.5t76 110t121 38.5q72 0 121.5 -38.5t75.5 -110t26 -170.5q0 -102 -26 -173.5t-75.5 -108.5t-121.5 -37zM250 50q48 0 81.5 30t51.5 87.5t18 140.5q0 79 -18 136.5t-51.5 89.5t-81.5 32q-47 0 -81 -32t-52 -89.5
t-18 -136.5q0 -83 18 -140.5t52 -87.5t81 -30zM317 -169l-16 -48q-33 5 -58 16.5t-39.5 30t-14.5 43.5q0 27 14 53.5t41 52t66 48.5l27 -17q-25 -20 -43.5 -41.5t-28.5 -42.5t-10 -39q0 -21 15 -36t47 -20z" />
    <glyph glyph-name="uni01EB" unicode="&#x1eb;" 
d="M250 -8q-62 0 -109.5 30.5t-74.5 84t-27 122.5q0 70 27 123.5t74.5 84t109.5 30.5t109.5 -30.5t74.5 -84t27 -123.5q0 -69 -27 -122.5t-74.5 -84t-109.5 -30.5zM250 52q40 0 70 23t47.5 63t17.5 92t-17.5 92t-47.5 62.5t-70 22.5q-39 0 -69.5 -22.5t-48 -62.5t-17.5 -92
t17.5 -92t48 -63t69.5 -23zM316 -169l-16 -48q-33 5 -58 16.5t-39.5 30t-14.5 43.5q0 27 14 53.5t41 52t66 48.5l27 -17q-25 -20 -43.5 -41.5t-28.5 -42.5t-10 -39q0 -21 15 -36t47 -20z" />
    <glyph glyph-name="Aringacute" unicode="&#x1fa;" 
d="M357 182h-226l14 54h196zM249 474l-164 -474h-69l230 634h8l230 -634h-72zM250 619q-25 0 -46 12t-33.5 32t-12.5 44t13 44t34 32t45 12q25 0 45.5 -12t33 -32t12.5 -45q0 -23 -12 -43t-32.5 -32t-46.5 -12zM251 662q17 0 29 13t12 32q0 20 -12 33t-29 13t-29.5 -13
t-12.5 -33q0 -19 12.5 -32t29.5 -13zM177 832l-23 42l152 89l40 -70z" />
    <glyph glyph-name="aringacute" unicode="&#x1fb;" 
d="M211 -11q-78 0 -120 35.5t-42 90.5q0 37 18 66.5t49.5 50t73.5 31.5t89 11q17 0 34.5 -0.5t37 -2t40.5 -4.5l2 -55q-18 3 -36.5 4.5t-36.5 2.5t-35 1q-36 0 -66 -6t-52 -18t-34 -31t-12 -46q0 -21 7.5 -35.5t20.5 -23t30.5 -12.5t38.5 -4q39 0 69.5 12.5t52 36.5t32.5 59
t11 80q0 68 -16 106t-47.5 54t-80.5 16q-33 0 -65 -12.5t-58 -38.5l-35 46q32 32 74 48t89 16q45 0 82 -11t63.5 -36.5t41 -68.5t14.5 -108v-243h-78v70q-13 -25 -31.5 -41t-39.5 -24.5t-43 -12t-42 -3.5zM249 517q-24 0 -44.5 12t-33.5 32t-13 44t13 44t33.5 32t44.5 12
q25 0 46 -12t33.5 -31.5t12.5 -44.5q0 -24 -13 -44t-33.5 -32t-45.5 -12zM250 560q17 0 29.5 13.5t12.5 32.5t-12.5 32.5t-29.5 13.5t-29 -13.5t-12 -32.5t12 -32.5t29 -13.5zM243 743l-38 26l84 149l55 -40z" />
    <glyph glyph-name="AEacute" unicode="&#x1fc;" 
d="M15 0l196 624h284v-62h-171v-205h145v-64h-145v-231h169v-62h-230v169h-130l-54 -169h-64zM147 227h116v335h-11zM196 660l-23 42l152 89l40 -70z" />
    <glyph glyph-name="aeacute" unicode="&#x1fd;" 
d="M142 -11q-47 0 -76 18t-42.5 48.5t-13.5 67.5q0 36 13.5 64.5t39.5 48t66 30.5t92 13q0 44 -8 73t-25.5 44t-45.5 15q-22 0 -41 -10.5t-35 -32.5l-35 44q22 28 50.5 41.5t65.5 13.5q24 0 45.5 -7.5t38.5 -21t27 -33.5q12 20 28.5 33.5t36 21t39.5 7.5q46 0 74 -24
t41 -68.5t13 -106.5v-38l-208 -7v-48q0 -29 7 -52.5t21 -40.5t33 -26t43 -9q16 0 29 4t24 12.5t20 20.5l35 -42q-22 -26 -50.5 -39.5t-63.5 -13.5q-25 0 -48.5 8.5t-43 24t-33.5 36.5q-11 -21 -28.5 -36.5t-39 -24t-45.5 -8.5zM144 50q36 0 52 23t20.5 61.5t4.5 84.5
q-53 -2 -85.5 -11.5t-47 -30t-14.5 -55.5q0 -28 8 -43.5t24 -22t38 -6.5zM282 279l150 5q0 42 -7 70.5t-22.5 42.5t-40.5 14t-43 -15.5t-27.5 -44.5t-9.5 -72zM254 507l-38 26l84 149l55 -40z" />
    <glyph glyph-name="Oslashacute" unicode="&#x1fe;" 
d="M85 -42l-44 20l375 704l42 -22zM250 -11q-71 0 -121 37t-76 108.5t-26 173.5q0 99 26 170.5t76 110t121 38.5q72 0 121.5 -38.5t75.5 -110t26 -170.5q0 -102 -26 -173.5t-75.5 -108.5t-121.5 -37zM250 50q48 0 81.5 30t51.5 87.5t18 140.5q0 79 -18 136.5t-51.5 89.5
t-81.5 32q-47 0 -81 -32t-52 -89.5t-18 -136.5q0 -83 18 -140.5t52 -87.5t81 -30zM177 660l-23 42l152 89l40 -70z" />
    <glyph glyph-name="oslashacute" unicode="&#x1ff;" 
d="M121 -63l-51 27l302 555l54 -28zM250 -8q-62 0 -109.5 30.5t-74.5 84t-27 122.5q0 70 27 123.5t74.5 84t109.5 30.5t109.5 -30.5t74.5 -84t27 -123.5q0 -69 -27 -122.5t-74.5 -84t-109.5 -30.5zM250 52q40 0 70 23t47.5 63t17.5 92t-17.5 92t-47.5 62.5t-70 22.5
q-39 0 -69.5 -22.5t-48 -62.5t-17.5 -92t17.5 -92t48 -63t69.5 -23zM243 507l-38 26l84 149l55 -40z" />
    <glyph glyph-name="uni0200" unicode="&#x200;" 
d="M357 182h-226l14 54h196zM249 474l-164 -474h-69l230 634h8l230 -634h-72zM175 673l-101 135l55 40l84 -149zM335 673l-101 135l55 40l84 -149z" />
    <glyph glyph-name="uni0201" unicode="&#x201;" 
d="M211 -11q-78 0 -120 35.5t-42 90.5q0 37 18 66.5t49.5 50t73.5 31.5t89 11q17 0 34.5 -0.5t37 -2t40.5 -4.5l2 -55q-18 3 -36.5 4.5t-36.5 2.5t-35 1q-36 0 -66 -6t-52 -18t-34 -31t-12 -46q0 -21 7.5 -35.5t20.5 -23t30.5 -12.5t38.5 -4q39 0 69.5 12.5t52 36.5t32.5 59
t11 80q0 68 -16 106t-47.5 54t-80.5 16q-33 0 -65 -12.5t-58 -38.5l-35 46q32 32 74 48t89 16q45 0 82 -11t63.5 -36.5t41 -68.5t14.5 -108v-243h-78v70q-13 -25 -31.5 -41t-39.5 -24.5t-43 -12t-42 -3.5zM175 507l-101 135l55 40l84 -149zM335 507l-101 135l55 40l84 -149z
" />
    <glyph glyph-name="uni0202" unicode="&#x202;" 
d="M357 182h-226l14 54h196zM249 474l-164 -474h-69l230 634h8l230 -634h-72zM159 694l-52 24q23 44 59.5 68t82.5 24q47 0 83.5 -24t58.5 -68l-52 -24q-16 35 -38 51.5t-52 16.5q-20 0 -36 -7t-29.5 -22t-24.5 -39z" />
    <glyph glyph-name="uni0203" unicode="&#x203;" 
d="M211 -11q-78 0 -120 35.5t-42 90.5q0 37 18 66.5t49.5 50t73.5 31.5t89 11q17 0 34.5 -0.5t37 -2t40.5 -4.5l2 -55q-18 3 -36.5 4.5t-36.5 2.5t-35 1q-36 0 -66 -6t-52 -18t-34 -31t-12 -46q0 -21 7.5 -35.5t20.5 -23t30.5 -12.5t38.5 -4q39 0 69.5 12.5t52 36.5t32.5 59
t11 80q0 68 -16 106t-47.5 54t-80.5 16q-33 0 -65 -12.5t-58 -38.5l-35 46q32 32 74 48t89 16q45 0 82 -11t63.5 -36.5t41 -68.5t14.5 -108v-243h-78v70q-13 -25 -31.5 -41t-39.5 -24.5t-43 -12t-42 -3.5zM159 528l-52 24q23 44 59.5 68t82.5 24q47 0 83.5 -24t58.5 -68
l-52 -24q-16 35 -38 51.5t-52 16.5q-20 0 -36 -7t-29.5 -22t-24.5 -39z" />
    <glyph glyph-name="uni0204" unicode="&#x204;" 
d="M59 0v624h382v-62h-316v-205h261v-64h-261v-231h313v-62h-379zM184 673l-101 135l55 40l84 -149zM344 673l-101 135l55 40l84 -149z" />
    <glyph glyph-name="uni0205" unicode="&#x205;" 
d="M272 -10q-50 0 -91 15.5t-70.5 45.5t-45.5 74.5t-16 101.5q0 58 16.5 103t45 75.5t67 46.5t81.5 16q39 0 73 -13t59 -39.5t39.5 -67.5t14.5 -97q0 -8 -0.5 -16.5t-1.5 -16.5h-325q2 -44 15 -76.5t34 -53t48.5 -30.5t58.5 -10q24 0 45 5.5t39.5 17t33.5 28.5l40 -39
q-19 -23 -43.5 -39t-53.5 -23.5t-63 -7.5zM121 274h251q0 32 -8.5 57.5t-24 44t-37 28t-48.5 9.5q-24 0 -45.5 -8t-39.5 -25.5t-30.5 -43.5t-17.5 -62zM185 507l-101 135l55 40l84 -149zM345 507l-101 135l55 40l84 -149z" />
    <glyph glyph-name="uni0206" unicode="&#x206;" 
d="M59 0v624h382v-62h-316v-205h261v-64h-261v-231h313v-62h-379zM168 694l-52 24q23 44 59.5 68t82.5 24q47 0 83.5 -24t58.5 -68l-52 -24q-16 35 -38 51.5t-52 16.5q-20 0 -36 -7t-29.5 -22t-24.5 -39z" />
    <glyph glyph-name="uni0207" unicode="&#x207;" 
d="M272 -10q-50 0 -91 15.5t-70.5 45.5t-45.5 74.5t-16 101.5q0 58 16.5 103t45 75.5t67 46.5t81.5 16q39 0 73 -13t59 -39.5t39.5 -67.5t14.5 -97q0 -8 -0.5 -16.5t-1.5 -16.5h-325q2 -44 15 -76.5t34 -53t48.5 -30.5t58.5 -10q24 0 45 5.5t39.5 17t33.5 28.5l40 -39
q-19 -23 -43.5 -39t-53.5 -23.5t-63 -7.5zM121 274h251q0 32 -8.5 57.5t-24 44t-37 28t-48.5 9.5q-24 0 -45.5 -8t-39.5 -25.5t-30.5 -43.5t-17.5 -62zM169 528l-52 24q23 44 59.5 68t82.5 24q47 0 83.5 -24t58.5 -68l-52 -24q-16 35 -38 51.5t-52 16.5q-20 0 -36 -7
t-29.5 -22t-24.5 -39z" />
    <glyph glyph-name="uni0208" unicode="&#x208;" 
d="M81 0v59h123v505h-116v59h309v-59h-123v-506h129v-58h-322zM164 673l-101 135l55 40l84 -149zM324 673l-101 135l55 40l84 -149z" />
    <glyph glyph-name="uni0209" unicode="&#x209;" 
d="M100 0v58h117v341h-111v58h183v-399h107v-58h-296zM175 507l-101 135l55 40l84 -149zM335 507l-101 135l55 40l84 -149z" />
    <glyph glyph-name="uni020A" unicode="&#x20a;" 
d="M81 0v59h123v505h-116v59h309v-59h-123v-506h129v-58h-322zM148 694l-52 24q23 44 59.5 68t82.5 24q47 0 83.5 -24t58.5 -68l-52 -24q-16 35 -38 51.5t-52 16.5q-20 0 -36 -7t-29.5 -22t-24.5 -39z" />
    <glyph glyph-name="uni020B" unicode="&#x20b;" 
d="M100 0v58h117v341h-111v58h183v-399h107v-58h-296zM159 528l-52 24q23 44 59.5 68t82.5 24q47 0 83.5 -24t58.5 -68l-52 -24q-16 35 -38 51.5t-52 16.5q-20 0 -36 -7t-29.5 -22t-24.5 -39z" />
    <glyph glyph-name="uni020C" unicode="&#x20c;" 
d="M250 -11q-71 0 -121 37t-76 108.5t-26 173.5q0 99 26 170.5t76 110t121 38.5q72 0 121.5 -38.5t75.5 -110t26 -170.5q0 -102 -26 -173.5t-75.5 -108.5t-121.5 -37zM250 50q48 0 81.5 30t51.5 87.5t18 140.5q0 79 -18 136.5t-51.5 89.5t-81.5 32q-47 0 -81 -32t-52 -89.5
t-18 -136.5q0 -83 18 -140.5t52 -87.5t81 -30zM175 673l-101 135l55 40l84 -149zM335 673l-101 135l55 40l84 -149z" />
    <glyph glyph-name="uni020D" unicode="&#x20d;" 
d="M250 -8q-62 0 -109.5 30.5t-74.5 84t-27 122.5q0 70 27 123.5t74.5 84t109.5 30.5t109.5 -30.5t74.5 -84t27 -123.5q0 -69 -27 -122.5t-74.5 -84t-109.5 -30.5zM250 52q40 0 70 23t47.5 63t17.5 92t-17.5 92t-47.5 62.5t-70 22.5q-39 0 -69.5 -22.5t-48 -62.5t-17.5 -92
t17.5 -92t48 -63t69.5 -23zM175 507l-101 135l55 40l84 -149zM335 507l-101 135l55 40l84 -149z" />
    <glyph glyph-name="uni020E" unicode="&#x20e;" 
d="M250 -11q-71 0 -121 37t-76 108.5t-26 173.5q0 99 26 170.5t76 110t121 38.5q72 0 121.5 -38.5t75.5 -110t26 -170.5q0 -102 -26 -173.5t-75.5 -108.5t-121.5 -37zM250 50q48 0 81.5 30t51.5 87.5t18 140.5q0 79 -18 136.5t-51.5 89.5t-81.5 32q-47 0 -81 -32t-52 -89.5
t-18 -136.5q0 -83 18 -140.5t52 -87.5t81 -30zM159 694l-52 24q23 44 59.5 68t82.5 24q47 0 83.5 -24t58.5 -68l-52 -24q-16 35 -38 51.5t-52 16.5q-20 0 -36 -7t-29.5 -22t-24.5 -39z" />
    <glyph glyph-name="uni020F" unicode="&#x20f;" 
d="M250 -8q-62 0 -109.5 30.5t-74.5 84t-27 122.5q0 70 27 123.5t74.5 84t109.5 30.5t109.5 -30.5t74.5 -84t27 -123.5q0 -69 -27 -122.5t-74.5 -84t-109.5 -30.5zM250 52q40 0 70 23t47.5 63t17.5 92t-17.5 92t-47.5 62.5t-70 22.5q-39 0 -69.5 -22.5t-48 -62.5t-17.5 -92
t17.5 -92t48 -63t69.5 -23zM159 528l-52 24q23 44 59.5 68t82.5 24q47 0 83.5 -24t58.5 -68l-52 -24q-16 35 -38 51.5t-52 16.5q-20 0 -36 -7t-29.5 -22t-24.5 -39z" />
    <glyph glyph-name="uni0210" unicode="&#x210;" 
d="M56 0v623h184q74 0 119.5 -22t66.5 -62t21 -94q0 -35 -15.5 -70t-44 -61t-67.5 -36l144 -278h-78l-138 275h-121v-275h-71zM127 337h121q67 0 97 29.5t30 78.5q0 31 -13 56.5t-41 40.5t-73 15h-121v-220zM175 673l-101 135l55 40l84 -149zM335 673l-101 135l55 40
l84 -149z" />
    <glyph glyph-name="uni0211" unicode="&#x211;" 
d="M119 457h75l-3 -133l-9 15q6 31 21 55t36 40.5t46 25t52 8.5q36 0 66.5 -12.5t54.5 -37.5l-32 -56l-4 -9l-7 4q-2 8 -6 15t-17 17q-16 10 -29.5 13.5t-30.5 3.5q-25 0 -50 -9.5t-45.5 -29.5t-32.5 -51t-12 -74v-243h-73v458zM215 507l-101 135l55 40l84 -149zM375 507
l-101 135l55 40l84 -149z" />
    <glyph glyph-name="uni0212" unicode="&#x212;" 
d="M56 0v623h184q74 0 119.5 -22t66.5 -62t21 -94q0 -35 -15.5 -70t-44 -61t-67.5 -36l144 -278h-78l-138 275h-121v-275h-71zM127 337h121q67 0 97 29.5t30 78.5q0 31 -13 56.5t-41 40.5t-73 15h-121v-220zM159 694l-52 24q23 44 59.5 68t82.5 24q47 0 83.5 -24t58.5 -68
l-52 -24q-16 35 -38 51.5t-52 16.5q-20 0 -36 -7t-29.5 -22t-24.5 -39z" />
    <glyph glyph-name="uni0213" unicode="&#x213;" 
d="M119 457h75l-3 -133l-9 15q6 31 21 55t36 40.5t46 25t52 8.5q36 0 66.5 -12.5t54.5 -37.5l-32 -56l-4 -9l-7 4q-2 8 -6 15t-17 17q-16 10 -29.5 13.5t-30.5 3.5q-25 0 -50 -9.5t-45.5 -29.5t-32.5 -51t-12 -74v-243h-73v458zM199 528l-52 24q23 44 59.5 68t82.5 24
q47 0 83.5 -24t58.5 -68l-52 -24q-16 35 -38 51.5t-52 16.5q-20 0 -36 -7t-29.5 -22t-24.5 -39z" />
    <glyph glyph-name="uni0214" unicode="&#x214;" 
d="M251 -11q-100 0 -150.5 59.5t-50.5 166.5v408h68h10v-7q-6 -6 -7.5 -13t-1.5 -24v-365q0 -76 29.5 -121t103.5 -45q75 0 105 45t30 124v406h67v-405q0 -79 -25 -129.5t-70.5 -75t-107.5 -24.5v0zM175 673l-101 135l55 40l84 -149zM335 673l-101 135l55 40l84 -149z" />
    <glyph glyph-name="uni0215" unicode="&#x215;" 
d="M221 -11q-27 0 -51 8t-43.5 24.5t-33.5 41.5t-21.5 60t-7.5 79l1 255h70v-255q0 -43 8 -73t22.5 -48t33.5 -26t40 -8q24 0 46 9.5t39.5 28.5t27.5 49t10 71v252h70v-386q0 -18 1.5 -35.5t8.5 -35.5h-69q-5 12 -7 23.5t-2.5 23.5t-0.5 23q-11 -19 -26 -34t-33.5 -25.5
t-39 -16t-43.5 -5.5zM175 507l-101 135l55 40l84 -149zM335 507l-101 135l55 40l84 -149z" />
    <glyph glyph-name="uni0216" unicode="&#x216;" 
d="M251 -11q-100 0 -150.5 59.5t-50.5 166.5v408h68h10v-7q-6 -6 -7.5 -13t-1.5 -24v-365q0 -76 29.5 -121t103.5 -45q75 0 105 45t30 124v406h67v-405q0 -79 -25 -129.5t-70.5 -75t-107.5 -24.5v0zM159 694l-52 24q23 44 59.5 68t82.5 24q47 0 83.5 -24t58.5 -68l-52 -24
q-16 35 -38 51.5t-52 16.5q-20 0 -36 -7t-29.5 -22t-24.5 -39z" />
    <glyph glyph-name="uni0217" unicode="&#x217;" 
d="M221 -11q-27 0 -51 8t-43.5 24.5t-33.5 41.5t-21.5 60t-7.5 79l1 255h70v-255q0 -43 8 -73t22.5 -48t33.5 -26t40 -8q24 0 46 9.5t39.5 28.5t27.5 49t10 71v252h70v-386q0 -18 1.5 -35.5t8.5 -35.5h-69q-5 12 -7 23.5t-2.5 23.5t-0.5 23q-11 -19 -26 -34t-33.5 -25.5
t-39 -16t-43.5 -5.5zM159 528l-52 24q23 44 59.5 68t82.5 24q47 0 83.5 -24t58.5 -68l-52 -24q-16 35 -38 51.5t-52 16.5q-20 0 -36 -7t-29.5 -22t-24.5 -39z" />
    <glyph glyph-name="uni0218" unicode="&#x218;" 
d="M247 -10q-61 0 -109.5 20t-85.5 59l36 63l4 9l7 -4q2 -7 5 -15.5t14 -20.5q26 -22 60.5 -35t78.5 -13q28 0 51.5 8.5t41 23t27 34t9.5 41.5q0 17 -3.5 31t-13 25.5t-25.5 23t-41 24.5t-60 28q-65 25 -102.5 54.5t-53 62.5t-15.5 68q0 46 23 80.5t65.5 54t101.5 19.5
q34 0 65.5 -9.5t59 -26.5t48.5 -42l-39 -52l-6 -8l-6 4q-1 8 -4 16t-14 20q-24 23 -51 31.5t-64 8.5q-25 0 -44.5 -7t-33.5 -20t-21.5 -29.5t-7.5 -34.5q0 -17 4 -31t14 -27t27.5 -26t44 -26t64.5 -28q46 -19 76.5 -37.5t48 -39t25 -44.5t7.5 -53q0 -43 -21.5 -84.5
t-67.5 -68.5t-119 -27v0zM218 -275l-30 27q24 23 41 50t17 44q0 12 -11.5 22t-23 20.5t-11.5 27.5q0 22 15 37.5t38 15.5q24 0 42.5 -21t18.5 -54q0 -24 -10.5 -50.5t-32 -56t-53.5 -62.5z" />
    <glyph glyph-name="uni0219" unicode="&#x219;" 
d="M251 -10q-38 0 -72.5 8t-65 24t-56.5 40l40 68l6 9l6 -4q2 -8 4.5 -16.5t13.5 -20.5q21 -21 50.5 -34.5t75.5 -13.5q37 0 62.5 9t39.5 25.5t14 38.5q0 15 -6 26.5t-19.5 21.5t-35.5 20t-54 20q-52 15 -91 35t-60 46.5t-21 60.5q0 35 19 60.5t56.5 40t92.5 14.5
q32 0 58 -4.5t48 -13.5t40.5 -22.5t35.5 -31.5l-41 -50l-7 -8l-5 5q-1 8 -4.5 15.5t-14.5 18.5q-23 18 -52 27.5t-56 9.5q-40 0 -69 -14t-29 -43q0 -15 10.5 -29.5t38.5 -29t80 -29.5q57 -18 91.5 -36.5t50 -42.5t15.5 -57q0 -38 -20.5 -71t-62.5 -52.5t-106 -19.5v0z
M207 -275l-30 27q24 23 41 50t17 44q0 12 -11.5 22t-23 20.5t-11.5 27.5q0 22 15 37.5t38 15.5q24 0 42.5 -21t18.5 -54q0 -24 -10.5 -50.5t-32 -56t-53.5 -62.5z" />
    <glyph glyph-name="uni021A" unicode="&#x21a;" 
d="M208 0v561h-177v63h432v-63h-184v-561h-71zM221 -275l-30 27q24 23 41 50t17 44q0 12 -11.5 22t-23 20.5t-11.5 27.5q0 22 15 37.5t38 15.5q24 0 42.5 -21t18.5 -54q0 -24 -10.5 -50.5t-32 -56t-53.5 -62.5z" />
    <glyph glyph-name="uni021B" unicode="&#x21b;" 
d="M299 -7q-44 0 -72 15t-43 46.5t-19.5 79.5t-2.5 114l12 326l75 9l10 1l1 -7q-5 -7 -8.5 -14t-5.5 -24l-9 -113l3 -18l-7 -165q-3 -76 4 -117.5t25 -57t48 -15.5q33 0 58.5 13t53.5 33l22 -57q-34 -25 -70 -37t-75 -12v0zM70 457h329v-59h-329v59zM221 -275l-30 27
q24 23 41 50t17 44q0 12 -11.5 22t-23 20.5t-11.5 27.5q0 22 15 37.5t38 15.5q24 0 42.5 -21t18.5 -54q0 -24 -10.5 -50.5t-32 -56t-53.5 -62.5z" />
    <glyph glyph-name="uni022A" unicode="&#x22a;" 
d="M250 -11q-71 0 -121 37t-76 108.5t-26 173.5q0 99 26 170.5t76 110t121 38.5q72 0 121.5 -38.5t75.5 -110t26 -170.5q0 -102 -26 -173.5t-75.5 -108.5t-121.5 -37zM250 50q48 0 81.5 30t51.5 87.5t18 140.5q0 79 -18 136.5t-51.5 89.5t-81.5 32q-47 0 -81 -32t-52 -89.5
t-18 -136.5q0 -83 18 -140.5t52 -87.5t81 -30zM160 688q-20 0 -35 15t-15 35t15 35.5t35 15.5q21 0 36 -15t15 -36q0 -20 -15 -35t-36 -15zM338 688q-20 0 -34.5 14.5t-14.5 35.5t14.5 36t34.5 15q21 0 36 -15t15 -36q0 -20 -15 -35t-36 -15zM121 873v56h254v-56h-254z" />
    <glyph glyph-name="uni022B" unicode="&#x22b;" 
d="M250 -8q-62 0 -109.5 30.5t-74.5 84t-27 122.5q0 70 27 123.5t74.5 84t109.5 30.5t109.5 -30.5t74.5 -84t27 -123.5q0 -69 -27 -122.5t-74.5 -84t-109.5 -30.5zM250 52q40 0 70 23t47.5 63t17.5 92t-17.5 92t-47.5 62.5t-70 22.5q-39 0 -69.5 -22.5t-48 -62.5t-17.5 -92
t17.5 -92t48 -63t69.5 -23zM162 564q-21 0 -36 15t-15 35t15 35.5t36 15.5q20 0 35 -15t15 -36q0 -20 -15 -35t-35 -15zM340 564q-21 0 -35.5 14.5t-14.5 35.5t14.5 36t35.5 15q20 0 35 -15t15 -36q0 -20 -15 -35t-35 -15zM124 713v56h254v-56h-254z" />
    <glyph glyph-name="uni022C" unicode="&#x22c;" 
d="M250 -11q-71 0 -121 37t-76 108.5t-26 173.5q0 99 26 170.5t76 110t121 38.5q72 0 121.5 -38.5t75.5 -110t26 -170.5q0 -102 -26 -173.5t-75.5 -108.5t-121.5 -37zM250 50q48 0 81.5 30t51.5 87.5t18 140.5q0 79 -18 136.5t-51.5 89.5t-81.5 32q-47 0 -81 -32t-52 -89.5
t-18 -136.5q0 -83 18 -140.5t52 -87.5t81 -30zM347 837l46 -22q-19 -42 -39 -58.5t-46 -16.5q-18 0 -33 8t-28 19t-25 19t-24 8q-13 0 -25 -10.5t-20 -31.5l-46 22q11 34 35.5 54.5t49.5 20.5q18 0 34.5 -8t31 -19t27 -19t23.5 -8t20.5 10t18.5 32zM118 878v56h254v-56h-254
z" />
    <glyph glyph-name="uni022D" unicode="&#x22d;" 
d="M250 -8q-62 0 -109.5 30.5t-74.5 84t-27 122.5q0 70 27 123.5t74.5 84t109.5 30.5t109.5 -30.5t74.5 -84t27 -123.5q0 -69 -27 -122.5t-74.5 -84t-109.5 -30.5zM250 52q40 0 70 23t47.5 63t17.5 92t-17.5 92t-47.5 62.5t-70 22.5q-39 0 -69.5 -22.5t-48 -62.5t-17.5 -92
t17.5 -92t48 -63t69.5 -23zM375 677l46 -28q-22 -42 -42.5 -58.5t-50.5 -16.5q-22 0 -39.5 8t-32 19t-29 19t-31.5 8t-30.5 -10t-25.5 -37l-49 22q14 34 39 57t64 23q22 0 38.5 -8t30.5 -19t28.5 -19t32.5 -8q16 0 26.5 10t24.5 38zM123 744v56h254v-56h-254z" />
    <glyph glyph-name="uni0230" unicode="&#x230;" 
d="M250 -11q-71 0 -121 37t-76 108.5t-26 173.5q0 99 26 170.5t76 110t121 38.5q72 0 121.5 -38.5t75.5 -110t26 -170.5q0 -102 -26 -173.5t-75.5 -108.5t-121.5 -37zM250 50q48 0 81.5 30t51.5 87.5t18 140.5q0 79 -18 136.5t-51.5 89.5t-81.5 32q-47 0 -81 -32t-52 -89.5
t-18 -136.5q0 -83 18 -140.5t52 -87.5t81 -30zM248 693q-21 0 -36 15t-15 36q0 22 14.5 37t36.5 15q21 0 36.5 -15.5t15.5 -36.5t-15.5 -36t-36.5 -15zM121 843v56h254v-56h-254z" />
    <glyph glyph-name="uni0231" unicode="&#x231;" 
d="M250 -8q-62 0 -109.5 30.5t-74.5 84t-27 122.5q0 70 27 123.5t74.5 84t109.5 30.5t109.5 -30.5t74.5 -84t27 -123.5q0 -69 -27 -122.5t-74.5 -84t-109.5 -30.5zM250 52q40 0 70 23t47.5 63t17.5 92t-17.5 92t-47.5 62.5t-70 22.5q-39 0 -69.5 -22.5t-48 -62.5t-17.5 -92
t17.5 -92t48 -63t69.5 -23zM249 553q-21 0 -36 15t-15 36q0 22 14.5 37t36.5 15q21 0 36.5 -15.5t15.5 -36.5t-15.5 -36t-36.5 -15zM123 713v56h254v-56h-254z" />
    <glyph glyph-name="uni0232" unicode="&#x232;" 
d="M220 0v246l-192 377h80l153 -302l138 302h74l-177 -377v-246h-76zM123 731v56h254v-56h-254z" />
    <glyph glyph-name="uni0233" unicode="&#x233;" 
d="M127 -174q-32 0 -58.5 10t-46.5 29l31 49l6 9l6 -4q2 -8 7 -13.5t19 -14.5q9 -3 19 -4.5t21 -1.5q27 0 45.5 13t32.5 40t27 68l87 269q15 46 29 91t19 91h72q-7 -46 -22 -93t-32 -94l-114 -322q-24 -67 -61.5 -94.5t-86.5 -27.5v0zM46 457h75l148 -381l-32 -89zM126 565
v56h254v-56h-254z" />
    <glyph glyph-name="uni0237" unicode="&#x237;" 
d="M194 -174q-43 0 -81.5 16t-64.5 48l40 54l6 8l6 -4q2 -8 5 -15.5t14 -19.5q14 -11 32.5 -18t41.5 -7q30 0 53.5 13.5t36.5 42t13 74.5v380h-170v59h243v-435q0 -69 -24 -112.5t-63.5 -63.5t-87.5 -20v0z" />
    <glyph glyph-name="uni024D" unicode="&#x24d;" 
d="M35 172v57h270v-57h-270zM119 457h75l-3 -133l-9 15q6 31 21 55t36 40.5t46 25t52 8.5q36 0 66.5 -12.5t54.5 -37.5l-32 -56l-4 -9l-7 4q-2 8 -6 15t-17 17q-16 10 -29.5 13.5t-30.5 3.5q-25 0 -50 -9.5t-45.5 -29.5t-32.5 -51t-12 -74v-243h-73v458z" />
    <glyph glyph-name="uni0259" unicode="&#x259;" 
d="M228 467q50 0 91 -15.5t70.5 -45.5t45.5 -74.5t16 -101.5q0 -58 -16.5 -103t-45 -75.5t-66.5 -46.5t-82 -16q-39 0 -73 13t-59 39.5t-39.5 67.5t-14.5 97q0 8 0.5 16.5t1.5 16.5h325q-2 44 -15 76.5t-34 53t-48.5 30.5t-58.5 10q-23 0 -44.5 -5.5t-39.5 -17t-34 -28.5
l-40 39q20 24 44 39.5t53 23t63 7.5zM379 183h-251q0 -32 8.5 -57.5t24 -44t37 -28t48.5 -9.5q24 0 45.5 8t39.5 25.5t30.5 43.5t17.5 62z" />
    <glyph glyph-name="uni027B" unicode="&#x27b;" 
d="M396 -177q-22 0 -44.5 6.5t-41.5 22t-30.5 41.5t-11.5 66l1 127q-12 -31 -33 -53t-47.5 -33t-55.5 -11q-32 0 -57 12.5t-51 37.5l30 56l4 9l6 -3q3 -8 6.5 -16t15.5 -19q11 -8 23 -11.5t28 -3.5q23 0 46 9.5t42 29.5t30.5 51t11.5 74v243h73v-499q0 -24 9 -40.5t24 -25
t33 -8.5q7 0 13.5 1t13.5 3.5t14 6.5q5 3 7 6.5t3.5 7.5t4.5 6l25 -55q-16 -18 -39 -28t-53 -10v0z" />
    <glyph glyph-name="uni0298" unicode="&#x298;" 
d="M250 -11q-71 0 -121 37t-76 108.5t-26 173.5q0 99 26 170.5t76 110t121 38.5q72 0 121.5 -38.5t75.5 -110t26 -170.5q0 -102 -26 -173.5t-75.5 -108.5t-121.5 -37zM250 50q48 0 81.5 30t51.5 87.5t18 140.5q0 79 -18 136.5t-51.5 89.5t-81.5 32q-47 0 -81 -32t-52 -89.5
t-18 -136.5q0 -83 18 -140.5t52 -87.5t81 -30zM252 268q-18 0 -31 13t-13 31q0 19 13 32t31 13q19 0 32 -13.5t13 -31.5t-13 -31t-32 -13z" />
    <glyph glyph-name="uni029A" unicode="&#x29a;" 
d="M236 -8q-56 1 -99.5 21t-67.5 54.5t-24 75.5q0 28 11 50.5t30.5 37.5t46.5 21q-29 17 -44.5 40.5t-15.5 51.5q0 36 22.5 63.5t61.5 43.5t87 16q63 0 110 -30.5t73 -84t26 -123.5q0 -69 -27 -123t-76 -84t-114 -30zM236 52q43 0 74.5 21t49 60.5t17.5 96.5q0 52 -16.5 92
t-47 62.5t-72.5 22.5q-31 0 -51 -9t-30 -24t-10 -35q0 -18 8.5 -32t28.5 -22t54 -8h12t12 1v-67q-6 1 -12 1.5t-11.5 1t-12.5 0.5q-23 0 -42.5 -4.5t-33.5 -14.5t-22 -24t-8 -34q0 -25 15 -44.5t40.5 -30t57.5 -10.5z" />
    <glyph glyph-name="uni02B9" unicode="&#x2b9;" 
d="M243 514h-44l22 180h71z" />
    <glyph glyph-name="uni02BA" unicode="&#x2ba;" 
d="M313 514h-44l22 180h71zM183 514h-44l22 180h71z" />
    <glyph glyph-name="uni02BB" unicode="&#x2bb;" 
d="M274 635l31 -27q-25 -23 -42 -50t-17 -44q0 -12 11.5 -22t23 -20.5t11.5 -27.5q0 -22 -15 -37.5t-38 -15.5q-24 0 -42.5 21t-18.5 54q0 24 10.5 50.5t32 56t53.5 62.5z" />
    <glyph glyph-name="uni02BC" unicode="&#x2bc;" 
d="M208 454l-28 24q16 14 27.5 30t18 30.5t6.5 24.5q0 8 -6 14.5t-14.5 13t-14.5 14.5t-6 19q0 20 13.5 33.5t34.5 13.5t37.5 -18.5t16.5 -47.5q0 -21 -9.5 -45.5t-28 -50.5t-47.5 -55z" />
    <glyph glyph-name="uni02BE" unicode="&#x2be;" 
d="M196 450v48q16 0 28.5 8.5t20 22t7.5 29.5q0 24 -17 42.5t-40 18.5l1 46q29 0 53.5 -14.5t39.5 -38.5t15 -55q0 -30 -14.5 -54.5t-39 -38.5t-54.5 -14z" />
    <glyph glyph-name="uni02BF" unicode="&#x2bf;" 
d="M304 450q-30 0 -54.5 14t-39 38.5t-14.5 54.5q0 31 15 55t39.5 38.5t53.5 14.5l1 -46q-23 0 -40 -18.5t-17 -42.5q0 -16 7.5 -29.5t20.5 -22t28 -8.5v-48z" />
    <glyph glyph-name="circumflex" unicode="&#x2c6;" 
d="M343 518l-88 103l-95 -106l-36 30l121 140h22l120 -141z" />
    <glyph glyph-name="caron" unicode="&#x2c7;" 
d="M244 518l-110 141l46 35l78 -103l81 102l38 -35l-111 -140h-22z" />
    <glyph glyph-name="uni02C8" unicode="&#x2c8;" 
d="M292 445h-71v220h71v-220z" />
    <glyph glyph-name="uni02C9" unicode="&#x2c9;" 
d="M123 565v56h254v-56h-254z" />
    <glyph glyph-name="uni02CA" unicode="&#x2ca;" 
d="M241 558h-57l91 146h79z" />
    <glyph glyph-name="uni02CB" unicode="&#x2cb;" 
d="M281 522l-101 135l63 42l88 -147z" />
    <glyph glyph-name="uni02CC" unicode="&#x2cc;" 
d="M287 -190h-73v220h73v-220z" />
    <glyph glyph-name="breve" unicode="&#x2d8;" 
d="M251 524q-43 0 -80.5 19.5t-69.5 57.5l36 45q19 -30 48.5 -50t64.5 -20q32 0 61.5 17.5t57.5 52.5l28 -42q-18 -24 -41.5 -42t-50 -28t-54.5 -10z" />
    <glyph glyph-name="dotaccent" unicode="&#x2d9;" 
d="M254 553q-21 0 -36 15t-15 36q0 22 14.5 37t36.5 15q21 0 36.5 -15.5t15.5 -36.5t-15.5 -36t-36.5 -15z" />
    <glyph glyph-name="ring" unicode="&#x2da;" 
d="M256 517q-24 0 -44.5 12t-33.5 32t-13 44t13 44t33.5 32t44.5 12q25 0 46 -12t33.5 -31.5t12.5 -44.5q0 -24 -13 -44t-33.5 -32t-45.5 -12zM257 560q17 0 29.5 13.5t12.5 32.5t-12.5 32.5t-29.5 13.5t-29 -13.5t-12 -32.5t12 -32.5t29 -13.5z" />
    <glyph glyph-name="ogonek" unicode="&#x2db;" 
d="M379 -179l-16 -48q-33 5 -58 16.5t-39.5 30t-14.5 43.5q0 27 14 53.5t41 52t66 48.5l27 -17q-25 -20 -43.5 -41.5t-28.5 -42.5t-10 -39q0 -21 15 -36t47 -20z" />
    <glyph glyph-name="tilde" unicode="&#x2dc;" 
d="M385 677l46 -28q-22 -42 -42.5 -58.5t-50.5 -16.5q-22 0 -39.5 8t-32 19t-29 19t-31.5 8t-30.5 -10t-25.5 -37l-49 22q14 34 39 57t64 23q22 0 38.5 -8t30.5 -19t28.5 -19t32.5 -8q16 0 26.5 10t24.5 38z" />
    <glyph glyph-name="hungarumlaut" unicode="&#x2dd;" 
d="M331 522l-50 30l88 147l63 -42zM176 522l-50 30l88 147l63 -42z" />
    <glyph glyph-name="gravecomb" unicode="&#x300;" horiz-adv-x="0" 
d="M255 507l-101 135l55 40l84 -149z" />
    <glyph glyph-name="acutecomb" unicode="&#x301;" horiz-adv-x="0" 
d="M254 507l-38 26l84 149l55 -40z" />
    <glyph glyph-name="uni0302" unicode="&#x302;" horiz-adv-x="0" 
d="M139 511l-40 34l139 140h24l139 -140l-40 -34l-111 110z" />
    <glyph glyph-name="tildecomb" unicode="&#x303;" horiz-adv-x="0" 
d="M385 677l46 -28q-22 -42 -42.5 -58.5t-50.5 -16.5q-22 0 -39.5 8t-32 19t-29 19t-31.5 8t-30.5 -10t-25.5 -37l-49 22q14 34 39 57t64 23q22 0 38.5 -8t30.5 -19t28.5 -19t32.5 -8q16 0 26.5 10t24.5 38z" />
    <glyph glyph-name="uni0304" unicode="&#x304;" horiz-adv-x="0" 
d="M123 565v56h254v-56h-254z" />
    <glyph glyph-name="uni0306" unicode="&#x306;" horiz-adv-x="0" 
d="M348 654l52 -24q-22 -44 -58.5 -68t-83.5 -24q-46 0 -82.5 24t-59.5 68l52 24q17 -35 38.5 -51.5t51.5 -16.5q20 0 36.5 7t29.5 22.5t24 38.5z" />
    <glyph glyph-name="uni0307" unicode="&#x307;" horiz-adv-x="0" 
d="M254 553q-21 0 -36 15t-15 36q0 22 14.5 37t36.5 15q21 0 36.5 -15.5t15.5 -36.5t-15.5 -36t-36.5 -15z" />
    <glyph glyph-name="uni0308" unicode="&#x308;" horiz-adv-x="0" 
d="M163 564q-21 0 -36 15t-15 35t15 35.5t36 15.5q20 0 35 -15t15 -36q0 -20 -15 -35t-35 -15zM341 564q-21 0 -35.5 14.5t-14.5 35.5t14.5 36t35.5 15q20 0 35 -15t15 -36q0 -20 -15 -35t-35 -15z" />
    <glyph glyph-name="hookabovecomb" unicode="&#x309;" horiz-adv-x="0" 
d="M320 630q0 -21 -8.5 -32.5t-19.5 -19.5t-19.5 -18.5t-8.5 -29.5v-7h-51v28q0 13 8 23t18 19t18 17.5t8 17.5q0 14 -9 21t-22 7t-25.5 -6t-18.5 -26l-37 38q18 23 38.5 32.5t47.5 9.5q22 0 40.5 -9t29.5 -25.5t11 -39.5z" />
    <glyph glyph-name="uni030A" unicode="&#x30a;" horiz-adv-x="0" 
d="M256 517q-24 0 -44.5 12t-33.5 32t-13 44t13 44t33.5 32t44.5 12q25 0 46 -12t33.5 -31.5t12.5 -44.5q0 -24 -13 -44t-33.5 -32t-45.5 -12zM257 560q17 0 29.5 13.5t12.5 32.5t-12.5 32.5t-29.5 13.5t-29 -13.5t-12 -32.5t12 -32.5t29 -13.5z" />
    <glyph glyph-name="uni030B" unicode="&#x30b;" horiz-adv-x="0" 
d="M331 522l-50 30l88 147l63 -42zM176 522l-50 30l88 147l63 -42z" />
    <glyph glyph-name="uni030C" unicode="&#x30c;" horiz-adv-x="0" 
d="M144 688l111 -110l111 110l40 -34l-139 -140h-24l-139 140z" />
    <glyph glyph-name="uni030F" unicode="&#x30f;" horiz-adv-x="0" 
d="M196 507l-101 135l55 40l84 -149zM356 507l-101 135l55 40l84 -149z" />
    <glyph glyph-name="uni0311" unicode="&#x311;" horiz-adv-x="0" 
d="M167 528l-52 24q23 44 59.5 68t82.5 24q47 0 83.5 -24t58.5 -68l-52 -24q-16 35 -38 51.5t-52 16.5q-20 0 -36 -7t-29.5 -22t-24.5 -39z" />
    <glyph glyph-name="uni0312" unicode="&#x312;" horiz-adv-x="0" 
d="M273 821l34 -30q-28 -26 -46.5 -56t-18.5 -49q0 -10 7.5 -18.5t18 -16.5t18 -18t7.5 -24q0 -25 -16.5 -42t-42.5 -17t-47 23t-21 60q0 20 6.5 41.5t20 45t33.5 49t47 52.5z" />
    <glyph glyph-name="uni031B" unicode="&#x31b;" horiz-adv-x="0" 
d="M490 541q0 -48 -7 -77.5t-27 -42.5t-60 -13v49q16 0 23 16t7 68h64z" />
    <glyph glyph-name="dotbelowcomb" unicode="&#x323;" horiz-adv-x="0" 
d="M238 -147q-21 0 -36 15t-15 36q0 22 14.5 37t36.5 15q21 0 36.5 -15.5t15.5 -36.5t-15.5 -36t-36.5 -15z" />
    <glyph glyph-name="uni0324" unicode="&#x324;" horiz-adv-x="0" 
d="M163 -166q-21 0 -36 15t-15 35t15 35.5t36 15.5q20 0 35 -15t15 -36q0 -20 -15 -35t-35 -15zM341 -166q-21 0 -35.5 14.5t-14.5 35.5t14.5 36t35.5 15q20 0 35 -15t15 -36q0 -20 -15 -35t-35 -15z" />
    <glyph glyph-name="uni0326" unicode="&#x326;" horiz-adv-x="0" 
d="M207 -275l-30 27q24 23 41 50t17 44q0 12 -11.5 22t-23 20.5t-11.5 27.5q0 22 15 37.5t38 15.5q24 0 42.5 -21t18.5 -54q0 -24 -10.5 -50.5t-32 -56t-53.5 -62.5z" />
    <glyph glyph-name="uni0327" unicode="&#x327;" horiz-adv-x="0" 
d="M268 -197q-26 0 -51 7.5t-48 23.5l25 42q19 -15 40.5 -22.5t46.5 -7.5q26 0 38 9.5t12 26.5q0 16 -14 24.5t-37 8.5h-30l11 85h44l-6 -47q30 -2 48.5 -12t27.5 -24t9 -29q0 -34 -28.5 -59.5t-87.5 -25.5z" />
    <glyph glyph-name="uni0328" unicode="&#x328;" horiz-adv-x="0" 
d="M279 -179l-16 -48q-33 5 -58 16.5t-39.5 30t-14.5 43.5q0 27 14 53.5t41 52t66 48.5l27 -17q-25 -20 -43.5 -41.5t-28.5 -42.5t-10 -39q0 -21 15 -36t47 -20z" />
    <glyph glyph-name="uni032E" unicode="&#x32e;" horiz-adv-x="0" 
d="M348 -59l52 -24q-22 -44 -58.5 -68t-83.5 -24q-46 0 -82.5 24t-59.5 68l52 24q17 -35 38.5 -51.5t51.5 -16.5q20 0 36.5 7t29.5 22.5t24 38.5z" />
    <glyph glyph-name="uni0331" unicode="&#x331;" horiz-adv-x="0" 
d="M123 -155v56h254v-56h-254z" />
    <glyph glyph-name="uni0335" unicode="&#x335;" horiz-adv-x="0" 
d="M121 286v57h270v-57h-270z" />
    <glyph glyph-name="uni0336" unicode="&#x336;" horiz-adv-x="0" 
d="M111 281v67h280v-67h-280z" />
    <glyph glyph-name="uni0375" unicode="&#x375;" 
d="M217 -76h-44l62 180h71z" />
    <glyph glyph-name="uni1E08" unicode="&#x1e08;" 
d="M285 -10q-51 0 -95 18.5t-77.5 57.5t-52.5 99t-19 143q0 73 14 127.5t38 91.5t55 59t65 32t68 10q68 0 116 -33.5t72 -89.5l-60 -28l-9 -4l-3 7q3 8 0 14.5t-11 20.5q-25 34 -51.5 45.5t-55.5 11.5q-39 0 -70.5 -17.5t-54 -51t-34 -81.5t-11.5 -109q0 -59 13.5 -107
t37 -83t55 -54t67.5 -19q25 0 48.5 9t43.5 26.5t34 40.5l52 -34q-30 -50 -72 -76t-103 -26v0zM277 -197q-26 0 -51 7.5t-48 23.5l25 42q19 -15 40.5 -22.5t46.5 -7.5q26 0 38 9.5t12 26.5q0 16 -14 24.5t-37 8.5h-30l11 85h44l-6 -47q30 -2 48.5 -12t27.5 -24t9 -29
q0 -34 -28.5 -59.5t-87.5 -25.5zM197 660l-23 42l152 89l40 -70z" />
    <glyph glyph-name="uni1E09" unicode="&#x1e09;" 
d="M285 -11q-50 0 -92 18t-72.5 50t-47.5 75.5t-17 95.5q0 51 17 94.5t47.5 75.5t72.5 50t91 18q56 0 100.5 -22.5t72.5 -62.5l-45 -44l-7 -7l-5 5q0 8 -3.5 15t-15.5 19q-22 20 -47 28t-58 8q-29 0 -55 -12t-46.5 -34.5t-32.5 -54.5t-12 -71t12 -71.5t33 -56.5t50.5 -37.5
t63.5 -13.5q23 0 44 6.5t40 19t35 30.5l42 -49q-34 -36 -75.5 -54t-89.5 -18v0zM283 -197q-26 0 -51 7.5t-48 23.5l25 42q19 -15 40.5 -22.5t46.5 -7.5q26 0 38 9.5t12 26.5q0 16 -14 24.5t-37 8.5h-30l11 85h44l-6 -47q30 -2 48.5 -12t27.5 -24t9 -29q0 -34 -28.5 -59.5
t-87.5 -25.5zM279 507l-38 26l84 149l55 -40z" />
    <glyph glyph-name="uni1E0C" unicode="&#x1e0c;" 
d="M54 -1v624h145q54 0 91 -10t63 -28.5t46 -46.5q21 -28 34.5 -63t20 -76.5t6.5 -90.5q-3 -72 -19 -129t-48 -97t-82.5 -61.5t-123.5 -21.5h-133zM120 54h64q72 0 117.5 29t67.5 85t21 136q0 82 -20 140t-62.5 89t-112.5 31h-75v-510zM249 -147q-21 0 -36 15t-15 36
q0 22 14.5 37t36.5 15q21 0 36.5 -15.5t15.5 -36.5t-15.5 -36t-36.5 -15z" />
    <glyph glyph-name="uni1E0D" unicode="&#x1e0d;" 
d="M234 -10q-35 0 -68.5 15t-61 45t-43.5 76t-16 107q0 63 17 107.5t45 73t62 42t69 13.5q32 0 57.5 -10t45 -27.5t30.5 -41.5v275h66h10v-7q-6 -6 -7.5 -13t-1.5 -24l1 -550q0 -18 1.5 -35.5t8.5 -35.5h-71q-5 12 -7 24t-2.5 23.5t-0.5 23.5q-14 -24 -34 -42.5t-45 -28.5
t-55 -10v0zM245 53q33 0 56 13.5t37 38t20.5 57t6.5 69.5q0 51 -13 91.5t-41 64t-72 23.5q-30 0 -53.5 -11.5t-39 -33.5t-23.5 -52.5t-8 -68.5q0 -57 15 -100t44 -67t71 -24v0zM249 -147q-21 0 -36 15t-15 36q0 22 14.5 37t36.5 15q21 0 36.5 -15.5t15.5 -36.5t-15.5 -36
t-36.5 -15z" />
    <glyph glyph-name="uni1E0E" unicode="&#x1e0e;" 
d="M54 -1v624h145q54 0 91 -10t63 -28.5t46 -46.5q21 -28 34.5 -63t20 -76.5t6.5 -90.5q-3 -72 -19 -129t-48 -97t-82.5 -61.5t-123.5 -21.5h-133zM120 54h64q72 0 117.5 29t67.5 85t21 136q0 82 -20 140t-62.5 89t-112.5 31h-75v-510zM125 -155v56h254v-56h-254z" />
    <glyph glyph-name="uni1E0F" unicode="&#x1e0f;" 
d="M234 -10q-35 0 -68.5 15t-61 45t-43.5 76t-16 107q0 63 17 107.5t45 73t62 42t69 13.5q32 0 57.5 -10t45 -27.5t30.5 -41.5v275h66h10v-7q-6 -6 -7.5 -13t-1.5 -24l1 -550q0 -18 1.5 -35.5t8.5 -35.5h-71q-5 12 -7 24t-2.5 23.5t-0.5 23.5q-14 -24 -34 -42.5t-45 -28.5
t-55 -10v0zM245 53q33 0 56 13.5t37 38t20.5 57t6.5 69.5q0 51 -13 91.5t-41 64t-72 23.5q-30 0 -53.5 -11.5t-39 -33.5t-23.5 -52.5t-8 -68.5q0 -57 15 -100t44 -67t71 -24v0zM125 -155v56h254v-56h-254z" />
    <glyph glyph-name="uni1E14" unicode="&#x1e14;" 
d="M59 0v624h382v-62h-316v-205h261v-64h-261v-231h313v-62h-379zM132 731v56h254v-56h-254zM302 814l-170 61l40 70l153 -89z" />
    <glyph glyph-name="uni1E15" unicode="&#x1e15;" 
d="M272 -10q-50 0 -91 15.5t-70.5 45.5t-45.5 74.5t-16 101.5q0 58 16.5 103t45 75.5t67 46.5t81.5 16q39 0 73 -13t59 -39.5t39.5 -67.5t14.5 -97q0 -8 -0.5 -16.5t-1.5 -16.5h-325q2 -44 15 -76.5t34 -53t48.5 -30.5t58.5 -10q24 0 45 5.5t39.5 17t33.5 28.5l40 -39
q-19 -23 -43.5 -39t-53.5 -23.5t-63 -7.5zM121 274h251q0 32 -8.5 57.5t-24 44t-37 28t-48.5 9.5q-24 0 -45.5 -8t-39.5 -25.5t-30.5 -43.5t-17.5 -62zM133 565v56h254v-56h-254zM254 661l-101 135l55 40l84 -149z" />
    <glyph glyph-name="uni1E16" unicode="&#x1e16;" 
d="M59 0v624h382v-62h-316v-205h261v-64h-261v-231h313v-62h-379zM132 731v56h254v-56h-254zM186 814l-23 42l152 89l40 -70z" />
    <glyph glyph-name="uni1E17" unicode="&#x1e17;" 
d="M272 -10q-50 0 -91 15.5t-70.5 45.5t-45.5 74.5t-16 101.5q0 58 16.5 103t45 75.5t67 46.5t81.5 16q39 0 73 -13t59 -39.5t39.5 -67.5t14.5 -97q0 -8 -0.5 -16.5t-1.5 -16.5h-325q2 -44 15 -76.5t34 -53t48.5 -30.5t58.5 -10q24 0 45 5.5t39.5 17t33.5 28.5l40 -39
q-19 -23 -43.5 -39t-53.5 -23.5t-63 -7.5zM121 274h251q0 32 -8.5 57.5t-24 44t-37 28t-48.5 9.5q-24 0 -45.5 -8t-39.5 -25.5t-30.5 -43.5t-17.5 -62zM133 565v56h254v-56h-254zM253 661l-38 26l84 149l55 -40z" />
    <glyph glyph-name="uni1E1C" unicode="&#x1e1c;" 
d="M59 0v624h382v-62h-316v-205h261v-64h-261v-231h313v-62h-379zM247 -197q-26 0 -51 7.5t-48 23.5l25 42q19 -15 40.5 -22.5t46.5 -7.5q26 0 38 9.5t12 26.5q0 16 -14 24.5t-37 8.5h-30l11 85h44l-6 -47q30 -2 48.5 -12t27.5 -24t9 -29q0 -34 -28.5 -59.5t-87.5 -25.5z
M349 787l52 -24q-22 -44 -58.5 -68t-83.5 -24q-46 0 -82.5 24t-59.5 68l52 24q17 -35 38.5 -51.5t51.5 -16.5q20 0 36.5 7t29.5 22.5t24 38.5z" />
    <glyph glyph-name="uni1E1D" unicode="&#x1e1d;" 
d="M272 -10q-50 0 -91 15.5t-70.5 45.5t-45.5 74.5t-16 101.5q0 58 16.5 103t45 75.5t67 46.5t81.5 16q39 0 73 -13t59 -39.5t39.5 -67.5t14.5 -97q0 -8 -0.5 -16.5t-1.5 -16.5h-325q2 -44 15 -76.5t34 -53t48.5 -30.5t58.5 -10q24 0 45 5.5t39.5 17t33.5 28.5l40 -39
q-19 -23 -43.5 -39t-53.5 -23.5t-63 -7.5zM121 274h251q0 32 -8.5 57.5t-24 44t-37 28t-48.5 9.5q-24 0 -45.5 -8t-39.5 -25.5t-30.5 -43.5t-17.5 -62zM277 -197q-26 0 -51 7.5t-48 23.5l25 42q19 -15 40.5 -22.5t46.5 -7.5q26 0 38 9.5t12 26.5q0 16 -14 24.5t-37 8.5h-30
l11 85h44l-6 -47q30 -2 48.5 -12t27.5 -24t9 -29q0 -34 -28.5 -59.5t-87.5 -25.5zM350 654l52 -24q-22 -44 -58.5 -68t-83.5 -24q-46 0 -82.5 24t-59.5 68l52 24q17 -35 38.5 -51.5t51.5 -16.5q20 0 36.5 7t29.5 22.5t24 38.5z" />
    <glyph glyph-name="uni1E20" unicode="&#x1e20;" 
d="M277 -10q-74 0 -128.5 39t-83.5 110t-29 165q-1 81 14.5 137.5t41.5 93.5t58 58t64.5 29t59.5 8q37 0 72.5 -13.5t65 -36.5t46.5 -55l-49 -39l-8 -7l-4 6q1 8 -2.5 14.5t-14.5 19.5q-15 17 -31 28t-34.5 16t-41.5 5q-27 0 -52 -7.5t-46 -25t-37 -46.5t-24.5 -71t-8.5 -99
q0 -65 12 -114.5t34.5 -83.5t54 -51.5t71.5 -17.5q14 0 29.5 2t31 6.5t30.5 12t27 17.5v148h-113v61h178v-244q-44 -32 -90 -48.5t-93 -16.5v0zM147 731v56h254v-56h-254z" />
    <glyph glyph-name="uni1E21" unicode="&#x1e21;" 
d="M247 -172q-48 0 -86.5 7.5t-66 22t-42 36.5t-14.5 52q0 28 12 50t31.5 36.5t42.5 21.5l30 -18q-18 -11 -29 -22t-16 -25.5t-5 -34.5q0 -17 10 -30.5t28.5 -22.5t45 -14t60.5 -5q46 0 74.5 9.5t42.5 26t14 37.5q0 22 -8 36t-33 21t-76 7q-35 0 -64 3t-52 10t-38.5 17.5
t-23.5 25.5t-8 35q0 26 14.5 50t39.5 46l34 -27q-10 -11 -16 -19.5t-8.5 -16t-2.5 -16.5q0 -16 12.5 -26t43.5 -14.5t84 -4.5t86 -8.5t50.5 -24.5t24.5 -37t7 -46q0 -27 -10.5 -51.5t-33.5 -44t-61 -31t-93 -11.5zM226 155q-49 0 -85 21.5t-55.5 58t-19.5 80.5t19.5 80
t55.5 57.5t85 21.5q50 0 85.5 -21.5t55 -57.5t19.5 -80t-19.5 -80.5t-55 -58t-85.5 -21.5zM226 215q29 0 51.5 13.5t35.5 36.5t13 50q0 28 -13 50.5t-35.5 36t-51.5 13.5t-51.5 -13.5t-35.5 -36t-13 -50.5q0 -27 13 -50t35.5 -36.5t51.5 -13.5zM359 383l-28 33
q29 29 60.5 42.5t74.5 10.5l9 -59q-33 3 -62 -2t-54 -25zM99 565v56h254v-56h-254z" />
    <glyph glyph-name="uni1E24" unicode="&#x1e24;" 
d="M50 623h72h10v-7q-6 -6 -7.5 -13t-1.5 -24v-222h244v266h72h10v-7q-6 -6 -7.5 -13t-1.5 -24v-579h-74v297h-243v-297h-73v623zM249 -147q-21 0 -36 15t-15 36q0 22 14.5 37t36.5 15q21 0 36.5 -15.5t15.5 -36.5t-15.5 -36t-36.5 -15z" />
    <glyph glyph-name="uni1E25" unicode="&#x1e25;" 
d="M73 665h69h10v-7q-6 -6 -7.5 -13t-1.5 -24v-245q18 28 42.5 48.5t52 32t55.5 11.5q41 0 72.5 -19t49 -61t17.5 -111v-277h-70v275q0 48 -11 76.5t-30 41t-43 12.5q-18 0 -37 -6t-36.5 -18t-31.5 -29.5t-22 -39.5t-8 -49v-263h-70v665zM249 -147q-21 0 -36 15t-15 36
q0 22 14.5 37t36.5 15q21 0 36.5 -15.5t15.5 -36.5t-15.5 -36t-36.5 -15z" />
    <glyph glyph-name="uni1E2A" unicode="&#x1e2a;" 
d="M50 623h72h10v-7q-6 -6 -7.5 -13t-1.5 -24v-222h244v266h72h10v-7q-6 -6 -7.5 -13t-1.5 -24v-579h-74v297h-243v-297h-73v623zM350 -59l52 -24q-22 -44 -58.5 -68t-83.5 -24q-46 0 -82.5 24t-59.5 68l52 24q17 -35 38.5 -51.5t51.5 -16.5q20 0 36.5 7t29.5 22.5t24 38.5z
" />
    <glyph glyph-name="uni1E2B" unicode="&#x1e2b;" 
d="M73 665h69h10v-7q-6 -6 -7.5 -13t-1.5 -24v-245q18 28 42.5 48.5t52 32t55.5 11.5q41 0 72.5 -19t49 -61t17.5 -111v-277h-70v275q0 48 -11 76.5t-30 41t-43 12.5q-18 0 -37 -6t-36.5 -18t-31.5 -29.5t-22 -39.5t-8 -49v-263h-70v665zM350 -59l52 -24q-22 -44 -58.5 -68
t-83.5 -24q-46 0 -82.5 24t-59.5 68l52 24q17 -35 38.5 -51.5t51.5 -16.5q20 0 36.5 7t29.5 22.5t24 38.5z" />
    <glyph glyph-name="uni1E2E" unicode="&#x1e2e;" 
d="M81 0v59h123v505h-116v59h309v-59h-123v-506h129v-58h-322zM149 688q-20 0 -35 15t-15 35t15 35.5t35 15.5q21 0 36 -15t15 -36q0 -20 -15 -35t-36 -15zM327 688q-20 0 -34.5 14.5t-14.5 35.5t14.5 36t34.5 15q21 0 36 -15t15 -36q0 -20 -15 -35t-36 -15zM164 802l-23 42
l152 89l40 -70z" />
    <glyph glyph-name="uni1E2F" unicode="&#x1e2f;" 
d="M100 0v58h117v341h-111v58h183v-399h107v-58h-296zM162 564q-21 0 -36 15t-15 35t15 35.5t36 15.5q20 0 35 -15t15 -36q0 -20 -15 -35t-35 -15zM340 564q-21 0 -35.5 14.5t-14.5 35.5t14.5 36t35.5 15q20 0 35 -15t15 -36q0 -20 -15 -35t-35 -15zM244 655l-38 26l84 149
l55 -40z" />
    <glyph glyph-name="uni1E36" unicode="&#x1e36;" 
d="M66 623h72h10v-7q-6 -6 -7.5 -13t-1.5 -24v-519h300v-60h-373v623zM249 -147q-21 0 -36 15t-15 36q0 22 14.5 37t36.5 15q21 0 36.5 -15.5t15.5 -36.5t-15.5 -36t-36.5 -15z" />
    <glyph glyph-name="uni1E37" unicode="&#x1e37;" 
d="M79 0v58h135v549h-129v58h202v-607h134v-58h-342zM249 -147q-21 0 -36 15t-15 36q0 22 14.5 37t36.5 15q21 0 36.5 -15.5t15.5 -36.5t-15.5 -36t-36.5 -15z" />
    <glyph glyph-name="uni1E3A" unicode="&#x1e3a;" 
d="M66 623h72h10v-7q-6 -6 -7.5 -13t-1.5 -24v-519h300v-60h-373v623zM125 -155v56h254v-56h-254z" />
    <glyph glyph-name="uni1E3B" unicode="&#x1e3b;" 
d="M79 0v58h135v549h-129v58h202v-607h134v-58h-342zM125 -155v56h254v-56h-254z" />
    <glyph glyph-name="uni1E42" unicode="&#x1e42;" 
d="M41 0v623h55l154 -305l157 306h53v-624h-66v470l-135 -251h-27l-126 248v-467h-65zM249 -147q-21 0 -36 15t-15 36q0 22 14.5 37t36.5 15q21 0 36.5 -15.5t15.5 -36.5t-15.5 -36t-36.5 -15z" />
    <glyph glyph-name="uni1E43" unicode="&#x1e43;" 
d="M38 0v457h66v-45q11 17 25.5 29.5t32 19.5t35.5 7q20 0 37 -8.5t28.5 -23.5t15.5 -35q9 20 24.5 35t36 23.5t42.5 8.5q23 0 40 -9t28 -24.5t16 -37t4 -46.5v-351h-66v324q0 42 -5.5 61t-15.5 24.5t-22 5.5q-19 0 -35.5 -17.5t-27 -43.5t-10.5 -52v-302h-67v318
q0 57 -10.5 76t-39.5 19q-11 0 -22.5 -7.5t-21.5 -21t-16 -33.5t-6 -46v-305h-66zM249 -147q-21 0 -36 15t-15 36q0 22 14.5 37t36.5 15q21 0 36.5 -15.5t15.5 -36.5t-15.5 -36t-36.5 -15z" />
    <glyph glyph-name="uni1E44" unicode="&#x1e44;" 
d="M50 623h68l262 -462v462h66h10v-7q-6 -6 -7.5 -13t-1.5 -24v-579h-55l-275 490v-490h-67v623zM248 693q-21 0 -36 15t-15 36q0 22 14.5 37t36.5 15q21 0 36.5 -15.5t15.5 -36.5t-15.5 -36t-36.5 -15z" />
    <glyph glyph-name="uni1E45" unicode="&#x1e45;" 
d="M72 0v457h70v-81q18 28 42 48.5t53 32t60 11.5q38 0 68 -19t48 -61t18 -111v-277h-70v275q0 48 -11 76.5t-30 41t-43 12.5q-23 0 -46.5 -10t-43.5 -28.5t-32.5 -44.5t-12.5 -59v-263h-70zM264 553q-21 0 -36 15t-15 36q0 22 14.5 37t36.5 15q21 0 36.5 -15.5t15.5 -36.5
t-15.5 -36t-36.5 -15z" />
    <glyph glyph-name="uni1E46" unicode="&#x1e46;" 
d="M50 623h68l262 -462v462h66h10v-7q-6 -6 -7.5 -13t-1.5 -24v-579h-55l-275 490v-490h-67v623zM249 -147q-21 0 -36 15t-15 36q0 22 14.5 37t36.5 15q21 0 36.5 -15.5t15.5 -36.5t-15.5 -36t-36.5 -15z" />
    <glyph glyph-name="uni1E47" unicode="&#x1e47;" 
d="M72 0v457h70v-81q18 28 42 48.5t53 32t60 11.5q38 0 68 -19t48 -61t18 -111v-277h-70v275q0 48 -11 76.5t-30 41t-43 12.5q-23 0 -46.5 -10t-43.5 -28.5t-32.5 -44.5t-12.5 -59v-263h-70zM259 -147q-21 0 -36 15t-15 36q0 22 14.5 37t36.5 15q21 0 36.5 -15.5t15.5 -36.5
t-15.5 -36t-36.5 -15z" />
    <glyph glyph-name="uni1E48" unicode="&#x1e48;" 
d="M50 623h68l262 -462v462h66h10v-7q-6 -6 -7.5 -13t-1.5 -24v-579h-55l-275 490v-490h-67v623zM125 -155v56h254v-56h-254z" />
    <glyph glyph-name="uni1E49" unicode="&#x1e49;" 
d="M72 0v457h70v-81q18 28 42 48.5t53 32t60 11.5q38 0 68 -19t48 -61t18 -111v-277h-70v275q0 48 -11 76.5t-30 41t-43 12.5q-23 0 -46.5 -10t-43.5 -28.5t-32.5 -44.5t-12.5 -59v-263h-70zM135 -155v56h254v-56h-254z" />
    <glyph glyph-name="uni1E4C" unicode="&#x1e4c;" 
d="M250 -11q-71 0 -121 37t-76 108.5t-26 173.5q0 99 26 170.5t76 110t121 38.5q72 0 121.5 -38.5t75.5 -110t26 -170.5q0 -102 -26 -173.5t-75.5 -108.5t-121.5 -37zM250 50q48 0 81.5 30t51.5 87.5t18 140.5q0 79 -18 136.5t-51.5 89.5t-81.5 32q-47 0 -81 -32t-52 -89.5
t-18 -136.5q0 -83 18 -140.5t52 -87.5t81 -30zM379 791l46 -28q-22 -42 -42.5 -58.5t-50.5 -16.5q-22 0 -39.5 8t-32 19t-29 19t-31.5 8t-30.5 -10t-25.5 -37l-49 22q14 34 39 57t64 23q22 0 38.5 -8t30.5 -19t28.5 -19t32.5 -8q16 0 26.5 10t24.5 38zM177 815l-23 42
l152 89l40 -70z" />
    <glyph glyph-name="uni1E4D" unicode="&#x1e4d;" 
d="M250 -8q-62 0 -109.5 30.5t-74.5 84t-27 122.5q0 70 27 123.5t74.5 84t109.5 30.5t109.5 -30.5t74.5 -84t27 -123.5q0 -69 -27 -122.5t-74.5 -84t-109.5 -30.5zM250 52q40 0 70 23t47.5 63t17.5 92t-17.5 92t-47.5 62.5t-70 22.5q-39 0 -69.5 -22.5t-48 -62.5t-17.5 -92
t17.5 -92t48 -63t69.5 -23zM375 677l46 -28q-22 -42 -42.5 -58.5t-50.5 -16.5q-22 0 -39.5 8t-32 19t-29 19t-31.5 8t-30.5 -10t-25.5 -37l-49 22q14 34 39 57t64 23q22 0 38.5 -8t30.5 -19t28.5 -19t32.5 -8q16 0 26.5 10t24.5 38zM243 686l-38 26l84 149l55 -40z" />
    <glyph glyph-name="uni1E4E" unicode="&#x1e4e;" 
d="M250 -11q-71 0 -121 37t-76 108.5t-26 173.5q0 99 26 170.5t76 110t121 38.5q72 0 121.5 -38.5t75.5 -110t26 -170.5q0 -102 -26 -173.5t-75.5 -108.5t-121.5 -37zM250 50q48 0 81.5 30t51.5 87.5t18 140.5q0 79 -18 136.5t-51.5 89.5t-81.5 32q-47 0 -81 -32t-52 -89.5
t-18 -136.5q0 -83 18 -140.5t52 -87.5t81 -30zM379 791l46 -28q-22 -42 -42.5 -58.5t-50.5 -16.5q-22 0 -39.5 8t-32 19t-29 19t-31.5 8t-30.5 -10t-25.5 -37l-49 22q14 34 39 57t64 23q22 0 38.5 -8t30.5 -19t28.5 -19t32.5 -8q16 0 26.5 10t24.5 38zM160 843q-20 0 -35 15
t-15 35t15 35.5t35 15.5q21 0 36 -15t15 -36q0 -20 -15 -35t-36 -15zM338 843q-20 0 -34.5 14.5t-14.5 35.5t14.5 36t34.5 15q21 0 36 -15t15 -36q0 -20 -15 -35t-36 -15z" />
    <glyph glyph-name="uni1E4F" unicode="&#x1e4f;" 
d="M250 -8q-62 0 -109.5 30.5t-74.5 84t-27 122.5q0 70 27 123.5t74.5 84t109.5 30.5t109.5 -30.5t74.5 -84t27 -123.5q0 -69 -27 -122.5t-74.5 -84t-109.5 -30.5zM250 52q40 0 70 23t47.5 63t17.5 92t-17.5 92t-47.5 62.5t-70 22.5q-39 0 -69.5 -22.5t-48 -62.5t-17.5 -92
t17.5 -92t48 -63t69.5 -23zM375 677l46 -28q-22 -42 -42.5 -58.5t-50.5 -16.5q-22 0 -39.5 8t-32 19t-29 19t-31.5 8t-30.5 -10t-25.5 -37l-49 22q14 34 39 57t64 23q22 0 38.5 -8t30.5 -19t28.5 -19t32.5 -8q16 0 26.5 10t24.5 38zM162 743q-21 0 -36 15t-15 35t15 35.5
t36 15.5q20 0 35 -15t15 -36q0 -20 -15 -35t-35 -15zM340 743q-21 0 -35.5 14.5t-14.5 35.5t14.5 36t35.5 15q20 0 35 -15t15 -36q0 -20 -15 -35t-35 -15z" />
    <glyph glyph-name="uni1E50" unicode="&#x1e50;" 
d="M250 -11q-71 0 -121 37t-76 108.5t-26 173.5q0 99 26 170.5t76 110t121 38.5q72 0 121.5 -38.5t75.5 -110t26 -170.5q0 -102 -26 -173.5t-75.5 -108.5t-121.5 -37zM250 50q48 0 81.5 30t51.5 87.5t18 140.5q0 79 -18 136.5t-51.5 89.5t-81.5 32q-47 0 -81 -32t-52 -89.5
t-18 -136.5q0 -83 18 -140.5t52 -87.5t81 -30zM123 731v56h254v-56h-254zM293 814l-170 61l40 70l153 -89z" />
    <glyph glyph-name="uni1E51" unicode="&#x1e51;" 
d="M250 -8q-62 0 -109.5 30.5t-74.5 84t-27 122.5q0 70 27 123.5t74.5 84t109.5 30.5t109.5 -30.5t74.5 -84t27 -123.5q0 -69 -27 -122.5t-74.5 -84t-109.5 -30.5zM250 52q40 0 70 23t47.5 63t17.5 92t-17.5 92t-47.5 62.5t-70 22.5q-39 0 -69.5 -22.5t-48 -62.5t-17.5 -92
t17.5 -92t48 -63t69.5 -23zM123 565v56h254v-56h-254zM244 661l-101 135l55 40l84 -149z" />
    <glyph glyph-name="uni1E52" unicode="&#x1e52;" 
d="M250 -11q-71 0 -121 37t-76 108.5t-26 173.5q0 99 26 170.5t76 110t121 38.5q72 0 121.5 -38.5t75.5 -110t26 -170.5q0 -102 -26 -173.5t-75.5 -108.5t-121.5 -37zM250 50q48 0 81.5 30t51.5 87.5t18 140.5q0 79 -18 136.5t-51.5 89.5t-81.5 32q-47 0 -81 -32t-52 -89.5
t-18 -136.5q0 -83 18 -140.5t52 -87.5t81 -30zM123 731v56h254v-56h-254zM177 814l-23 42l152 89l40 -70z" />
    <glyph glyph-name="uni1E53" unicode="&#x1e53;" 
d="M250 -8q-62 0 -109.5 30.5t-74.5 84t-27 122.5q0 70 27 123.5t74.5 84t109.5 30.5t109.5 -30.5t74.5 -84t27 -123.5q0 -69 -27 -122.5t-74.5 -84t-109.5 -30.5zM250 52q40 0 70 23t47.5 63t17.5 92t-17.5 92t-47.5 62.5t-70 22.5q-39 0 -69.5 -22.5t-48 -62.5t-17.5 -92
t17.5 -92t48 -63t69.5 -23zM123 565v56h254v-56h-254zM243 661l-38 26l84 149l55 -40z" />
    <glyph glyph-name="uni1E5A" unicode="&#x1e5a;" 
d="M56 0v623h184q74 0 119.5 -22t66.5 -62t21 -94q0 -35 -15.5 -70t-44 -61t-67.5 -36l144 -278h-78l-138 275h-121v-275h-71zM127 337h121q67 0 97 29.5t30 78.5q0 31 -13 56.5t-41 40.5t-73 15h-121v-220zM249 -147q-21 0 -36 15t-15 36q0 22 14.5 37t36.5 15
q21 0 36.5 -15.5t15.5 -36.5t-15.5 -36t-36.5 -15z" />
    <glyph glyph-name="uni1E5B" unicode="&#x1e5b;" 
d="M119 457h75l-3 -133l-9 15q6 31 21 55t36 40.5t46 25t52 8.5q36 0 66.5 -12.5t54.5 -37.5l-32 -56l-4 -9l-7 4q-2 8 -6 15t-17 17q-16 10 -29.5 13.5t-30.5 3.5q-25 0 -50 -9.5t-45.5 -29.5t-32.5 -51t-12 -74v-243h-73v458zM269 -147q-21 0 -36 15t-15 36q0 22 14.5 37
t36.5 15q21 0 36.5 -15.5t15.5 -36.5t-15.5 -36t-36.5 -15z" />
    <glyph glyph-name="uni1E5E" unicode="&#x1e5e;" 
d="M56 0v623h184q74 0 119.5 -22t66.5 -62t21 -94q0 -35 -15.5 -70t-44 -61t-67.5 -36l144 -278h-78l-138 275h-121v-275h-71zM127 337h121q67 0 97 29.5t30 78.5q0 31 -13 56.5t-41 40.5t-73 15h-121v-220zM125 -155v56h254v-56h-254z" />
    <glyph glyph-name="uni1E5F" unicode="&#x1e5f;" 
d="M119 457h75l-3 -133l-9 15q6 31 21 55t36 40.5t46 25t52 8.5q36 0 66.5 -12.5t54.5 -37.5l-32 -56l-4 -9l-7 4q-2 8 -6 15t-17 17q-16 10 -29.5 13.5t-30.5 3.5q-25 0 -50 -9.5t-45.5 -29.5t-32.5 -51t-12 -74v-243h-73v458zM145 -155v56h254v-56h-254z" />
    <glyph glyph-name="uni1E60" unicode="&#x1e60;" 
d="M247 -10q-61 0 -109.5 20t-85.5 59l36 63l4 9l7 -4q2 -7 5 -15.5t14 -20.5q26 -22 60.5 -35t78.5 -13q28 0 51.5 8.5t41 23t27 34t9.5 41.5q0 17 -3.5 31t-13 25.5t-25.5 23t-41 24.5t-60 28q-65 25 -102.5 54.5t-53 62.5t-15.5 68q0 46 23 80.5t65.5 54t101.5 19.5
q34 0 65.5 -9.5t59 -26.5t48.5 -42l-39 -52l-6 -8l-6 4q-1 8 -4 16t-14 20q-24 23 -51 31.5t-64 8.5q-25 0 -44.5 -7t-33.5 -20t-21.5 -29.5t-7.5 -34.5q0 -17 4 -31t14 -27t27.5 -26t44 -26t64.5 -28q46 -19 76.5 -37.5t48 -39t25 -44.5t7.5 -53q0 -43 -21.5 -84.5
t-67.5 -68.5t-119 -27v0zM259 693q-21 0 -36 15t-15 36q0 22 14.5 37t36.5 15q21 0 36.5 -15.5t15.5 -36.5t-15.5 -36t-36.5 -15z" />
    <glyph glyph-name="uni1E61" unicode="&#x1e61;" 
d="M251 -10q-38 0 -72.5 8t-65 24t-56.5 40l40 68l6 9l6 -4q2 -8 4.5 -16.5t13.5 -20.5q21 -21 50.5 -34.5t75.5 -13.5q37 0 62.5 9t39.5 25.5t14 38.5q0 15 -6 26.5t-19.5 21.5t-35.5 20t-54 20q-52 15 -91 35t-60 46.5t-21 60.5q0 35 19 60.5t56.5 40t92.5 14.5
q32 0 58 -4.5t48 -13.5t40.5 -22.5t35.5 -31.5l-41 -50l-7 -8l-5 5q-1 8 -4.5 15.5t-14.5 18.5q-23 18 -52 27.5t-56 9.5q-40 0 -69 -14t-29 -43q0 -15 10.5 -29.5t38.5 -29t80 -29.5q57 -18 91.5 -36.5t50 -42.5t15.5 -57q0 -38 -20.5 -71t-62.5 -52.5t-106 -19.5v0z
M254 553q-21 0 -36 15t-15 36q0 22 14.5 37t36.5 15q21 0 36.5 -15.5t15.5 -36.5t-15.5 -36t-36.5 -15z" />
    <glyph glyph-name="uni1E62" unicode="&#x1e62;" 
d="M247 -10q-61 0 -109.5 20t-85.5 59l36 63l4 9l7 -4q2 -7 5 -15.5t14 -20.5q26 -22 60.5 -35t78.5 -13q28 0 51.5 8.5t41 23t27 34t9.5 41.5q0 17 -3.5 31t-13 25.5t-25.5 23t-41 24.5t-60 28q-65 25 -102.5 54.5t-53 62.5t-15.5 68q0 46 23 80.5t65.5 54t101.5 19.5
q34 0 65.5 -9.5t59 -26.5t48.5 -42l-39 -52l-6 -8l-6 4q-1 8 -4 16t-14 20q-24 23 -51 31.5t-64 8.5q-25 0 -44.5 -7t-33.5 -20t-21.5 -29.5t-7.5 -34.5q0 -17 4 -31t14 -27t27.5 -26t44 -26t64.5 -28q46 -19 76.5 -37.5t48 -39t25 -44.5t7.5 -53q0 -43 -21.5 -84.5
t-67.5 -68.5t-119 -27v0zM246 -147q-21 0 -36 15t-15 36q0 22 14.5 37t36.5 15q21 0 36.5 -15.5t15.5 -36.5t-15.5 -36t-36.5 -15z" />
    <glyph glyph-name="uni1E63" unicode="&#x1e63;" 
d="M251 -10q-38 0 -72.5 8t-65 24t-56.5 40l40 68l6 9l6 -4q2 -8 4.5 -16.5t13.5 -20.5q21 -21 50.5 -34.5t75.5 -13.5q37 0 62.5 9t39.5 25.5t14 38.5q0 15 -6 26.5t-19.5 21.5t-35.5 20t-54 20q-52 15 -91 35t-60 46.5t-21 60.5q0 35 19 60.5t56.5 40t92.5 14.5
q32 0 58 -4.5t48 -13.5t40.5 -22.5t35.5 -31.5l-41 -50l-7 -8l-5 5q-1 8 -4.5 15.5t-14.5 18.5q-23 18 -52 27.5t-56 9.5q-40 0 -69 -14t-29 -43q0 -15 10.5 -29.5t38.5 -29t80 -29.5q57 -18 91.5 -36.5t50 -42.5t15.5 -57q0 -38 -20.5 -71t-62.5 -52.5t-106 -19.5v0z
M238 -147q-21 0 -36 15t-15 36q0 22 14.5 37t36.5 15q21 0 36.5 -15.5t15.5 -36.5t-15.5 -36t-36.5 -15z" />
    <glyph glyph-name="uni1E64" unicode="&#x1e64;" 
d="M247 -10q-61 0 -109.5 20t-85.5 59l36 63l4 9l7 -4q2 -7 5 -15.5t14 -20.5q26 -22 60.5 -35t78.5 -13q28 0 51.5 8.5t41 23t27 34t9.5 41.5q0 17 -3.5 31t-13 25.5t-25.5 23t-41 24.5t-60 28q-65 25 -102.5 54.5t-53 62.5t-15.5 68q0 46 23 80.5t65.5 54t101.5 19.5
q34 0 65.5 -9.5t59 -26.5t48.5 -42l-39 -52l-6 -8l-6 4q-1 8 -4 16t-14 20q-24 23 -51 31.5t-64 8.5q-25 0 -44.5 -7t-33.5 -20t-21.5 -29.5t-7.5 -34.5q0 -17 4 -31t14 -27t27.5 -26t44 -26t64.5 -28q46 -19 76.5 -37.5t48 -39t25 -44.5t7.5 -53q0 -43 -21.5 -84.5
t-67.5 -68.5t-119 -27v0zM188 660l-23 42l152 89l40 -70zM259 811q-21 0 -36 15t-15 36q0 22 14.5 37t36.5 15q21 0 36.5 -15.5t15.5 -36.5t-15.5 -36t-36.5 -15z" />
    <glyph glyph-name="uni1E65" unicode="&#x1e65;" 
d="M251 -10q-38 0 -72.5 8t-65 24t-56.5 40l40 68l6 9l6 -4q2 -8 4.5 -16.5t13.5 -20.5q21 -21 50.5 -34.5t75.5 -13.5q37 0 62.5 9t39.5 25.5t14 38.5q0 15 -6 26.5t-19.5 21.5t-35.5 20t-54 20q-52 15 -91 35t-60 46.5t-21 60.5q0 35 19 60.5t56.5 40t92.5 14.5
q32 0 58 -4.5t48 -13.5t40.5 -22.5t35.5 -31.5l-41 -50l-7 -8l-5 5q-1 8 -4.5 15.5t-14.5 18.5q-23 18 -52 27.5t-56 9.5q-40 0 -69 -14t-29 -43q0 -15 10.5 -29.5t38.5 -29t80 -29.5q57 -18 91.5 -36.5t50 -42.5t15.5 -57q0 -38 -20.5 -71t-62.5 -52.5t-106 -19.5v0z
M254 507l-38 26l84 149l55 -40zM279 705q-21 0 -36 15t-15 36q0 22 14.5 37t36.5 15q21 0 36.5 -15.5t15.5 -36.5t-15.5 -36t-36.5 -15z" />
    <glyph glyph-name="uni1E66" unicode="&#x1e66;" 
d="M247 -10q-61 0 -109.5 20t-85.5 59l36 63l4 9l7 -4q2 -7 5 -15.5t14 -20.5q26 -22 60.5 -35t78.5 -13q28 0 51.5 8.5t41 23t27 34t9.5 41.5q0 17 -3.5 31t-13 25.5t-25.5 23t-41 24.5t-60 28q-65 25 -102.5 54.5t-53 62.5t-15.5 68q0 46 23 80.5t65.5 54t101.5 19.5
q34 0 65.5 -9.5t59 -26.5t48.5 -42l-39 -52l-6 -8l-6 4q-1 8 -4 16t-14 20q-24 23 -51 31.5t-64 8.5q-25 0 -44.5 -7t-33.5 -20t-21.5 -29.5t-7.5 -34.5q0 -17 4 -31t14 -27t27.5 -26t44 -26t64.5 -28q46 -19 76.5 -37.5t48 -39t25 -44.5t7.5 -53q0 -43 -21.5 -84.5
t-67.5 -68.5t-119 -27v0zM382 793l33 -38l-143 -98h-22l-151 99l30 36l130 -70zM259 851q-21 0 -36 15t-15 36q0 22 14.5 37t36.5 15q21 0 36.5 -15.5t15.5 -36.5t-15.5 -36t-36.5 -15z" />
    <glyph glyph-name="uni1E67" unicode="&#x1e67;" 
d="M251 -10q-38 0 -72.5 8t-65 24t-56.5 40l40 68l6 9l6 -4q2 -8 4.5 -16.5t13.5 -20.5q21 -21 50.5 -34.5t75.5 -13.5q37 0 62.5 9t39.5 25.5t14 38.5q0 15 -6 26.5t-19.5 21.5t-35.5 20t-54 20q-52 15 -91 35t-60 46.5t-21 60.5q0 35 19 60.5t56.5 40t92.5 14.5
q32 0 58 -4.5t48 -13.5t40.5 -22.5t35.5 -31.5l-41 -50l-7 -8l-5 5q-1 8 -4.5 15.5t-14.5 18.5q-23 18 -52 27.5t-56 9.5q-40 0 -69 -14t-29 -43q0 -15 10.5 -29.5t38.5 -29t80 -29.5q57 -18 91.5 -36.5t50 -42.5t15.5 -57q0 -38 -20.5 -71t-62.5 -52.5t-106 -19.5v0z
M144 688l111 -110l111 110l40 -34l-139 -140h-24l-139 140zM255 700q-21 0 -36 15t-15 36q0 22 14.5 37t36.5 15q21 0 36.5 -15.5t15.5 -36.5t-15.5 -36t-36.5 -15z" />
    <glyph glyph-name="uni1E68" unicode="&#x1e68;" 
d="M247 -10q-61 0 -109.5 20t-85.5 59l36 63l4 9l7 -4q2 -7 5 -15.5t14 -20.5q26 -22 60.5 -35t78.5 -13q28 0 51.5 8.5t41 23t27 34t9.5 41.5q0 17 -3.5 31t-13 25.5t-25.5 23t-41 24.5t-60 28q-65 25 -102.5 54.5t-53 62.5t-15.5 68q0 46 23 80.5t65.5 54t101.5 19.5
q34 0 65.5 -9.5t59 -26.5t48.5 -42l-39 -52l-6 -8l-6 4q-1 8 -4 16t-14 20q-24 23 -51 31.5t-64 8.5q-25 0 -44.5 -7t-33.5 -20t-21.5 -29.5t-7.5 -34.5q0 -17 4 -31t14 -27t27.5 -26t44 -26t64.5 -28q46 -19 76.5 -37.5t48 -39t25 -44.5t7.5 -53q0 -43 -21.5 -84.5
t-67.5 -68.5t-119 -27v0zM246 -147q-21 0 -36 15t-15 36q0 22 14.5 37t36.5 15q21 0 36.5 -15.5t15.5 -36.5t-15.5 -36t-36.5 -15zM259 693q-21 0 -36 15t-15 36q0 22 14.5 37t36.5 15q21 0 36.5 -15.5t15.5 -36.5t-15.5 -36t-36.5 -15z" />
    <glyph glyph-name="uni1E69" unicode="&#x1e69;" 
d="M251 -10q-38 0 -72.5 8t-65 24t-56.5 40l40 68l6 9l6 -4q2 -8 4.5 -16.5t13.5 -20.5q21 -21 50.5 -34.5t75.5 -13.5q37 0 62.5 9t39.5 25.5t14 38.5q0 15 -6 26.5t-19.5 21.5t-35.5 20t-54 20q-52 15 -91 35t-60 46.5t-21 60.5q0 35 19 60.5t56.5 40t92.5 14.5
q32 0 58 -4.5t48 -13.5t40.5 -22.5t35.5 -31.5l-41 -50l-7 -8l-5 5q-1 8 -4.5 15.5t-14.5 18.5q-23 18 -52 27.5t-56 9.5q-40 0 -69 -14t-29 -43q0 -15 10.5 -29.5t38.5 -29t80 -29.5q57 -18 91.5 -36.5t50 -42.5t15.5 -57q0 -38 -20.5 -71t-62.5 -52.5t-106 -19.5v0z
M238 -147q-21 0 -36 15t-15 36q0 22 14.5 37t36.5 15q21 0 36.5 -15.5t15.5 -36.5t-15.5 -36t-36.5 -15zM254 553q-21 0 -36 15t-15 36q0 22 14.5 37t36.5 15q21 0 36.5 -15.5t15.5 -36.5t-15.5 -36t-36.5 -15z" />
    <glyph glyph-name="uni1E6C" unicode="&#x1e6c;" 
d="M208 0v561h-177v63h432v-63h-184v-561h-71zM249 -147q-21 0 -36 15t-15 36q0 22 14.5 37t36.5 15q21 0 36.5 -15.5t15.5 -36.5t-15.5 -36t-36.5 -15z" />
    <glyph glyph-name="uni1E6D" unicode="&#x1e6d;" 
d="M299 -7q-44 0 -72 15t-43 46.5t-19.5 79.5t-2.5 114l12 326l75 9l10 1l1 -7q-5 -7 -8.5 -14t-5.5 -24l-9 -113l3 -18l-7 -165q-3 -76 4 -117.5t25 -57t48 -15.5q33 0 58.5 13t53.5 33l22 -57q-34 -25 -70 -37t-75 -12v0zM70 457h329v-59h-329v59zM249 -147q-21 0 -36 15
t-15 36q0 22 14.5 37t36.5 15q21 0 36.5 -15.5t15.5 -36.5t-15.5 -36t-36.5 -15z" />
    <glyph glyph-name="uni1E6E" unicode="&#x1e6e;" 
d="M208 0v561h-177v63h432v-63h-184v-561h-71zM125 -155v56h254v-56h-254z" />
    <glyph glyph-name="uni1E6F" unicode="&#x1e6f;" 
d="M299 -7q-44 0 -72 15t-43 46.5t-19.5 79.5t-2.5 114l12 326l75 9l10 1l1 -7q-5 -7 -8.5 -14t-5.5 -24l-9 -113l3 -18l-7 -165q-3 -76 4 -117.5t25 -57t48 -15.5q33 0 58.5 13t53.5 33l22 -57q-34 -25 -70 -37t-75 -12v0zM70 457h329v-59h-329v59zM125 -155v56h254v-56
h-254z" />
    <glyph glyph-name="uni1E78" unicode="&#x1e78;" 
d="M251 -11q-100 0 -150.5 59.5t-50.5 166.5v408h68h10v-7q-6 -6 -7.5 -13t-1.5 -24v-365q0 -76 29.5 -121t103.5 -45q75 0 105 45t30 124v406h67v-405q0 -79 -25 -129.5t-70.5 -75t-107.5 -24.5v0zM379 791l46 -28q-22 -42 -42.5 -58.5t-50.5 -16.5q-22 0 -39.5 8t-32 19
t-29 19t-31.5 8t-30.5 -10t-25.5 -37l-49 22q14 34 39 57t64 23q22 0 38.5 -8t30.5 -19t28.5 -19t32.5 -8q16 0 26.5 10t24.5 38zM177 815l-23 42l152 89l40 -70z" />
    <glyph glyph-name="uni1E79" unicode="&#x1e79;" 
d="M221 -11q-27 0 -51 8t-43.5 24.5t-33.5 41.5t-21.5 60t-7.5 79l1 255h70v-255q0 -43 8 -73t22.5 -48t33.5 -26t40 -8q24 0 46 9.5t39.5 28.5t27.5 49t10 71v252h70v-386q0 -18 1.5 -35.5t8.5 -35.5h-69q-5 12 -7 23.5t-2.5 23.5t-0.5 23q-11 -19 -26 -34t-33.5 -25.5
t-39 -16t-43.5 -5.5zM375 677l46 -28q-22 -42 -42.5 -58.5t-50.5 -16.5q-22 0 -39.5 8t-32 19t-29 19t-31.5 8t-30.5 -10t-25.5 -37l-49 22q14 34 39 57t64 23q22 0 38.5 -8t30.5 -19t28.5 -19t32.5 -8q16 0 26.5 10t24.5 38zM243 686l-38 26l84 149l55 -40z" />
    <glyph glyph-name="uni1E7A" unicode="&#x1e7a;" 
d="M251 -11q-100 0 -150.5 59.5t-50.5 166.5v408h68h10v-7q-6 -6 -7.5 -13t-1.5 -24v-365q0 -76 29.5 -121t103.5 -45q75 0 105 45t30 124v406h67v-405q0 -79 -25 -129.5t-70.5 -75t-107.5 -24.5v0zM123 731v56h254v-56h-254zM160 842q-20 0 -35 15t-15 35t15 35.5t35 15.5
q21 0 36 -15t15 -36q0 -20 -15 -35t-36 -15zM338 842q-20 0 -34.5 14.5t-14.5 35.5t14.5 36t34.5 15q21 0 36 -15t15 -36q0 -20 -15 -35t-36 -15z" />
    <glyph glyph-name="uni1E7B" unicode="&#x1e7b;" 
d="M221 -11q-27 0 -51 8t-43.5 24.5t-33.5 41.5t-21.5 60t-7.5 79l1 255h70v-255q0 -43 8 -73t22.5 -48t33.5 -26t40 -8q24 0 46 9.5t39.5 28.5t27.5 49t10 71v252h70v-386q0 -18 1.5 -35.5t8.5 -35.5h-69q-5 12 -7 23.5t-2.5 23.5t-0.5 23q-11 -19 -26 -34t-33.5 -25.5
t-39 -16t-43.5 -5.5zM123 565v56h254v-56h-254zM162 718q-21 0 -36 15t-15 35t15 35.5t36 15.5q20 0 35 -15t15 -36q0 -20 -15 -35t-35 -15zM340 718q-21 0 -35.5 14.5t-14.5 35.5t14.5 36t35.5 15q20 0 35 -15t15 -36q0 -20 -15 -35t-35 -15z" />
    <glyph glyph-name="Wgrave" unicode="&#x1e80;" 
d="M117 0l-100 623h65l67 -421l100 375h22l101 -377l57 423h59l-99 -623h-27l-107 407l-109 -407h-29zM303 660l-170 61l40 70l153 -89z" />
    <glyph glyph-name="wgrave" unicode="&#x1e81;" 
d="M108 -1l-92 458h63l74 -367l78 324h44l97 -323q13 89 21.5 146t13 93.5t6 61.5t1.5 50v15h67q-10 -77 -21.5 -153.5t-25 -152.5t-29.5 -152h-68l-84 296l-80 -296h-65zM244 507l-101 135l55 40l84 -149z" />
    <glyph glyph-name="Wacute" unicode="&#x1e82;" 
d="M117 0l-100 623h65l67 -421l100 375h22l101 -377l57 423h59l-99 -623h-27l-107 407l-109 -407h-29zM187 660l-23 42l152 89l40 -70z" />
    <glyph glyph-name="wacute" unicode="&#x1e83;" 
d="M108 -1l-92 458h63l74 -367l78 324h44l97 -323q13 89 21.5 146t13 93.5t6 61.5t1.5 50v15h67q-10 -77 -21.5 -153.5t-25 -152.5t-29.5 -152h-68l-84 296l-80 -296h-65zM243 507l-38 26l84 149l55 -40z" />
    <glyph glyph-name="Wdieresis" unicode="&#x1e84;" 
d="M117 0l-100 623h65l67 -421l100 375h22l101 -377l57 423h59l-99 -623h-27l-107 407l-109 -407h-29zM170 688q-20 0 -35 15t-15 35t15 35.5t35 15.5q21 0 36 -15t15 -36q0 -20 -15 -35t-36 -15zM348 688q-20 0 -34.5 14.5t-14.5 35.5t14.5 36t34.5 15q21 0 36 -15t15 -36
q0 -20 -15 -35t-36 -15z" />
    <glyph glyph-name="wdieresis" unicode="&#x1e85;" 
d="M108 -1l-92 458h63l74 -367l78 324h44l97 -323q13 89 21.5 146t13 93.5t6 61.5t1.5 50v15h67q-10 -77 -21.5 -153.5t-25 -152.5t-29.5 -152h-68l-84 296l-80 -296h-65zM162 564q-21 0 -36 15t-15 35t15 35.5t36 15.5q20 0 35 -15t15 -36q0 -20 -15 -35t-35 -15zM340 564
q-21 0 -35.5 14.5t-14.5 35.5t14.5 36t35.5 15q20 0 35 -15t15 -36q0 -20 -15 -35t-35 -15z" />
    <glyph glyph-name="uni1E8E" unicode="&#x1e8e;" 
d="M220 0v246l-192 377h80l153 -302l138 302h74l-177 -377v-246h-76zM248 693q-21 0 -36 15t-15 36q0 22 14.5 37t36.5 15q21 0 36.5 -15.5t15.5 -36.5t-15.5 -36t-36.5 -15z" />
    <glyph glyph-name="uni1E8F" unicode="&#x1e8f;" 
d="M127 -174q-32 0 -58.5 10t-46.5 29l31 49l6 9l6 -4q2 -8 7 -13.5t19 -14.5q9 -3 19 -4.5t21 -1.5q27 0 45.5 13t32.5 40t27 68l87 269q15 46 29 91t19 91h72q-7 -46 -22 -93t-32 -94l-114 -322q-24 -67 -61.5 -94.5t-86.5 -27.5v0zM46 457h75l148 -381l-32 -89zM252 553
q-21 0 -36 15t-15 36q0 22 14.5 37t36.5 15q21 0 36.5 -15.5t15.5 -36.5t-15.5 -36t-36.5 -15z" />
    <glyph glyph-name="uni1E92" unicode="&#x1e92;" 
d="M50 49l314 511h-302v63h385v-49l-309 -512h281q17 0 24 2t13 8h7v-10v-62h-413v49zM269 -147q-21 0 -36 15t-15 36q0 22 14.5 37t36.5 15q21 0 36.5 -15.5t15.5 -36.5t-15.5 -36t-36.5 -15z" />
    <glyph glyph-name="uni1E93" unicode="&#x1e93;" 
d="M50 49l283 345h-262v63h355v-49l-278 -346h258q17 0 24 2t13 8h7v-10v-62h-400v49zM249 -147q-21 0 -36 15t-15 36q0 22 14.5 37t36.5 15q21 0 36.5 -15.5t15.5 -36.5t-15.5 -36t-36.5 -15z" />
    <glyph glyph-name="uni1E97" unicode="&#x1e97;" 
d="M299 -7q-44 0 -72 15t-43 46.5t-19.5 79.5t-2.5 114l12 326l75 9l10 1l1 -7q-5 -7 -8.5 -14t-5.5 -24l-9 -113l3 -18l-7 -165q-3 -76 4 -117.5t25 -57t48 -15.5q33 0 58.5 13t53.5 33l22 -57q-34 -25 -70 -37t-75 -12v0zM70 457h329v-59h-329v59zM147 690q-21 0 -36 15
t-15 35t15 35.5t36 15.5q20 0 35 -15t15 -36q0 -20 -15 -35t-35 -15zM325 690q-21 0 -35.5 14.5t-14.5 35.5t14.5 36t35.5 15q20 0 35 -15t15 -36q0 -20 -15 -35t-35 -15z" />
    <glyph glyph-name="uni1E9E" unicode="&#x1e9e;" 
d="M283 -10q-31 0 -57 7.5t-49 23.5l22 56q12 -8 25.5 -13.5t26.5 -8t25 -2.5q25 0 47 9t39 26.5t26.5 43t9.5 58.5q0 31 -12 61.5t-45 51t-97 20.5h-30v57l138 121q0 29 -10 54t-33 40.5t-62 15.5q-23 0 -45 -7t-40 -23t-28.5 -42t-10.5 -64v-475h-68v462q0 58 16.5 98
t44 64t61.5 34.5t69 10.5q59 0 97.5 -24.5t57.5 -64.5t19 -87l-171 -145l-9 32q70 0 120 -21.5t77 -65.5t27 -112q0 -51 -14.5 -87t-39.5 -59t-58 -34t-69 -11z" />
    <glyph glyph-name="uni1EA0" unicode="&#x1ea0;" 
d="M357 182h-226l14 54h196zM249 474l-164 -474h-69l230 634h8l230 -634h-72zM249 -147q-21 0 -36 15t-15 36q0 22 14.5 37t36.5 15q21 0 36.5 -15.5t15.5 -36.5t-15.5 -36t-36.5 -15z" />
    <glyph glyph-name="uni1EA1" unicode="&#x1ea1;" 
d="M211 -11q-78 0 -120 35.5t-42 90.5q0 37 18 66.5t49.5 50t73.5 31.5t89 11q17 0 34.5 -0.5t37 -2t40.5 -4.5l2 -55q-18 3 -36.5 4.5t-36.5 2.5t-35 1q-36 0 -66 -6t-52 -18t-34 -31t-12 -46q0 -21 7.5 -35.5t20.5 -23t30.5 -12.5t38.5 -4q39 0 69.5 12.5t52 36.5t32.5 59
t11 80q0 68 -16 106t-47.5 54t-80.5 16q-33 0 -65 -12.5t-58 -38.5l-35 46q32 32 74 48t89 16q45 0 82 -11t63.5 -36.5t41 -68.5t14.5 -108v-243h-78v70q-13 -25 -31.5 -41t-39.5 -24.5t-43 -12t-42 -3.5zM249 -147q-21 0 -36 15t-15 36q0 22 14.5 37t36.5 15
q21 0 36.5 -15.5t15.5 -36.5t-15.5 -36t-36.5 -15z" />
    <glyph glyph-name="uni1EA2" unicode="&#x1ea2;" 
d="M357 182h-226l14 54h196zM249 474l-164 -474h-69l230 634h8l230 -634h-72zM335 796q0 -21 -8.5 -32.5t-19.5 -19.5t-19.5 -18.5t-8.5 -29.5v-7h-51v28q0 13 8 23t18 19t18 17.5t8 17.5q0 14 -9 21t-22 7t-25.5 -6t-18.5 -26l-37 38q18 23 38.5 32.5t47.5 9.5
q22 0 40.5 -9t29.5 -25.5t11 -39.5z" />
    <glyph glyph-name="uni1EA3" unicode="&#x1ea3;" 
d="M211 -11q-78 0 -120 35.5t-42 90.5q0 37 18 66.5t49.5 50t73.5 31.5t89 11q17 0 34.5 -0.5t37 -2t40.5 -4.5l2 -55q-18 3 -36.5 4.5t-36.5 2.5t-35 1q-36 0 -66 -6t-52 -18t-34 -31t-12 -46q0 -21 7.5 -35.5t20.5 -23t30.5 -12.5t38.5 -4q39 0 69.5 12.5t52 36.5t32.5 59
t11 80q0 68 -16 106t-47.5 54t-80.5 16q-33 0 -65 -12.5t-58 -38.5l-35 46q32 32 74 48t89 16q45 0 82 -11t63.5 -36.5t41 -68.5t14.5 -108v-243h-78v70q-13 -25 -31.5 -41t-39.5 -24.5t-43 -12t-42 -3.5zM335 630q0 -21 -8.5 -32.5t-19.5 -19.5t-19.5 -18.5t-8.5 -29.5v-7
h-51v28q0 13 8 23t18 19t18 17.5t8 17.5q0 14 -9 21t-22 7t-25.5 -6t-18.5 -26l-37 38q18 23 38.5 32.5t47.5 9.5q22 0 40.5 -9t29.5 -25.5t11 -39.5z" />
    <glyph glyph-name="uni1EA4" unicode="&#x1ea4;" 
d="M357 182h-226l14 54h196zM249 474l-164 -474h-69l230 634h8l230 -634h-72zM124 655l-33 38l143 98h22l151 -99l-30 -36l-130 70zM369 766l-23 42l152 89l40 -70z" />
    <glyph glyph-name="uni1EA5" unicode="&#x1ea5;" 
d="M211 -11q-78 0 -120 35.5t-42 90.5q0 37 18 66.5t49.5 50t73.5 31.5t89 11q17 0 34.5 -0.5t37 -2t40.5 -4.5l2 -55q-18 3 -36.5 4.5t-36.5 2.5t-35 1q-36 0 -66 -6t-52 -18t-34 -31t-12 -46q0 -21 7.5 -35.5t20.5 -23t30.5 -12.5t38.5 -4q39 0 69.5 12.5t52 36.5t32.5 59
t11 80q0 68 -16 106t-47.5 54t-80.5 16q-33 0 -65 -12.5t-58 -38.5l-35 46q32 32 74 48t89 16q45 0 82 -11t63.5 -36.5t41 -68.5t14.5 -108v-243h-78v70q-13 -25 -31.5 -41t-39.5 -24.5t-43 -12t-42 -3.5zM139 511l-40 34l139 140h24l139 -140l-40 -34l-111 110zM385 631
l-38 26l84 149l55 -40z" />
    <glyph glyph-name="uni1EA6" unicode="&#x1ea6;" 
d="M357 182h-226l14 54h196zM249 474l-164 -474h-69l230 634h8l230 -634h-72zM125 655l-33 38l143 98h22l151 -99l-30 -36l-130 70zM307 798l-170 61l40 70l153 -89z" />
    <glyph glyph-name="uni1EA7" unicode="&#x1ea7;" 
d="M211 -11q-78 0 -120 35.5t-42 90.5q0 37 18 66.5t49.5 50t73.5 31.5t89 11q17 0 34.5 -0.5t37 -2t40.5 -4.5l2 -55q-18 3 -36.5 4.5t-36.5 2.5t-35 1q-36 0 -66 -6t-52 -18t-34 -31t-12 -46q0 -21 7.5 -35.5t20.5 -23t30.5 -12.5t38.5 -4q39 0 69.5 12.5t52 36.5t32.5 59
t11 80q0 68 -16 106t-47.5 54t-80.5 16q-33 0 -65 -12.5t-58 -38.5l-35 46q32 32 74 48t89 16q45 0 82 -11t63.5 -36.5t41 -68.5t14.5 -108v-243h-78v70q-13 -25 -31.5 -41t-39.5 -24.5t-43 -12t-42 -3.5zM141 511l-40 34l139 140h24l139 -140l-40 -34l-111 110zM379 652
l-101 135l55 40l84 -149z" />
    <glyph glyph-name="uni1EA8" unicode="&#x1ea8;" 
d="M357 182h-226l14 54h196zM249 474l-164 -474h-69l230 634h8l230 -634h-72zM121 655l-33 38l143 98h22l151 -99l-30 -36l-130 70zM450 856q0 -21 -8.5 -32.5t-19.5 -19.5t-19.5 -18.5t-8.5 -29.5v-7h-51v28q0 13 8 23t18 19t18 17.5t8 17.5q0 14 -9 21t-22 7t-25.5 -6
t-18.5 -26l-37 38q18 23 38.5 32.5t47.5 9.5q22 0 40.5 -9t29.5 -25.5t11 -39.5z" />
    <glyph glyph-name="uni1EA9" unicode="&#x1ea9;" 
d="M211 -11q-78 0 -120 35.5t-42 90.5q0 37 18 66.5t49.5 50t73.5 31.5t89 11q17 0 34.5 -0.5t37 -2t40.5 -4.5l2 -55q-18 3 -36.5 4.5t-36.5 2.5t-35 1q-36 0 -66 -6t-52 -18t-34 -31t-12 -46q0 -21 7.5 -35.5t20.5 -23t30.5 -12.5t38.5 -4q39 0 69.5 12.5t52 36.5t32.5 59
t11 80q0 68 -16 106t-47.5 54t-80.5 16q-33 0 -65 -12.5t-58 -38.5l-35 46q32 32 74 48t89 16q45 0 82 -11t63.5 -36.5t41 -68.5t14.5 -108v-243h-78v70q-13 -25 -31.5 -41t-39.5 -24.5t-43 -12t-42 -3.5zM140 511l-40 34l139 140h24l139 -140l-40 -34l-111 110zM456 730
q0 -21 -8.5 -32.5t-19.5 -19.5t-19.5 -18.5t-8.5 -29.5v-7h-51v28q0 13 8 23t18 19t18 17.5t8 17.5q0 14 -9 21t-22 7t-25.5 -6t-18.5 -26l-37 38q18 23 38.5 32.5t47.5 9.5q22 0 40.5 -9t29.5 -25.5t11 -39.5z" />
    <glyph glyph-name="uni1EAA" unicode="&#x1eaa;" 
d="M357 182h-226l14 54h196zM249 474l-164 -474h-69l230 634h8l230 -634h-72zM125 655l-33 38l143 98h22l151 -99l-30 -36l-130 70zM347 921l46 -22q-19 -42 -39 -58.5t-46 -16.5q-18 0 -33 8t-28 19t-25 19t-24 8q-13 0 -25 -10.5t-20 -31.5l-46 22q11 34 35.5 54.5
t49.5 20.5q18 0 34.5 -8t31 -19t27 -19t23.5 -8t20.5 10t18.5 32z" />
    <glyph glyph-name="uni1EAB" unicode="&#x1eab;" 
d="M211 -11q-78 0 -120 35.5t-42 90.5q0 37 18 66.5t49.5 50t73.5 31.5t89 11q17 0 34.5 -0.5t37 -2t40.5 -4.5l2 -55q-18 3 -36.5 4.5t-36.5 2.5t-35 1q-36 0 -66 -6t-52 -18t-34 -31t-12 -46q0 -21 7.5 -35.5t20.5 -23t30.5 -12.5t38.5 -4q39 0 69.5 12.5t52 36.5t32.5 59
t11 80q0 68 -16 106t-47.5 54t-80.5 16q-33 0 -65 -12.5t-58 -38.5l-35 46q32 32 74 48t89 16q45 0 82 -11t63.5 -36.5t41 -68.5t14.5 -108v-243h-78v70q-13 -25 -31.5 -41t-39.5 -24.5t-43 -12t-42 -3.5zM140 511l-40 34l139 140h24l139 -140l-40 -34l-111 110zM349 812
l46 -22q-19 -42 -39 -58.5t-46 -16.5q-18 0 -33 8t-28 19t-25 19t-24 8q-13 0 -25 -10.5t-20 -31.5l-46 22q11 34 35.5 54.5t49.5 20.5q18 0 34.5 -8t31 -19t27 -19t23.5 -8t20.5 10t18.5 32z" />
    <glyph glyph-name="uni1EAC" unicode="&#x1eac;" 
d="M357 182h-226l14 54h196zM249 474l-164 -474h-69l230 634h8l230 -634h-72zM249 -147q-21 0 -36 15t-15 36q0 22 14.5 37t36.5 15q21 0 36.5 -15.5t15.5 -36.5t-15.5 -36t-36.5 -15zM125 655l-33 38l143 98h22l151 -99l-30 -36l-130 70z" />
    <glyph glyph-name="uni1EAD" unicode="&#x1ead;" 
d="M211 -11q-78 0 -120 35.5t-42 90.5q0 37 18 66.5t49.5 50t73.5 31.5t89 11q17 0 34.5 -0.5t37 -2t40.5 -4.5l2 -55q-18 3 -36.5 4.5t-36.5 2.5t-35 1q-36 0 -66 -6t-52 -18t-34 -31t-12 -46q0 -21 7.5 -35.5t20.5 -23t30.5 -12.5t38.5 -4q39 0 69.5 12.5t52 36.5t32.5 59
t11 80q0 68 -16 106t-47.5 54t-80.5 16q-33 0 -65 -12.5t-58 -38.5l-35 46q32 32 74 48t89 16q45 0 82 -11t63.5 -36.5t41 -68.5t14.5 -108v-243h-78v70q-13 -25 -31.5 -41t-39.5 -24.5t-43 -12t-42 -3.5zM249 -147q-21 0 -36 15t-15 36q0 22 14.5 37t36.5 15
q21 0 36.5 -15.5t15.5 -36.5t-15.5 -36t-36.5 -15zM139 511l-40 34l139 140h24l139 -140l-40 -34l-111 110z" />
    <glyph glyph-name="uni1EAE" unicode="&#x1eae;" 
d="M357 182h-226l14 54h196zM249 474l-164 -474h-69l230 634h8l230 -634h-72zM340 787l52 -24q-22 -44 -58.5 -68t-83.5 -24q-46 0 -82.5 24t-59.5 68l52 24q17 -35 38.5 -51.5t51.5 -16.5q20 0 36.5 7t29.5 22.5t24 38.5zM207 771l-23 42l152 89l40 -70z" />
    <glyph glyph-name="uni1EAF" unicode="&#x1eaf;" 
d="M211 -11q-78 0 -120 35.5t-42 90.5q0 37 18 66.5t49.5 50t73.5 31.5t89 11q17 0 34.5 -0.5t37 -2t40.5 -4.5l2 -55q-18 3 -36.5 4.5t-36.5 2.5t-35 1q-36 0 -66 -6t-52 -18t-34 -31t-12 -46q0 -21 7.5 -35.5t20.5 -23t30.5 -12.5t38.5 -4q39 0 69.5 12.5t52 36.5t32.5 59
t11 80q0 68 -16 106t-47.5 54t-80.5 16q-33 0 -65 -12.5t-58 -38.5l-35 46q32 32 74 48t89 16q45 0 82 -11t63.5 -36.5t41 -68.5t14.5 -108v-243h-78v70q-13 -25 -31.5 -41t-39.5 -24.5t-43 -12t-42 -3.5zM340 654l52 -24q-22 -44 -58.5 -68t-83.5 -24q-46 0 -82.5 24
t-59.5 68l52 24q17 -35 38.5 -51.5t51.5 -16.5q20 0 36.5 7t29.5 22.5t24 38.5zM254 638l-38 26l84 149l55 -40z" />
    <glyph glyph-name="uni1EB0" unicode="&#x1eb0;" 
d="M357 182h-226l14 54h196zM249 474l-164 -474h-69l230 634h8l230 -634h-72zM340 787l52 -24q-22 -44 -58.5 -68t-83.5 -24q-46 0 -82.5 24t-59.5 68l52 24q17 -35 38.5 -51.5t51.5 -16.5q20 0 36.5 7t29.5 22.5t24 38.5zM293 824l-170 61l40 70l153 -89z" />
    <glyph glyph-name="uni1EB1" unicode="&#x1eb1;" 
d="M211 -11q-78 0 -120 35.5t-42 90.5q0 37 18 66.5t49.5 50t73.5 31.5t89 11q17 0 34.5 -0.5t37 -2t40.5 -4.5l2 -55q-18 3 -36.5 4.5t-36.5 2.5t-35 1q-36 0 -66 -6t-52 -18t-34 -31t-12 -46q0 -21 7.5 -35.5t20.5 -23t30.5 -12.5t38.5 -4q39 0 69.5 12.5t52 36.5t32.5 59
t11 80q0 68 -16 106t-47.5 54t-80.5 16q-33 0 -65 -12.5t-58 -38.5l-35 46q32 32 74 48t89 16q45 0 82 -11t63.5 -36.5t41 -68.5t14.5 -108v-243h-78v70q-13 -25 -31.5 -41t-39.5 -24.5t-43 -12t-42 -3.5zM340 654l52 -24q-22 -44 -58.5 -68t-83.5 -24q-46 0 -82.5 24
t-59.5 68l52 24q17 -35 38.5 -51.5t51.5 -16.5q20 0 36.5 7t29.5 22.5t24 38.5zM255 638l-101 135l55 40l84 -149z" />
    <glyph glyph-name="uni1EB2" unicode="&#x1eb2;" 
d="M357 182h-226l14 54h196zM249 474l-164 -474h-69l230 634h8l230 -634h-72zM340 787l52 -24q-22 -44 -58.5 -68t-83.5 -24q-46 0 -82.5 24t-59.5 68l52 24q17 -35 38.5 -51.5t51.5 -16.5q20 0 36.5 7t29.5 22.5t24 38.5zM325 877q0 -21 -8.5 -32.5t-19.5 -19.5
t-19.5 -18.5t-8.5 -29.5v-7h-51v28q0 13 8 23t18 19t18 17.5t8 17.5q0 14 -9 21t-22 7t-25.5 -6t-18.5 -26l-37 38q18 23 38.5 32.5t47.5 9.5q22 0 40.5 -9t29.5 -25.5t11 -39.5z" />
    <glyph glyph-name="uni1EB3" unicode="&#x1eb3;" 
d="M211 -11q-78 0 -120 35.5t-42 90.5q0 37 18 66.5t49.5 50t73.5 31.5t89 11q17 0 34.5 -0.5t37 -2t40.5 -4.5l2 -55q-18 3 -36.5 4.5t-36.5 2.5t-35 1q-36 0 -66 -6t-52 -18t-34 -31t-12 -46q0 -21 7.5 -35.5t20.5 -23t30.5 -12.5t38.5 -4q39 0 69.5 12.5t52 36.5t32.5 59
t11 80q0 68 -16 106t-47.5 54t-80.5 16q-33 0 -65 -12.5t-58 -38.5l-35 46q32 32 74 48t89 16q45 0 82 -11t63.5 -36.5t41 -68.5t14.5 -108v-243h-78v70q-13 -25 -31.5 -41t-39.5 -24.5t-43 -12t-42 -3.5zM340 654l52 -24q-22 -44 -58.5 -68t-83.5 -24q-46 0 -82.5 24
t-59.5 68l52 24q17 -35 38.5 -51.5t51.5 -16.5q20 0 36.5 7t29.5 22.5t24 38.5zM329 757q0 -21 -8.5 -32.5t-19.5 -19.5t-19.5 -18.5t-8.5 -29.5v-7h-51v28q0 13 8 23t18 19t18 17.5t8 17.5q0 14 -9 21t-22 7t-25.5 -6t-18.5 -26l-37 38q18 23 38.5 32.5t47.5 9.5
q22 0 40.5 -9t29.5 -25.5t11 -39.5z" />
    <glyph glyph-name="uni1EB4" unicode="&#x1eb4;" 
d="M357 182h-226l14 54h196zM249 474l-164 -474h-69l230 634h8l230 -634h-72zM340 787l52 -24q-22 -44 -58.5 -68t-83.5 -24q-46 0 -82.5 24t-59.5 68l52 24q17 -35 38.5 -51.5t51.5 -16.5q20 0 36.5 7t29.5 22.5t24 38.5zM342 918l46 -22q-19 -42 -39 -58.5t-46 -16.5
q-18 0 -33 8t-28 19t-25 19t-24 8q-13 0 -25 -10.5t-20 -31.5l-46 22q11 34 35.5 54.5t49.5 20.5q18 0 34.5 -8t31 -19t27 -19t23.5 -8t20.5 10t18.5 32z" />
    <glyph glyph-name="uni1EB5" unicode="&#x1eb5;" 
d="M211 -11q-78 0 -120 35.5t-42 90.5q0 37 18 66.5t49.5 50t73.5 31.5t89 11q17 0 34.5 -0.5t37 -2t40.5 -4.5l2 -55q-18 3 -36.5 4.5t-36.5 2.5t-35 1q-36 0 -66 -6t-52 -18t-34 -31t-12 -46q0 -21 7.5 -35.5t20.5 -23t30.5 -12.5t38.5 -4q39 0 69.5 12.5t52 36.5t32.5 59
t11 80q0 68 -16 106t-47.5 54t-80.5 16q-33 0 -65 -12.5t-58 -38.5l-35 46q32 32 74 48t89 16q45 0 82 -11t63.5 -36.5t41 -68.5t14.5 -108v-243h-78v70q-13 -25 -31.5 -41t-39.5 -24.5t-43 -12t-42 -3.5zM336 654l52 -24q-22 -44 -58.5 -68t-83.5 -24q-46 0 -82.5 24
t-59.5 68l52 24q17 -35 38.5 -51.5t51.5 -16.5q20 0 36.5 7t29.5 22.5t24 38.5zM344 790l46 -22q-19 -42 -39 -58.5t-46 -16.5q-18 0 -33 8t-28 19t-25 19t-24 8q-13 0 -25 -10.5t-20 -31.5l-46 22q11 34 35.5 54.5t49.5 20.5q18 0 34.5 -8t31 -19t27 -19t23.5 -8t20.5 10
t18.5 32z" />
    <glyph glyph-name="uni1EB6" unicode="&#x1eb6;" 
d="M357 182h-226l14 54h196zM249 474l-164 -474h-69l230 634h8l230 -634h-72zM249 -147q-21 0 -36 15t-15 36q0 22 14.5 37t36.5 15q21 0 36.5 -15.5t15.5 -36.5t-15.5 -36t-36.5 -15zM340 787l52 -24q-22 -44 -58.5 -68t-83.5 -24q-46 0 -82.5 24t-59.5 68l52 24
q17 -35 38.5 -51.5t51.5 -16.5q20 0 36.5 7t29.5 22.5t24 38.5z" />
    <glyph glyph-name="uni1EB7" unicode="&#x1eb7;" 
d="M211 -11q-78 0 -120 35.5t-42 90.5q0 37 18 66.5t49.5 50t73.5 31.5t89 11q17 0 34.5 -0.5t37 -2t40.5 -4.5l2 -55q-18 3 -36.5 4.5t-36.5 2.5t-35 1q-36 0 -66 -6t-52 -18t-34 -31t-12 -46q0 -21 7.5 -35.5t20.5 -23t30.5 -12.5t38.5 -4q39 0 69.5 12.5t52 36.5t32.5 59
t11 80q0 68 -16 106t-47.5 54t-80.5 16q-33 0 -65 -12.5t-58 -38.5l-35 46q32 32 74 48t89 16q45 0 82 -11t63.5 -36.5t41 -68.5t14.5 -108v-243h-78v70q-13 -25 -31.5 -41t-39.5 -24.5t-43 -12t-42 -3.5zM249 -147q-21 0 -36 15t-15 36q0 22 14.5 37t36.5 15
q21 0 36.5 -15.5t15.5 -36.5t-15.5 -36t-36.5 -15zM340 654l52 -24q-22 -44 -58.5 -68t-83.5 -24q-46 0 -82.5 24t-59.5 68l52 24q17 -35 38.5 -51.5t51.5 -16.5q20 0 36.5 7t29.5 22.5t24 38.5z" />
    <glyph glyph-name="uni1EB8" unicode="&#x1eb8;" 
d="M59 0v624h382v-62h-316v-205h261v-64h-261v-231h313v-62h-379zM249 -147q-21 0 -36 15t-15 36q0 22 14.5 37t36.5 15q21 0 36.5 -15.5t15.5 -36.5t-15.5 -36t-36.5 -15z" />
    <glyph glyph-name="uni1EB9" unicode="&#x1eb9;" 
d="M272 -10q-50 0 -91 15.5t-70.5 45.5t-45.5 74.5t-16 101.5q0 58 16.5 103t45 75.5t67 46.5t81.5 16q39 0 73 -13t59 -39.5t39.5 -67.5t14.5 -97q0 -8 -0.5 -16.5t-1.5 -16.5h-325q2 -44 15 -76.5t34 -53t48.5 -30.5t58.5 -10q24 0 45 5.5t39.5 17t33.5 28.5l40 -39
q-19 -23 -43.5 -39t-53.5 -23.5t-63 -7.5zM121 274h251q0 32 -8.5 57.5t-24 44t-37 28t-48.5 9.5q-24 0 -45.5 -8t-39.5 -25.5t-30.5 -43.5t-17.5 -62zM279 -147q-21 0 -36 15t-15 36q0 22 14.5 37t36.5 15q21 0 36.5 -15.5t15.5 -36.5t-15.5 -36t-36.5 -15z" />
    <glyph glyph-name="uni1EBA" unicode="&#x1eba;" 
d="M59 0v624h382v-62h-316v-205h261v-64h-261v-231h313v-62h-379zM344 796q0 -21 -8.5 -32.5t-19.5 -19.5t-19.5 -18.5t-8.5 -29.5v-7h-51v28q0 13 8 23t18 19t18 17.5t8 17.5q0 14 -9 21t-22 7t-25.5 -6t-18.5 -26l-37 38q18 23 38.5 32.5t47.5 9.5q22 0 40.5 -9
t29.5 -25.5t11 -39.5z" />
    <glyph glyph-name="uni1EBB" unicode="&#x1ebb;" 
d="M272 -10q-50 0 -91 15.5t-70.5 45.5t-45.5 74.5t-16 101.5q0 58 16.5 103t45 75.5t67 46.5t81.5 16q39 0 73 -13t59 -39.5t39.5 -67.5t14.5 -97q0 -8 -0.5 -16.5t-1.5 -16.5h-325q2 -44 15 -76.5t34 -53t48.5 -30.5t58.5 -10q24 0 45 5.5t39.5 17t33.5 28.5l40 -39
q-19 -23 -43.5 -39t-53.5 -23.5t-63 -7.5zM121 274h251q0 32 -8.5 57.5t-24 44t-37 28t-48.5 9.5q-24 0 -45.5 -8t-39.5 -25.5t-30.5 -43.5t-17.5 -62zM345 630q0 -21 -8.5 -32.5t-19.5 -19.5t-19.5 -18.5t-8.5 -29.5v-7h-51v28q0 13 8 23t18 19t18 17.5t8 17.5q0 14 -9 21
t-22 7t-25.5 -6t-18.5 -26l-37 38q18 23 38.5 32.5t47.5 9.5q22 0 40.5 -9t29.5 -25.5t11 -39.5z" />
    <glyph glyph-name="uni1EBC" unicode="&#x1ebc;" 
d="M59 0v624h382v-62h-316v-205h261v-64h-261v-231h313v-62h-379zM388 791l46 -28q-22 -42 -42.5 -58.5t-50.5 -16.5q-22 0 -39.5 8t-32 19t-29 19t-31.5 8t-30.5 -10t-25.5 -37l-49 22q14 34 39 57t64 23q22 0 38.5 -8t30.5 -19t28.5 -19t32.5 -8q16 0 26.5 10t24.5 38z
" />
    <glyph glyph-name="uni1EBD" unicode="&#x1ebd;" 
d="M272 -10q-50 0 -91 15.5t-70.5 45.5t-45.5 74.5t-16 101.5q0 58 16.5 103t45 75.5t67 46.5t81.5 16q39 0 73 -13t59 -39.5t39.5 -67.5t14.5 -97q0 -8 -0.5 -16.5t-1.5 -16.5h-325q2 -44 15 -76.5t34 -53t48.5 -30.5t58.5 -10q24 0 45 5.5t39.5 17t33.5 28.5l40 -39
q-19 -23 -43.5 -39t-53.5 -23.5t-63 -7.5zM121 274h251q0 32 -8.5 57.5t-24 44t-37 28t-48.5 9.5q-24 0 -45.5 -8t-39.5 -25.5t-30.5 -43.5t-17.5 -62zM385 677l46 -28q-22 -42 -42.5 -58.5t-50.5 -16.5q-22 0 -39.5 8t-32 19t-29 19t-31.5 8t-30.5 -10t-25.5 -37l-49 22
q14 34 39 57t64 23q22 0 38.5 -8t30.5 -19t28.5 -19t32.5 -8q16 0 26.5 10t24.5 38z" />
    <glyph glyph-name="uni1EBE" unicode="&#x1ebe;" 
d="M59 0v624h382v-62h-316v-205h261v-64h-261v-231h313v-62h-379zM133 655l-33 38l143 98h22l151 -99l-30 -36l-130 70zM378 766l-23 42l152 89l40 -70z" />
    <glyph glyph-name="uni1EBF" unicode="&#x1ebf;" 
d="M272 -10q-50 0 -91 15.5t-70.5 45.5t-45.5 74.5t-16 101.5q0 58 16.5 103t45 75.5t67 46.5t81.5 16q39 0 73 -13t59 -39.5t39.5 -67.5t14.5 -97q0 -8 -0.5 -16.5t-1.5 -16.5h-325q2 -44 15 -76.5t34 -53t48.5 -30.5t58.5 -10q24 0 45 5.5t39.5 17t33.5 28.5l40 -39
q-19 -23 -43.5 -39t-53.5 -23.5t-63 -7.5zM121 274h251q0 32 -8.5 57.5t-24 44t-37 28t-48.5 9.5q-24 0 -45.5 -8t-39.5 -25.5t-30.5 -43.5t-17.5 -62zM149 511l-40 34l139 140h24l139 -140l-40 -34l-111 110zM395 631l-38 26l84 149l55 -40z" />
    <glyph glyph-name="uni1EC0" unicode="&#x1ec0;" 
d="M59 0v624h382v-62h-316v-205h261v-64h-261v-231h313v-62h-379zM134 655l-33 38l143 98h22l151 -99l-30 -36l-130 70zM316 798l-170 61l40 70l153 -89z" />
    <glyph glyph-name="uni1EC1" unicode="&#x1ec1;" 
d="M272 -10q-50 0 -91 15.5t-70.5 45.5t-45.5 74.5t-16 101.5q0 58 16.5 103t45 75.5t67 46.5t81.5 16q39 0 73 -13t59 -39.5t39.5 -67.5t14.5 -97q0 -8 -0.5 -16.5t-1.5 -16.5h-325q2 -44 15 -76.5t34 -53t48.5 -30.5t58.5 -10q24 0 45 5.5t39.5 17t33.5 28.5l40 -39
q-19 -23 -43.5 -39t-53.5 -23.5t-63 -7.5zM121 274h251q0 32 -8.5 57.5t-24 44t-37 28t-48.5 9.5q-24 0 -45.5 -8t-39.5 -25.5t-30.5 -43.5t-17.5 -62zM151 511l-40 34l139 140h24l139 -140l-40 -34l-111 110zM389 652l-101 135l55 40l84 -149z" />
    <glyph glyph-name="uni1EC2" unicode="&#x1ec2;" 
d="M59 0v624h382v-62h-316v-205h261v-64h-261v-231h313v-62h-379zM130 655l-33 38l143 98h22l151 -99l-30 -36l-130 70zM459 856q0 -21 -8.5 -32.5t-19.5 -19.5t-19.5 -18.5t-8.5 -29.5v-7h-51v28q0 13 8 23t18 19t18 17.5t8 17.5q0 14 -9 21t-22 7t-25.5 -6t-18.5 -26
l-37 38q18 23 38.5 32.5t47.5 9.5q22 0 40.5 -9t29.5 -25.5t11 -39.5z" />
    <glyph glyph-name="uni1EC3" unicode="&#x1ec3;" 
d="M272 -10q-50 0 -91 15.5t-70.5 45.5t-45.5 74.5t-16 101.5q0 58 16.5 103t45 75.5t67 46.5t81.5 16q39 0 73 -13t59 -39.5t39.5 -67.5t14.5 -97q0 -8 -0.5 -16.5t-1.5 -16.5h-325q2 -44 15 -76.5t34 -53t48.5 -30.5t58.5 -10q24 0 45 5.5t39.5 17t33.5 28.5l40 -39
q-19 -23 -43.5 -39t-53.5 -23.5t-63 -7.5zM121 274h251q0 32 -8.5 57.5t-24 44t-37 28t-48.5 9.5q-24 0 -45.5 -8t-39.5 -25.5t-30.5 -43.5t-17.5 -62zM150 511l-40 34l139 140h24l139 -140l-40 -34l-111 110zM466 730q0 -21 -8.5 -32.5t-19.5 -19.5t-19.5 -18.5t-8.5 -29.5
v-7h-51v28q0 13 8 23t18 19t18 17.5t8 17.5q0 14 -9 21t-22 7t-25.5 -6t-18.5 -26l-37 38q18 23 38.5 32.5t47.5 9.5q22 0 40.5 -9t29.5 -25.5t11 -39.5z" />
    <glyph glyph-name="uni1EC4" unicode="&#x1ec4;" 
d="M59 0v624h382v-62h-316v-205h261v-64h-261v-231h313v-62h-379zM134 655l-33 38l143 98h22l151 -99l-30 -36l-130 70zM356 921l46 -22q-19 -42 -39 -58.5t-46 -16.5q-18 0 -33 8t-28 19t-25 19t-24 8q-13 0 -25 -10.5t-20 -31.5l-46 22q11 34 35.5 54.5t49.5 20.5
q18 0 34.5 -8t31 -19t27 -19t23.5 -8t20.5 10t18.5 32z" />
    <glyph glyph-name="uni1EC5" unicode="&#x1ec5;" 
d="M272 -10q-50 0 -91 15.5t-70.5 45.5t-45.5 74.5t-16 101.5q0 58 16.5 103t45 75.5t67 46.5t81.5 16q39 0 73 -13t59 -39.5t39.5 -67.5t14.5 -97q0 -8 -0.5 -16.5t-1.5 -16.5h-325q2 -44 15 -76.5t34 -53t48.5 -30.5t58.5 -10q24 0 45 5.5t39.5 17t33.5 28.5l40 -39
q-19 -23 -43.5 -39t-53.5 -23.5t-63 -7.5zM121 274h251q0 32 -8.5 57.5t-24 44t-37 28t-48.5 9.5q-24 0 -45.5 -8t-39.5 -25.5t-30.5 -43.5t-17.5 -62zM150 511l-40 34l139 140h24l139 -140l-40 -34l-111 110zM359 812l46 -22q-19 -42 -39 -58.5t-46 -16.5q-18 0 -33 8
t-28 19t-25 19t-24 8q-13 0 -25 -10.5t-20 -31.5l-46 22q11 34 35.5 54.5t49.5 20.5q18 0 34.5 -8t31 -19t27 -19t23.5 -8t20.5 10t18.5 32z" />
    <glyph glyph-name="uni1EC6" unicode="&#x1ec6;" 
d="M59 0v624h382v-62h-316v-205h261v-64h-261v-231h313v-62h-379zM249 -147q-21 0 -36 15t-15 36q0 22 14.5 37t36.5 15q21 0 36.5 -15.5t15.5 -36.5t-15.5 -36t-36.5 -15zM134 655l-33 38l143 98h22l151 -99l-30 -36l-130 70z" />
    <glyph glyph-name="uni1EC7" unicode="&#x1ec7;" 
d="M272 -10q-50 0 -91 15.5t-70.5 45.5t-45.5 74.5t-16 101.5q0 58 16.5 103t45 75.5t67 46.5t81.5 16q39 0 73 -13t59 -39.5t39.5 -67.5t14.5 -97q0 -8 -0.5 -16.5t-1.5 -16.5h-325q2 -44 15 -76.5t34 -53t48.5 -30.5t58.5 -10q24 0 45 5.5t39.5 17t33.5 28.5l40 -39
q-19 -23 -43.5 -39t-53.5 -23.5t-63 -7.5zM121 274h251q0 32 -8.5 57.5t-24 44t-37 28t-48.5 9.5q-24 0 -45.5 -8t-39.5 -25.5t-30.5 -43.5t-17.5 -62zM279 -147q-21 0 -36 15t-15 36q0 22 14.5 37t36.5 15q21 0 36.5 -15.5t15.5 -36.5t-15.5 -36t-36.5 -15zM149 511l-40 34
l139 140h24l139 -140l-40 -34l-111 110z" />
    <glyph glyph-name="uni1EC8" unicode="&#x1ec8;" 
d="M81 0v59h123v505h-116v59h309v-59h-123v-506h129v-58h-322zM324 796q0 -21 -8.5 -32.5t-19.5 -19.5t-19.5 -18.5t-8.5 -29.5v-7h-51v28q0 13 8 23t18 19t18 17.5t8 17.5q0 14 -9 21t-22 7t-25.5 -6t-18.5 -26l-37 38q18 23 38.5 32.5t47.5 9.5q22 0 40.5 -9t29.5 -25.5
t11 -39.5z" />
    <glyph glyph-name="uni1EC9" unicode="&#x1ec9;" 
d="M100 0v58h117v341h-111v58h183v-399h107v-58h-296zM335 630q0 -21 -8.5 -32.5t-19.5 -19.5t-19.5 -18.5t-8.5 -29.5v-7h-51v28q0 13 8 23t18 19t18 17.5t8 17.5q0 14 -9 21t-22 7t-25.5 -6t-18.5 -26l-37 38q18 23 38.5 32.5t47.5 9.5q22 0 40.5 -9t29.5 -25.5t11 -39.5z
" />
    <glyph glyph-name="uni1ECA" unicode="&#x1eca;" 
d="M81 0v59h123v505h-116v59h309v-59h-123v-506h129v-58h-322zM249 -147q-21 0 -36 15t-15 36q0 22 14.5 37t36.5 15q21 0 36.5 -15.5t15.5 -36.5t-15.5 -36t-36.5 -15z" />
    <glyph glyph-name="uni1ECB" unicode="&#x1ecb;" 
d="M100 0v58h117v341h-111v58h183v-399h107v-58h-296zM249 553q-21 0 -36 15t-15 36q0 22 14.5 37t36.5 15q21 0 36.5 -15.5t15.5 -36.5t-15.5 -36t-36.5 -15zM249 -147q-21 0 -36 15t-15 36q0 22 14.5 37t36.5 15q21 0 36.5 -15.5t15.5 -36.5t-15.5 -36t-36.5 -15z" />
    <glyph glyph-name="uni1ECC" unicode="&#x1ecc;" 
d="M250 -11q-71 0 -121 37t-76 108.5t-26 173.5q0 99 26 170.5t76 110t121 38.5q72 0 121.5 -38.5t75.5 -110t26 -170.5q0 -102 -26 -173.5t-75.5 -108.5t-121.5 -37zM250 50q48 0 81.5 30t51.5 87.5t18 140.5q0 79 -18 136.5t-51.5 89.5t-81.5 32q-47 0 -81 -32t-52 -89.5
t-18 -136.5q0 -83 18 -140.5t52 -87.5t81 -30zM249 -147q-21 0 -36 15t-15 36q0 22 14.5 37t36.5 15q21 0 36.5 -15.5t15.5 -36.5t-15.5 -36t-36.5 -15z" />
    <glyph glyph-name="uni1ECD" unicode="&#x1ecd;" 
d="M250 -8q-62 0 -109.5 30.5t-74.5 84t-27 122.5q0 70 27 123.5t74.5 84t109.5 30.5t109.5 -30.5t74.5 -84t27 -123.5q0 -69 -27 -122.5t-74.5 -84t-109.5 -30.5zM250 52q40 0 70 23t47.5 63t17.5 92t-17.5 92t-47.5 62.5t-70 22.5q-39 0 -69.5 -22.5t-48 -62.5t-17.5 -92
t17.5 -92t48 -63t69.5 -23zM249 -147q-21 0 -36 15t-15 36q0 22 14.5 37t36.5 15q21 0 36.5 -15.5t15.5 -36.5t-15.5 -36t-36.5 -15z" />
    <glyph glyph-name="uni1ECE" unicode="&#x1ece;" 
d="M250 -11q-71 0 -121 37t-76 108.5t-26 173.5q0 99 26 170.5t76 110t121 38.5q72 0 121.5 -38.5t75.5 -110t26 -170.5q0 -102 -26 -173.5t-75.5 -108.5t-121.5 -37zM250 50q48 0 81.5 30t51.5 87.5t18 140.5q0 79 -18 136.5t-51.5 89.5t-81.5 32q-47 0 -81 -32t-52 -89.5
t-18 -136.5q0 -83 18 -140.5t52 -87.5t81 -30zM335 796q0 -21 -8.5 -32.5t-19.5 -19.5t-19.5 -18.5t-8.5 -29.5v-7h-51v28q0 13 8 23t18 19t18 17.5t8 17.5q0 14 -9 21t-22 7t-25.5 -6t-18.5 -26l-37 38q18 23 38.5 32.5t47.5 9.5q22 0 40.5 -9t29.5 -25.5t11 -39.5z" />
    <glyph glyph-name="uni1ECF" unicode="&#x1ecf;" 
d="M250 -8q-62 0 -109.5 30.5t-74.5 84t-27 122.5q0 70 27 123.5t74.5 84t109.5 30.5t109.5 -30.5t74.5 -84t27 -123.5q0 -69 -27 -122.5t-74.5 -84t-109.5 -30.5zM250 52q40 0 70 23t47.5 63t17.5 92t-17.5 92t-47.5 62.5t-70 22.5q-39 0 -69.5 -22.5t-48 -62.5t-17.5 -92
t17.5 -92t48 -63t69.5 -23zM335 630q0 -21 -8.5 -32.5t-19.5 -19.5t-19.5 -18.5t-8.5 -29.5v-7h-51v28q0 13 8 23t18 19t18 17.5t8 17.5q0 14 -9 21t-22 7t-25.5 -6t-18.5 -26l-37 38q18 23 38.5 32.5t47.5 9.5q22 0 40.5 -9t29.5 -25.5t11 -39.5z" />
    <glyph glyph-name="uni1ED0" unicode="&#x1ed0;" 
d="M250 -11q-71 0 -121 37t-76 108.5t-26 173.5q0 99 26 170.5t76 110t121 38.5q72 0 121.5 -38.5t75.5 -110t26 -170.5q0 -102 -26 -173.5t-75.5 -108.5t-121.5 -37zM250 50q48 0 81.5 30t51.5 87.5t18 140.5q0 79 -18 136.5t-51.5 89.5t-81.5 32q-47 0 -81 -32t-52 -89.5
t-18 -136.5q0 -83 18 -140.5t52 -87.5t81 -30zM124 655l-33 38l143 98h22l151 -99l-30 -36l-130 70zM369 766l-23 42l152 89l40 -70z" />
    <glyph glyph-name="uni1ED1" unicode="&#x1ed1;" 
d="M250 -8q-62 0 -109.5 30.5t-74.5 84t-27 122.5q0 70 27 123.5t74.5 84t109.5 30.5t109.5 -30.5t74.5 -84t27 -123.5q0 -69 -27 -122.5t-74.5 -84t-109.5 -30.5zM250 52q40 0 70 23t47.5 63t17.5 92t-17.5 92t-47.5 62.5t-70 22.5q-39 0 -69.5 -22.5t-48 -62.5t-17.5 -92
t17.5 -92t48 -63t69.5 -23zM139 511l-40 34l139 140h24l139 -140l-40 -34l-111 110zM385 631l-38 26l84 149l55 -40z" />
    <glyph glyph-name="uni1ED2" unicode="&#x1ed2;" 
d="M250 -11q-71 0 -121 37t-76 108.5t-26 173.5q0 99 26 170.5t76 110t121 38.5q72 0 121.5 -38.5t75.5 -110t26 -170.5q0 -102 -26 -173.5t-75.5 -108.5t-121.5 -37zM250 50q48 0 81.5 30t51.5 87.5t18 140.5q0 79 -18 136.5t-51.5 89.5t-81.5 32q-47 0 -81 -32t-52 -89.5
t-18 -136.5q0 -83 18 -140.5t52 -87.5t81 -30zM125 655l-33 38l143 98h22l151 -99l-30 -36l-130 70zM307 798l-170 61l40 70l153 -89z" />
    <glyph glyph-name="uni1ED3" unicode="&#x1ed3;" 
d="M250 -8q-62 0 -109.5 30.5t-74.5 84t-27 122.5q0 70 27 123.5t74.5 84t109.5 30.5t109.5 -30.5t74.5 -84t27 -123.5q0 -69 -27 -122.5t-74.5 -84t-109.5 -30.5zM250 52q40 0 70 23t47.5 63t17.5 92t-17.5 92t-47.5 62.5t-70 22.5q-39 0 -69.5 -22.5t-48 -62.5t-17.5 -92
t17.5 -92t48 -63t69.5 -23zM141 511l-40 34l139 140h24l139 -140l-40 -34l-111 110zM379 652l-101 135l55 40l84 -149z" />
    <glyph glyph-name="uni1ED4" unicode="&#x1ed4;" 
d="M250 -11q-71 0 -121 37t-76 108.5t-26 173.5q0 99 26 170.5t76 110t121 38.5q72 0 121.5 -38.5t75.5 -110t26 -170.5q0 -102 -26 -173.5t-75.5 -108.5t-121.5 -37zM250 50q48 0 81.5 30t51.5 87.5t18 140.5q0 79 -18 136.5t-51.5 89.5t-81.5 32q-47 0 -81 -32t-52 -89.5
t-18 -136.5q0 -83 18 -140.5t52 -87.5t81 -30zM121 655l-33 38l143 98h22l151 -99l-30 -36l-130 70zM450 856q0 -21 -8.5 -32.5t-19.5 -19.5t-19.5 -18.5t-8.5 -29.5v-7h-51v28q0 13 8 23t18 19t18 17.5t8 17.5q0 14 -9 21t-22 7t-25.5 -6t-18.5 -26l-37 38q18 23 38.5 32.5
t47.5 9.5q22 0 40.5 -9t29.5 -25.5t11 -39.5z" />
    <glyph glyph-name="uni1ED5" unicode="&#x1ed5;" 
d="M250 -8q-62 0 -109.5 30.5t-74.5 84t-27 122.5q0 70 27 123.5t74.5 84t109.5 30.5t109.5 -30.5t74.5 -84t27 -123.5q0 -69 -27 -122.5t-74.5 -84t-109.5 -30.5zM250 52q40 0 70 23t47.5 63t17.5 92t-17.5 92t-47.5 62.5t-70 22.5q-39 0 -69.5 -22.5t-48 -62.5t-17.5 -92
t17.5 -92t48 -63t69.5 -23zM140 511l-40 34l139 140h24l139 -140l-40 -34l-111 110zM456 730q0 -21 -8.5 -32.5t-19.5 -19.5t-19.5 -18.5t-8.5 -29.5v-7h-51v28q0 13 8 23t18 19t18 17.5t8 17.5q0 14 -9 21t-22 7t-25.5 -6t-18.5 -26l-37 38q18 23 38.5 32.5t47.5 9.5
q22 0 40.5 -9t29.5 -25.5t11 -39.5z" />
    <glyph glyph-name="uni1ED6" unicode="&#x1ed6;" 
d="M250 -11q-71 0 -121 37t-76 108.5t-26 173.5q0 99 26 170.5t76 110t121 38.5q72 0 121.5 -38.5t75.5 -110t26 -170.5q0 -102 -26 -173.5t-75.5 -108.5t-121.5 -37zM250 50q48 0 81.5 30t51.5 87.5t18 140.5q0 79 -18 136.5t-51.5 89.5t-81.5 32q-47 0 -81 -32t-52 -89.5
t-18 -136.5q0 -83 18 -140.5t52 -87.5t81 -30zM125 655l-33 38l143 98h22l151 -99l-30 -36l-130 70zM347 921l46 -22q-19 -42 -39 -58.5t-46 -16.5q-18 0 -33 8t-28 19t-25 19t-24 8q-13 0 -25 -10.5t-20 -31.5l-46 22q11 34 35.5 54.5t49.5 20.5q18 0 34.5 -8t31 -19
t27 -19t23.5 -8t20.5 10t18.5 32z" />
    <glyph glyph-name="uni1ED7" unicode="&#x1ed7;" 
d="M250 -8q-62 0 -109.5 30.5t-74.5 84t-27 122.5q0 70 27 123.5t74.5 84t109.5 30.5t109.5 -30.5t74.5 -84t27 -123.5q0 -69 -27 -122.5t-74.5 -84t-109.5 -30.5zM250 52q40 0 70 23t47.5 63t17.5 92t-17.5 92t-47.5 62.5t-70 22.5q-39 0 -69.5 -22.5t-48 -62.5t-17.5 -92
t17.5 -92t48 -63t69.5 -23zM140 511l-40 34l139 140h24l139 -140l-40 -34l-111 110zM349 812l46 -22q-19 -42 -39 -58.5t-46 -16.5q-18 0 -33 8t-28 19t-25 19t-24 8q-13 0 -25 -10.5t-20 -31.5l-46 22q11 34 35.5 54.5t49.5 20.5q18 0 34.5 -8t31 -19t27 -19t23.5 -8
t20.5 10t18.5 32z" />
    <glyph glyph-name="uni1ED8" unicode="&#x1ed8;" 
d="M250 -11q-71 0 -121 37t-76 108.5t-26 173.5q0 99 26 170.5t76 110t121 38.5q72 0 121.5 -38.5t75.5 -110t26 -170.5q0 -102 -26 -173.5t-75.5 -108.5t-121.5 -37zM250 50q48 0 81.5 30t51.5 87.5t18 140.5q0 79 -18 136.5t-51.5 89.5t-81.5 32q-47 0 -81 -32t-52 -89.5
t-18 -136.5q0 -83 18 -140.5t52 -87.5t81 -30zM249 -147q-21 0 -36 15t-15 36q0 22 14.5 37t36.5 15q21 0 36.5 -15.5t15.5 -36.5t-15.5 -36t-36.5 -15zM125 655l-33 38l143 98h22l151 -99l-30 -36l-130 70z" />
    <glyph glyph-name="uni1ED9" unicode="&#x1ed9;" 
d="M250 -8q-62 0 -109.5 30.5t-74.5 84t-27 122.5q0 70 27 123.5t74.5 84t109.5 30.5t109.5 -30.5t74.5 -84t27 -123.5q0 -69 -27 -122.5t-74.5 -84t-109.5 -30.5zM250 52q40 0 70 23t47.5 63t17.5 92t-17.5 92t-47.5 62.5t-70 22.5q-39 0 -69.5 -22.5t-48 -62.5t-17.5 -92
t17.5 -92t48 -63t69.5 -23zM249 -147q-21 0 -36 15t-15 36q0 22 14.5 37t36.5 15q21 0 36.5 -15.5t15.5 -36.5t-15.5 -36t-36.5 -15zM139 511l-40 34l139 140h24l139 -140l-40 -34l-111 110z" />
    </font>
</defs>
</svg>
