<svg viewBox="0 0 260 320" focusable="false" xmlns="http://www.w3.org/2000/svg"><defs><linearGradient id="festival-term-jingzhe-gold" x1="0" y1="0" x2="1" y2="1"><stop stop-color="#fff0bd"></stop><stop offset=".34" stop-color="#dec180"></stop><stop offset=".68" stop-color="#ae8044"></stop><stop offset="1" stop-color="#edce91"></stop></linearGradient><linearGradient id="festival-term-jingzhe-leaf" x1="0" y1="0" x2="1" y2="1"><stop stop-color="#abcaa0"></stop><stop offset=".43" stop-color="#689c7c"></stop><stop offset="1" stop-color="#2d6259"></stop></linearGradient><linearGradient id="festival-term-jingzhe-pink" x1="0" y1="0" x2=".7" y2="1"><stop stop-color="#fff2e8"></stop><stop offset=".48" stop-color="#f3bcb7"></stop><stop offset="1" stop-color="#c56a74"></stop></linearGradient><linearGradient id="festival-term-jingzhe-ivory" x1="0" y1="0" x2="1" y2="1"><stop stop-color="#fffdf0"></stop><stop offset=".6" stop-color="#eee7cd"></stop><stop offset="1" stop-color="#b9c4b0"></stop></linearGradient><radialGradient id="festival-term-jingzhe-red" cx=".3" cy=".25" r=".8"><stop stop-color="#eb8a68"></stop><stop offset=".45" stop-color="#c34e3f"></stop><stop offset="1" stop-color="#842d35"></stop></radialGradient><radialGradient id="festival-term-jingzhe-orange" cx=".3" cy=".2" r=".8"><stop stop-color="#f7c473"></stop><stop offset=".45" stop-color="#e48d42"></stop><stop offset="1" stop-color="#b8512d"></stop></radialGradient><linearGradient id="festival-term-jingzhe-jade" x1="0" y1="0" x2="1" y2=".6"><stop stop-color="#d8e9db"></stop><stop offset=".45" stop-color="#98b9ae"></stop><stop offset="1" stop-color="#507f7c"></stop></linearGradient><linearGradient id="festival-term-jingzhe-water" x1="0" y1="0" x2=".8" y2="1"><stop stop-color="#e3f5ee" stop-opacity=".85"></stop><stop offset=".55" stop-color="#a2cbd0" stop-opacity=".7"></stop><stop offset="1" stop-color="#527f96" stop-opacity=".9"></stop></linearGradient></defs><g><g class="festival-depth festival-botanical-breathe"><path d="M244 66q-38 33-58 85t-83 76m88-79 32 3m-51 23-24-20" fill="none" stroke="#806e54" stroke-width="3" stroke-linecap="round"></path><g transform="translate(191 130) rotate(-20) scale(0.85)"><path d="M0 12Q-40-5-34-39-7-36 0 12M0 12Q40-5 34-39 7-36 0 12" fill="url(#festival-term-jingzhe-pink)" stroke="#c89da0" stroke-width=".8"></path><path d="M0 12Q-25-22 0-61 25-22 0 12Z" fill="url(#festival-term-jingzhe-ivory)" stroke="#d0c9b5" stroke-width=".8"></path><path d="M0 6 0-42m-4 45-20-30m30 27 17-27" fill="none" stroke="#e3b5ad" stroke-width=".8"></path></g><g transform="translate(225 81) rotate(20) scale(0.63)"><path d="M0 12Q-40-5-34-39-7-36 0 12M0 12Q40-5 34-39 7-36 0 12" fill="url(#festival-term-jingzhe-pink)" stroke="#c89da0" stroke-width=".8"></path><path d="M0 12Q-25-22 0-61 25-22 0 12Z" fill="url(#festival-term-jingzhe-ivory)" stroke="#d0c9b5" stroke-width=".8"></path><path d="M0 6 0-42m-4 45-20-30m30 27 17-27" fill="none" stroke="#e3b5ad" stroke-width=".8"></path></g><g transform="translate(142 163) rotate(-28) scale(0.57)"><path d="M0 12Q-40-5-34-39-7-36 0 12M0 12Q40-5 34-39 7-36 0 12" fill="url(#festival-term-jingzhe-pink)" stroke="#c89da0" stroke-width=".8"></path><path d="M0 12Q-25-22 0-61 25-22 0 12Z" fill="url(#festival-term-jingzhe-ivory)" stroke="#d0c9b5" stroke-width=".8"></path><path d="M0 6 0-42m-4 45-20-30m30 27 17-27" fill="none" stroke="#e3b5ad" stroke-width=".8"></path></g><g transform="translate(172 178) rotate(43) scale(0.6)"><g class="festival-foliage-breathe"><path d="M0 0C-15-12-16-31-5-47 12-37 20-15 0 0Z" fill="url(#festival-term-jingzhe-leaf)" stroke="#59866d" stroke-width=".65"></path><path d="M0-2-5-42M-1-13-10-21m10 2 8-8M-3-28-10-32m7 5 9-10" fill="none" stroke="#d4ddb0" stroke-width=".8" opacity=".7"></path></g></g><path d="m117 62-12 18h12l-9 17m-13-34-8 6m40 15 8 3" fill="none" stroke="url(#festival-term-jingzhe-gold)" stroke-width="1.4" stroke-linecap="round" stroke-linejoin="round"></path><g transform="translate(106 223) rotate(-25)"><ellipse cy="-4" rx="9" ry="15" fill="url(#festival-term-jingzhe-leaf)" stroke="#648e70" stroke-width=".8"></ellipse><path d="M0-18v28m-5-16-11-7m21 7 11-7m-20 18-11 5m19-5 11 5m-17-27-5-7m15 7 5-7" fill="none" stroke="#657e5e" stroke-width="1"></path><circle cy="-19" r="4" fill="#73835b"></circle></g></g><text data-festival-label="" x="90" y="123" text-anchor="middle" dominant-baseline="central" font-family="KaiTi, STKaiti, &quot;Noto Serif CJK SC&quot;, serif" font-size="11.5" font-weight="500" letter-spacing=".8" fill="#93684e" stroke="#f9f0dc" stroke-width=".4" paint-order="stroke fill" stroke-linejoin="round">惊蛰</text></g></svg>