<svg viewBox="0 0 260 320" focusable="false" xmlns="http://www.w3.org/2000/svg"><defs><linearGradient id="festival-term-lidong-gold" x1="0" y1="0" x2="1" y2="1"><stop stop-color="#fff0bd"></stop><stop offset=".34" stop-color="#dec180"></stop><stop offset=".68" stop-color="#ae8044"></stop><stop offset="1" stop-color="#edce91"></stop></linearGradient><linearGradient id="festival-term-lidong-leaf" x1="0" y1="0" x2="1" y2="1"><stop stop-color="#abcaa0"></stop><stop offset=".43" stop-color="#689c7c"></stop><stop offset="1" stop-color="#2d6259"></stop></linearGradient><linearGradient id="festival-term-lidong-pink" x1="0" y1="0" x2=".7" y2="1"><stop stop-color="#fff2e8"></stop><stop offset=".48" stop-color="#f3bcb7"></stop><stop offset="1" stop-color="#c56a74"></stop></linearGradient><linearGradient id="festival-term-lidong-ivory" x1="0" y1="0" x2="1" y2="1"><stop stop-color="#fffdf0"></stop><stop offset=".6" stop-color="#eee7cd"></stop><stop offset="1" stop-color="#b9c4b0"></stop></linearGradient><radialGradient id="festival-term-lidong-red" cx=".3" cy=".25" r=".8"><stop stop-color="#eb8a68"></stop><stop offset=".45" stop-color="#c34e3f"></stop><stop offset="1" stop-color="#842d35"></stop></radialGradient><radialGradient id="festival-term-lidong-orange" cx=".3" cy=".2" r=".8"><stop stop-color="#f7c473"></stop><stop offset=".45" stop-color="#e48d42"></stop><stop offset="1" stop-color="#b8512d"></stop></radialGradient><linearGradient id="festival-term-lidong-jade" x1="0" y1="0" x2="1" y2=".6"><stop stop-color="#d8e9db"></stop><stop offset=".45" stop-color="#98b9ae"></stop><stop offset="1" stop-color="#507f7c"></stop></linearGradient><linearGradient id="festival-term-lidong-water" x1="0" y1="0" x2=".8" y2="1"><stop stop-color="#e3f5ee" stop-opacity=".85"></stop><stop offset=".55" stop-color="#a2cbd0" stop-opacity=".7"></stop><stop offset="1" stop-color="#527f96" stop-opacity=".9"></stop></linearGradient></defs><g><g class="festival-depth festival-botanical-breathe"><path d="M246 72q-54 40-92 170m32-85-51-16m40 44 45 5" stroke="#7d7157" stroke-width="3" fill="none"></path><g transform="translate(207 123) rotate(38) scale(1)"><g class="festival-foliage-breathe"><path d="M0 0C-15-12-16-31-5-47 12-37 20-15 0 0Z" fill="url(#festival-term-lidong-leaf)" stroke="#59866d" stroke-width=".65"></path><path d="M0-2-5-42M-1-13-10-21m10 2 8-8M-3-28-10-32m7 5 9-10" fill="none" stroke="#d4ddb0" stroke-width=".8" opacity=".7"></path></g></g><g transform="translate(178 169) rotate(-52) scale(0.95)"><g class="festival-foliage-breathe"><path d="M0 0C-15-12-16-31-5-47 12-37 20-15 0 0Z" fill="url(#festival-term-lidong-leaf)" stroke="#59866d" stroke-width=".65"></path><path d="M0-2-5-42M-1-13-10-21m10 2 8-8M-3-28-10-32m7 5 9-10" fill="none" stroke="#d4ddb0" stroke-width=".8" opacity=".7"></path></g></g><g transform="translate(175 201) rotate(65) scale(0.89)"><g class="festival-foliage-breathe"><path d="M0 0C-15-12-16-31-5-47 12-37 20-15 0 0Z" fill="url(#festival-term-lidong-leaf)" stroke="#59866d" stroke-width=".65"></path><path d="M0-2-5-42M-1-13-10-21m10 2 8-8M-3-28-10-32m7 5 9-10" fill="none" stroke="#d4ddb0" stroke-width=".8" opacity=".7"></path></g></g><g transform="translate(151 232) rotate(-35) scale(0.74)"><g class="festival-foliage-breathe"><path d="M0 0C-15-12-16-31-5-47 12-37 20-15 0 0Z" fill="url(#festival-term-lidong-leaf)" stroke="#59866d" stroke-width=".65"></path><path d="M0-2-5-42M-1-13-10-21m10 2 8-8M-3-28-10-32m7 5 9-10" fill="none" stroke="#d4ddb0" stroke-width=".8" opacity=".7"></path></g></g><g transform="translate(198 148)"><g transform="translate(0 0) scale(1.35)"><g transform="rotate(0)"><path d="M0 1C-14-5-14-20-5-23 0-25 4-23 7-18 14-8 8-1 0 1Z" fill="url(#festival-term-lidong-red)" stroke="#b55551" stroke-width=".7"></path><path d="M0-3q-4-8-4-14" stroke="#fff1d5" stroke-width=".7" fill="none" opacity=".65"></path></g><g transform="rotate(72)"><path d="M0 1C-14-5-14-20-5-23 0-25 4-23 7-18 14-8 8-1 0 1Z" fill="url(#festival-term-lidong-red)" stroke="#b55551" stroke-width=".7"></path><path d="M0-3q-4-8-4-14" stroke="#fff1d5" stroke-width=".7" fill="none" opacity=".65"></path></g><g transform="rotate(144)"><path d="M0 1C-14-5-14-20-5-23 0-25 4-23 7-18 14-8 8-1 0 1Z" fill="url(#festival-term-lidong-red)" stroke="#b55551" stroke-width=".7"></path><path d="M0-3q-4-8-4-14" stroke="#fff1d5" stroke-width=".7" fill="none" opacity=".65"></path></g><g transform="rotate(216)"><path d="M0 1C-14-5-14-20-5-23 0-25 4-23 7-18 14-8 8-1 0 1Z" fill="url(#festival-term-lidong-red)" stroke="#b55551" stroke-width=".7"></path><path d="M0-3q-4-8-4-14" stroke="#fff1d5" stroke-width=".7" fill="none" opacity=".65"></path></g><g transform="rotate(288)"><path d="M0 1C-14-5-14-20-5-23 0-25 4-23 7-18 14-8 8-1 0 1Z" fill="url(#festival-term-lidong-red)" stroke="#b55551" stroke-width=".7"></path><path d="M0-3q-4-8-4-14" stroke="#fff1d5" stroke-width=".7" fill="none" opacity=".65"></path></g><circle r="4" fill="#d6aa62"></circle><g transform="rotate(0)" stroke="#9a7441" stroke-width=".65"><path d="M0-2v-7"></path><circle cy="-9" r="1.25" fill="#f6d28b" stroke="none"></circle></g><g transform="rotate(60)" stroke="#9a7441" stroke-width=".65"><path d="M0-2v-7"></path><circle cy="-9" r="1.25" fill="#f6d28b" stroke="none"></circle></g><g transform="rotate(120)" stroke="#9a7441" stroke-width=".65"><path d="M0-2v-7"></path><circle cy="-9" r="1.25" fill="#f6d28b" stroke="none"></circle></g><g transform="rotate(180)" stroke="#9a7441" stroke-width=".65"><path d="M0-2v-7"></path><circle cy="-9" r="1.25" fill="#f6d28b" stroke="none"></circle></g><g transform="rotate(240)" stroke="#9a7441" stroke-width=".65"><path d="M0-2v-7"></path><circle cy="-9" r="1.25" fill="#f6d28b" stroke="none"></circle></g><g transform="rotate(300)" stroke="#9a7441" stroke-width=".65"><path d="M0-2v-7"></path><circle cy="-9" r="1.25" fill="#f6d28b" stroke="none"></circle></g></g><g transform="rotate(36)"><g transform="translate(0 0) scale(0.85)"><g transform="rotate(0)"><path d="M0 1C-14-5-14-20-5-23 0-25 4-23 7-18 14-8 8-1 0 1Z" fill="url(#festival-term-lidong-red)" stroke="#b55551" stroke-width=".7"></path><path d="M0-3q-4-8-4-14" stroke="#fff1d5" stroke-width=".7" fill="none" opacity=".65"></path></g><g transform="rotate(72)"><path d="M0 1C-14-5-14-20-5-23 0-25 4-23 7-18 14-8 8-1 0 1Z" fill="url(#festival-term-lidong-red)" stroke="#b55551" stroke-width=".7"></path><path d="M0-3q-4-8-4-14" stroke="#fff1d5" stroke-width=".7" fill="none" opacity=".65"></path></g><g transform="rotate(144)"><path d="M0 1C-14-5-14-20-5-23 0-25 4-23 7-18 14-8 8-1 0 1Z" fill="url(#festival-term-lidong-red)" stroke="#b55551" stroke-width=".7"></path><path d="M0-3q-4-8-4-14" stroke="#fff1d5" stroke-width=".7" fill="none" opacity=".65"></path></g><g transform="rotate(216)"><path d="M0 1C-14-5-14-20-5-23 0-25 4-23 7-18 14-8 8-1 0 1Z" fill="url(#festival-term-lidong-red)" stroke="#b55551" stroke-width=".7"></path><path d="M0-3q-4-8-4-14" stroke="#fff1d5" stroke-width=".7" fill="none" opacity=".65"></path></g><g transform="rotate(288)"><path d="M0 1C-14-5-14-20-5-23 0-25 4-23 7-18 14-8 8-1 0 1Z" fill="url(#festival-term-lidong-red)" stroke="#b55551" stroke-width=".7"></path><path d="M0-3q-4-8-4-14" stroke="#fff1d5" stroke-width=".7" fill="none" opacity=".65"></path></g><circle r="4" fill="#d6aa62"></circle><g transform="rotate(0)" stroke="#9a7441" stroke-width=".65"><path d="M0-2v-7"></path><circle cy="-9" r="1.25" fill="#f6d28b" stroke="none"></circle></g><g transform="rotate(60)" stroke="#9a7441" stroke-width=".65"><path d="M0-2v-7"></path><circle cy="-9" r="1.25" fill="#f6d28b" stroke="none"></circle></g><g transform="rotate(120)" stroke="#9a7441" stroke-width=".65"><path d="M0-2v-7"></path><circle cy="-9" r="1.25" fill="#f6d28b" stroke="none"></circle></g><g transform="rotate(180)" stroke="#9a7441" stroke-width=".65"><path d="M0-2v-7"></path><circle cy="-9" r="1.25" fill="#f6d28b" stroke="none"></circle></g><g transform="rotate(240)" stroke="#9a7441" stroke-width=".65"><path d="M0-2v-7"></path><circle cy="-9" r="1.25" fill="#f6d28b" stroke="none"></circle></g><g transform="rotate(300)" stroke="#9a7441" stroke-width=".65"><path d="M0-2v-7"></path><circle cy="-9" r="1.25" fill="#f6d28b" stroke="none"></circle></g></g></g><g transform="translate(0 0) scale(0.44)"><g transform="rotate(0)"><path d="M0 1C-14-5-14-20-5-23 0-25 4-23 7-18 14-8 8-1 0 1Z" fill="url(#festival-term-lidong-pink)" stroke="#cfaaa0" stroke-width=".7"></path><path d="M0-3q-4-8-4-14" stroke="#fff1d5" stroke-width=".7" fill="none" opacity=".65"></path></g><g transform="rotate(72)"><path d="M0 1C-14-5-14-20-5-23 0-25 4-23 7-18 14-8 8-1 0 1Z" fill="url(#festival-term-lidong-pink)" stroke="#cfaaa0" stroke-width=".7"></path><path d="M0-3q-4-8-4-14" stroke="#fff1d5" stroke-width=".7" fill="none" opacity=".65"></path></g><g transform="rotate(144)"><path d="M0 1C-14-5-14-20-5-23 0-25 4-23 7-18 14-8 8-1 0 1Z" fill="url(#festival-term-lidong-pink)" stroke="#cfaaa0" stroke-width=".7"></path><path d="M0-3q-4-8-4-14" stroke="#fff1d5" stroke-width=".7" fill="none" opacity=".65"></path></g><g transform="rotate(216)"><path d="M0 1C-14-5-14-20-5-23 0-25 4-23 7-18 14-8 8-1 0 1Z" fill="url(#festival-term-lidong-pink)" stroke="#cfaaa0" stroke-width=".7"></path><path d="M0-3q-4-8-4-14" stroke="#fff1d5" stroke-width=".7" fill="none" opacity=".65"></path></g><g transform="rotate(288)"><path d="M0 1C-14-5-14-20-5-23 0-25 4-23 7-18 14-8 8-1 0 1Z" fill="url(#festival-term-lidong-pink)" stroke="#cfaaa0" stroke-width=".7"></path><path d="M0-3q-4-8-4-14" stroke="#fff1d5" stroke-width=".7" fill="none" opacity=".65"></path></g><circle r="4" fill="#d6aa62"></circle><g transform="rotate(0)" stroke="#9a7441" stroke-width=".65"><path d="M0-2v-7"></path><circle cy="-9" r="1.25" fill="#f6d28b" stroke="none"></circle></g><g transform="rotate(60)" stroke="#9a7441" stroke-width=".65"><path d="M0-2v-7"></path><circle cy="-9" r="1.25" fill="#f6d28b" stroke="none"></circle></g><g transform="rotate(120)" stroke="#9a7441" stroke-width=".65"><path d="M0-2v-7"></path><circle cy="-9" r="1.25" fill="#f6d28b" stroke="none"></circle></g><g transform="rotate(180)" stroke="#9a7441" stroke-width=".65"><path d="M0-2v-7"></path><circle cy="-9" r="1.25" fill="#f6d28b" stroke="none"></circle></g><g transform="rotate(240)" stroke="#9a7441" stroke-width=".65"><path d="M0-2v-7"></path><circle cy="-9" r="1.25" fill="#f6d28b" stroke="none"></circle></g><g transform="rotate(300)" stroke="#9a7441" stroke-width=".65"><path d="M0-2v-7"></path><circle cy="-9" r="1.25" fill="#f6d28b" stroke="none"></circle></g></g></g><circle cx="138" cy="151" r="11" fill="url(#festival-term-lidong-red)" stroke="#8f5140" stroke-width=".8"></circle><path d="M128 154q11 7 20-2" fill="none" stroke="#77926a" stroke-width="3"></path><g transform="translate(116 103) scale(0.38)" stroke="#a7c5ca" fill="none" stroke-width="1.1" stroke-linecap="round"><path d="M0 0v-17m0 6-5-5m5 5 5-5m-5 11-4-4m4 4 4-4" transform="rotate(0)"></path><path d="M0 0v-17m0 6-5-5m5 5 5-5m-5 11-4-4m4 4 4-4" transform="rotate(60)"></path><path d="M0 0v-17m0 6-5-5m5 5 5-5m-5 11-4-4m4 4 4-4" transform="rotate(120)"></path><path d="M0 0v-17m0 6-5-5m5 5 5-5m-5 11-4-4m4 4 4-4" transform="rotate(180)"></path><path d="M0 0v-17m0 6-5-5m5 5 5-5m-5 11-4-4m4 4 4-4" transform="rotate(240)"></path><path d="M0 0v-17m0 6-5-5m5 5 5-5m-5 11-4-4m4 4 4-4" transform="rotate(300)"></path><circle r="2.5" fill="#edf7ee" stroke="none"></circle></g></g><text data-festival-label="" x="107" y="219" text-anchor="middle" dominant-baseline="central" font-family="KaiTi, STKaiti, &quot;Noto Serif CJK SC&quot;, serif" font-size="11.5" font-weight="500" letter-spacing=".8" fill="#93684e" stroke="#f9f0dc" stroke-width=".4" paint-order="stroke fill" stroke-linejoin="round">立冬</text></g></svg>