<svg viewBox="0 0 260 320" focusable="false" xmlns="http://www.w3.org/2000/svg"><defs><linearGradient id="festival-term-shuangjiang-gold" x1="0" y1="0" x2="1" y2="1"><stop stop-color="#fff0bd"></stop><stop offset=".34" stop-color="#dec180"></stop><stop offset=".68" stop-color="#ae8044"></stop><stop offset="1" stop-color="#edce91"></stop></linearGradient><linearGradient id="festival-term-shuangjiang-leaf" x1="0" y1="0" x2="1" y2="1"><stop stop-color="#abcaa0"></stop><stop offset=".43" stop-color="#689c7c"></stop><stop offset="1" stop-color="#2d6259"></stop></linearGradient><linearGradient id="festival-term-shuangjiang-pink" x1="0" y1="0" x2=".7" y2="1"><stop stop-color="#fff2e8"></stop><stop offset=".48" stop-color="#f3bcb7"></stop><stop offset="1" stop-color="#c56a74"></stop></linearGradient><linearGradient id="festival-term-shuangjiang-ivory" x1="0" y1="0" x2="1" y2="1"><stop stop-color="#fffdf0"></stop><stop offset=".6" stop-color="#eee7cd"></stop><stop offset="1" stop-color="#b9c4b0"></stop></linearGradient><radialGradient id="festival-term-shuangjiang-red" cx=".3" cy=".25" r=".8"><stop stop-color="#eb8a68"></stop><stop offset=".45" stop-color="#c34e3f"></stop><stop offset="1" stop-color="#842d35"></stop></radialGradient><radialGradient id="festival-term-shuangjiang-orange" cx=".3" cy=".2" r=".8"><stop stop-color="#f7c473"></stop><stop offset=".45" stop-color="#e48d42"></stop><stop offset="1" stop-color="#b8512d"></stop></radialGradient><linearGradient id="festival-term-shuangjiang-jade" x1="0" y1="0" x2="1" y2=".6"><stop stop-color="#d8e9db"></stop><stop offset=".45" stop-color="#98b9ae"></stop><stop offset="1" stop-color="#507f7c"></stop></linearGradient><linearGradient id="festival-term-shuangjiang-water" x1="0" y1="0" x2=".8" y2="1"><stop stop-color="#e3f5ee" stop-opacity=".85"></stop><stop offset=".55" stop-color="#a2cbd0" stop-opacity=".7"></stop><stop offset="1" stop-color="#527f96" stop-opacity=".9"></stop></linearGradient></defs><g><g class="festival-depth festival-botanical-breathe"><path d="M249 64q-50 28-74 96m30-52 23 55m-39-28-41-1" stroke="#806e52" stroke-width="3" fill="none" stroke-linecap="round"></path><g transform="translate(215 100) rotate(42) scale(0.63)"><g class="festival-foliage-breathe"><path d="M0 0C-15-12-16-31-5-47 12-37 20-15 0 0Z" fill="url(#festival-term-shuangjiang-gold)" stroke="#ac824d" stroke-width=".65"></path><path d="M0-2-5-42M-1-13-10-21m10 2 8-8M-3-28-10-32m7 5 9-10" fill="none" stroke="#fbdf9a" stroke-width=".8" opacity=".7"></path></g></g><g transform="translate(191 130) rotate(-64) scale(0.73)"><g class="festival-foliage-breathe"><path d="M0 0C-15-12-16-31-5-47 12-37 20-15 0 0Z" fill="url(#festival-term-shuangjiang-gold)" stroke="#ac824d" stroke-width=".65"></path><path d="M0-2-5-42M-1-13-10-21m10 2 8-8M-3-28-10-32m7 5 9-10" fill="none" stroke="#fbdf9a" stroke-width=".8" opacity=".7"></path></g></g><g transform="translate(157 191) scale(1)"><path d="M0-26C-42-43-51 6-26 28-8 44 12 42 32 23 53 2 35-43 0-26Z" fill="url(#festival-term-shuangjiang-orange)" stroke="#c17a3f" stroke-width="1"></path><path d="M0-29q-18-8-24 3 14 0 19 9 6-7 13-2 1-9 17-10-15-11-25 0" fill="#7c8451" stroke="#656f46" stroke-width=".8"></path><path d="M0-26 4-39" stroke="#846a44" stroke-width="3" stroke-linecap="round"></path><path d="M-23-7q-10 11-1 22" stroke="#fbd5a1" stroke-width="2.1" fill="none" stroke-linecap="round" opacity=".55"></path></g><g transform="translate(224 171) scale(0.72)"><path d="M0-26C-42-43-51 6-26 28-8 44 12 42 32 23 53 2 35-43 0-26Z" fill="url(#festival-term-shuangjiang-orange)" stroke="#c17a3f" stroke-width="1"></path><path d="M0-29q-18-8-24 3 14 0 19 9 6-7 13-2 1-9 17-10-15-11-25 0" fill="#7c8451" stroke="#656f46" stroke-width=".8"></path><path d="M0-26 4-39" stroke="#846a44" stroke-width="3" stroke-linecap="round"></path><path d="M-23-7q-10 11-1 22" stroke="#fbd5a1" stroke-width="2.1" fill="none" stroke-linecap="round" opacity=".55"></path></g><g transform="translate(97 143) rotate(-20)"><path d="m0 16-23-7 8-5-15-19 17 4 2-20 12 15L12-34l6 23 15-4L20 4l9 5-26 8Z" fill="url(#festival-term-shuangjiang-red)" stroke="#ba7860" stroke-width=".7"></path><path d="M0 28V-14M0 9-17-8M1 8l19-13" stroke="#e9c08b" stroke-width=".8" fill="none"></path></g><g transform="translate(230 110) scale(0.34)" stroke="#a7c5ca" fill="none" stroke-width="1.1" stroke-linecap="round"><path d="M0 0v-17m0 6-5-5m5 5 5-5m-5 11-4-4m4 4 4-4" transform="rotate(0)"></path><path d="M0 0v-17m0 6-5-5m5 5 5-5m-5 11-4-4m4 4 4-4" transform="rotate(60)"></path><path d="M0 0v-17m0 6-5-5m5 5 5-5m-5 11-4-4m4 4 4-4" transform="rotate(120)"></path><path d="M0 0v-17m0 6-5-5m5 5 5-5m-5 11-4-4m4 4 4-4" transform="rotate(180)"></path><path d="M0 0v-17m0 6-5-5m5 5 5-5m-5 11-4-4m4 4 4-4" transform="rotate(240)"></path><path d="M0 0v-17m0 6-5-5m5 5 5-5m-5 11-4-4m4 4 4-4" transform="rotate(300)"></path><circle r="2.5" fill="#edf7ee" stroke="none"></circle></g></g><text data-festival-label="" x="88" y="228" text-anchor="middle" dominant-baseline="central" font-family="KaiTi, STKaiti, &quot;Noto Serif CJK SC&quot;, serif" font-size="11.5" font-weight="500" letter-spacing=".8" fill="#93684e" stroke="#f9f0dc" stroke-width=".4" paint-order="stroke fill" stroke-linejoin="round">霜降</text></g></svg>