<svg viewBox="0 0 260 320" focusable="false" xmlns="http://www.w3.org/2000/svg"><defs><linearGradient id="festival-term-xiaohan-gold" x1="0" y1="0" x2="1" y2="1"><stop stop-color="#fff0bd"></stop><stop offset=".34" stop-color="#dec180"></stop><stop offset=".68" stop-color="#ae8044"></stop><stop offset="1" stop-color="#edce91"></stop></linearGradient><linearGradient id="festival-term-xiaohan-leaf" x1="0" y1="0" x2="1" y2="1"><stop stop-color="#abcaa0"></stop><stop offset=".43" stop-color="#689c7c"></stop><stop offset="1" stop-color="#2d6259"></stop></linearGradient><linearGradient id="festival-term-xiaohan-pink" x1="0" y1="0" x2=".7" y2="1"><stop stop-color="#fff2e8"></stop><stop offset=".48" stop-color="#f3bcb7"></stop><stop offset="1" stop-color="#c56a74"></stop></linearGradient><linearGradient id="festival-term-xiaohan-ivory" x1="0" y1="0" x2="1" y2="1"><stop stop-color="#fffdf0"></stop><stop offset=".6" stop-color="#eee7cd"></stop><stop offset="1" stop-color="#b9c4b0"></stop></linearGradient><radialGradient id="festival-term-xiaohan-red" cx=".3" cy=".25" r=".8"><stop stop-color="#eb8a68"></stop><stop offset=".45" stop-color="#c34e3f"></stop><stop offset="1" stop-color="#842d35"></stop></radialGradient><radialGradient id="festival-term-xiaohan-orange" cx=".3" cy=".2" r=".8"><stop stop-color="#f7c473"></stop><stop offset=".45" stop-color="#e48d42"></stop><stop offset="1" stop-color="#b8512d"></stop></radialGradient><linearGradient id="festival-term-xiaohan-jade" x1="0" y1="0" x2="1" y2=".6"><stop stop-color="#d8e9db"></stop><stop offset=".45" stop-color="#98b9ae"></stop><stop offset="1" stop-color="#507f7c"></stop></linearGradient><linearGradient id="festival-term-xiaohan-water" x1="0" y1="0" x2=".8" y2="1"><stop stop-color="#e3f5ee" stop-opacity=".85"></stop><stop offset=".55" stop-color="#a2cbd0" stop-opacity=".7"></stop><stop offset="1" stop-color="#527f96" stop-opacity=".9"></stop></linearGradient></defs><g><g class="festival-depth festival-botanical-breathe"><path d="M247 75Q209 114 183 164T95 233M192 148l-8-54m-29 91-44-18" stroke="#816d54" stroke-width="3" fill="none" stroke-linecap="round"></path><g transform="translate(225 98) scale(0.68)"><g transform="rotate(0)"><path d="M0 1C-14-5-14-20-5-23 0-25 4-23 7-18 14-8 8-1 0 1Z" fill="url(#festival-term-xiaohan-red)" stroke="#b55551" stroke-width=".7"></path><path d="M0-3q-4-8-4-14" stroke="#fff1d5" stroke-width=".7" fill="none" opacity=".65"></path></g><g transform="rotate(72)"><path d="M0 1C-14-5-14-20-5-23 0-25 4-23 7-18 14-8 8-1 0 1Z" fill="url(#festival-term-xiaohan-red)" stroke="#b55551" stroke-width=".7"></path><path d="M0-3q-4-8-4-14" stroke="#fff1d5" stroke-width=".7" fill="none" opacity=".65"></path></g><g transform="rotate(144)"><path d="M0 1C-14-5-14-20-5-23 0-25 4-23 7-18 14-8 8-1 0 1Z" fill="url(#festival-term-xiaohan-red)" stroke="#b55551" stroke-width=".7"></path><path d="M0-3q-4-8-4-14" stroke="#fff1d5" stroke-width=".7" fill="none" opacity=".65"></path></g><g transform="rotate(216)"><path d="M0 1C-14-5-14-20-5-23 0-25 4-23 7-18 14-8 8-1 0 1Z" fill="url(#festival-term-xiaohan-red)" stroke="#b55551" stroke-width=".7"></path><path d="M0-3q-4-8-4-14" stroke="#fff1d5" stroke-width=".7" fill="none" opacity=".65"></path></g><g transform="rotate(288)"><path d="M0 1C-14-5-14-20-5-23 0-25 4-23 7-18 14-8 8-1 0 1Z" fill="url(#festival-term-xiaohan-red)" stroke="#b55551" stroke-width=".7"></path><path d="M0-3q-4-8-4-14" stroke="#fff1d5" stroke-width=".7" fill="none" opacity=".65"></path></g><circle r="4" fill="#d6aa62"></circle><g transform="rotate(0)" stroke="#9a7441" stroke-width=".65"><path d="M0-2v-7"></path><circle cy="-9" r="1.25" fill="#f6d28b" stroke="none"></circle></g><g transform="rotate(60)" stroke="#9a7441" stroke-width=".65"><path d="M0-2v-7"></path><circle cy="-9" r="1.25" fill="#f6d28b" stroke="none"></circle></g><g transform="rotate(120)" stroke="#9a7441" stroke-width=".65"><path d="M0-2v-7"></path><circle cy="-9" r="1.25" fill="#f6d28b" stroke="none"></circle></g><g transform="rotate(180)" stroke="#9a7441" stroke-width=".65"><path d="M0-2v-7"></path><circle cy="-9" r="1.25" fill="#f6d28b" stroke="none"></circle></g><g transform="rotate(240)" stroke="#9a7441" stroke-width=".65"><path d="M0-2v-7"></path><circle cy="-9" r="1.25" fill="#f6d28b" stroke="none"></circle></g><g transform="rotate(300)" stroke="#9a7441" stroke-width=".65"><path d="M0-2v-7"></path><circle cy="-9" r="1.25" fill="#f6d28b" stroke="none"></circle></g></g><g transform="translate(184 97) scale(0.72)"><g transform="rotate(0)"><path d="M0 1C-14-5-14-20-5-23 0-25 4-23 7-18 14-8 8-1 0 1Z" fill="url(#festival-term-xiaohan-red)" stroke="#b55551" stroke-width=".7"></path><path d="M0-3q-4-8-4-14" stroke="#fff1d5" stroke-width=".7" fill="none" opacity=".65"></path></g><g transform="rotate(72)"><path d="M0 1C-14-5-14-20-5-23 0-25 4-23 7-18 14-8 8-1 0 1Z" fill="url(#festival-term-xiaohan-red)" stroke="#b55551" stroke-width=".7"></path><path d="M0-3q-4-8-4-14" stroke="#fff1d5" stroke-width=".7" fill="none" opacity=".65"></path></g><g transform="rotate(144)"><path d="M0 1C-14-5-14-20-5-23 0-25 4-23 7-18 14-8 8-1 0 1Z" fill="url(#festival-term-xiaohan-red)" stroke="#b55551" stroke-width=".7"></path><path d="M0-3q-4-8-4-14" stroke="#fff1d5" stroke-width=".7" fill="none" opacity=".65"></path></g><g transform="rotate(216)"><path d="M0 1C-14-5-14-20-5-23 0-25 4-23 7-18 14-8 8-1 0 1Z" fill="url(#festival-term-xiaohan-red)" stroke="#b55551" stroke-width=".7"></path><path d="M0-3q-4-8-4-14" stroke="#fff1d5" stroke-width=".7" fill="none" opacity=".65"></path></g><g transform="rotate(288)"><path d="M0 1C-14-5-14-20-5-23 0-25 4-23 7-18 14-8 8-1 0 1Z" fill="url(#festival-term-xiaohan-red)" stroke="#b55551" stroke-width=".7"></path><path d="M0-3q-4-8-4-14" stroke="#fff1d5" stroke-width=".7" fill="none" opacity=".65"></path></g><circle r="4" fill="#d6aa62"></circle><g transform="rotate(0)" stroke="#9a7441" stroke-width=".65"><path d="M0-2v-7"></path><circle cy="-9" r="1.25" fill="#f6d28b" stroke="none"></circle></g><g transform="rotate(60)" stroke="#9a7441" stroke-width=".65"><path d="M0-2v-7"></path><circle cy="-9" r="1.25" fill="#f6d28b" stroke="none"></circle></g><g transform="rotate(120)" stroke="#9a7441" stroke-width=".65"><path d="M0-2v-7"></path><circle cy="-9" r="1.25" fill="#f6d28b" stroke="none"></circle></g><g transform="rotate(180)" stroke="#9a7441" stroke-width=".65"><path d="M0-2v-7"></path><circle cy="-9" r="1.25" fill="#f6d28b" stroke="none"></circle></g><g transform="rotate(240)" stroke="#9a7441" stroke-width=".65"><path d="M0-2v-7"></path><circle cy="-9" r="1.25" fill="#f6d28b" stroke="none"></circle></g><g transform="rotate(300)" stroke="#9a7441" stroke-width=".65"><path d="M0-2v-7"></path><circle cy="-9" r="1.25" fill="#f6d28b" stroke="none"></circle></g></g><g transform="translate(177 167) scale(0.93)"><g transform="rotate(0)"><path d="M0 1C-14-5-14-20-5-23 0-25 4-23 7-18 14-8 8-1 0 1Z" fill="url(#festival-term-xiaohan-red)" stroke="#b55551" stroke-width=".7"></path><path d="M0-3q-4-8-4-14" stroke="#fff1d5" stroke-width=".7" fill="none" opacity=".65"></path></g><g transform="rotate(72)"><path d="M0 1C-14-5-14-20-5-23 0-25 4-23 7-18 14-8 8-1 0 1Z" fill="url(#festival-term-xiaohan-red)" stroke="#b55551" stroke-width=".7"></path><path d="M0-3q-4-8-4-14" stroke="#fff1d5" stroke-width=".7" fill="none" opacity=".65"></path></g><g transform="rotate(144)"><path d="M0 1C-14-5-14-20-5-23 0-25 4-23 7-18 14-8 8-1 0 1Z" fill="url(#festival-term-xiaohan-red)" stroke="#b55551" stroke-width=".7"></path><path d="M0-3q-4-8-4-14" stroke="#fff1d5" stroke-width=".7" fill="none" opacity=".65"></path></g><g transform="rotate(216)"><path d="M0 1C-14-5-14-20-5-23 0-25 4-23 7-18 14-8 8-1 0 1Z" fill="url(#festival-term-xiaohan-red)" stroke="#b55551" stroke-width=".7"></path><path d="M0-3q-4-8-4-14" stroke="#fff1d5" stroke-width=".7" fill="none" opacity=".65"></path></g><g transform="rotate(288)"><path d="M0 1C-14-5-14-20-5-23 0-25 4-23 7-18 14-8 8-1 0 1Z" fill="url(#festival-term-xiaohan-red)" stroke="#b55551" stroke-width=".7"></path><path d="M0-3q-4-8-4-14" stroke="#fff1d5" stroke-width=".7" fill="none" opacity=".65"></path></g><circle r="4" fill="#d6aa62"></circle><g transform="rotate(0)" stroke="#9a7441" stroke-width=".65"><path d="M0-2v-7"></path><circle cy="-9" r="1.25" fill="#f6d28b" stroke="none"></circle></g><g transform="rotate(60)" stroke="#9a7441" stroke-width=".65"><path d="M0-2v-7"></path><circle cy="-9" r="1.25" fill="#f6d28b" stroke="none"></circle></g><g transform="rotate(120)" stroke="#9a7441" stroke-width=".65"><path d="M0-2v-7"></path><circle cy="-9" r="1.25" fill="#f6d28b" stroke="none"></circle></g><g transform="rotate(180)" stroke="#9a7441" stroke-width=".65"><path d="M0-2v-7"></path><circle cy="-9" r="1.25" fill="#f6d28b" stroke="none"></circle></g><g transform="rotate(240)" stroke="#9a7441" stroke-width=".65"><path d="M0-2v-7"></path><circle cy="-9" r="1.25" fill="#f6d28b" stroke="none"></circle></g><g transform="rotate(300)" stroke="#9a7441" stroke-width=".65"><path d="M0-2v-7"></path><circle cy="-9" r="1.25" fill="#f6d28b" stroke="none"></circle></g></g><g transform="translate(114 168) scale(0.55)"><g transform="rotate(0)"><path d="M0 1C-14-5-14-20-5-23 0-25 4-23 7-18 14-8 8-1 0 1Z" fill="url(#festival-term-xiaohan-red)" stroke="#b55551" stroke-width=".7"></path><path d="M0-3q-4-8-4-14" stroke="#fff1d5" stroke-width=".7" fill="none" opacity=".65"></path></g><g transform="rotate(72)"><path d="M0 1C-14-5-14-20-5-23 0-25 4-23 7-18 14-8 8-1 0 1Z" fill="url(#festival-term-xiaohan-red)" stroke="#b55551" stroke-width=".7"></path><path d="M0-3q-4-8-4-14" stroke="#fff1d5" stroke-width=".7" fill="none" opacity=".65"></path></g><g transform="rotate(144)"><path d="M0 1C-14-5-14-20-5-23 0-25 4-23 7-18 14-8 8-1 0 1Z" fill="url(#festival-term-xiaohan-red)" stroke="#b55551" stroke-width=".7"></path><path d="M0-3q-4-8-4-14" stroke="#fff1d5" stroke-width=".7" fill="none" opacity=".65"></path></g><g transform="rotate(216)"><path d="M0 1C-14-5-14-20-5-23 0-25 4-23 7-18 14-8 8-1 0 1Z" fill="url(#festival-term-xiaohan-red)" stroke="#b55551" stroke-width=".7"></path><path d="M0-3q-4-8-4-14" stroke="#fff1d5" stroke-width=".7" fill="none" opacity=".65"></path></g><g transform="rotate(288)"><path d="M0 1C-14-5-14-20-5-23 0-25 4-23 7-18 14-8 8-1 0 1Z" fill="url(#festival-term-xiaohan-red)" stroke="#b55551" stroke-width=".7"></path><path d="M0-3q-4-8-4-14" stroke="#fff1d5" stroke-width=".7" fill="none" opacity=".65"></path></g><circle r="4" fill="#d6aa62"></circle><g transform="rotate(0)" stroke="#9a7441" stroke-width=".65"><path d="M0-2v-7"></path><circle cy="-9" r="1.25" fill="#f6d28b" stroke="none"></circle></g><g transform="rotate(60)" stroke="#9a7441" stroke-width=".65"><path d="M0-2v-7"></path><circle cy="-9" r="1.25" fill="#f6d28b" stroke="none"></circle></g><g transform="rotate(120)" stroke="#9a7441" stroke-width=".65"><path d="M0-2v-7"></path><circle cy="-9" r="1.25" fill="#f6d28b" stroke="none"></circle></g><g transform="rotate(180)" stroke="#9a7441" stroke-width=".65"><path d="M0-2v-7"></path><circle cy="-9" r="1.25" fill="#f6d28b" stroke="none"></circle></g><g transform="rotate(240)" stroke="#9a7441" stroke-width=".65"><path d="M0-2v-7"></path><circle cy="-9" r="1.25" fill="#f6d28b" stroke="none"></circle></g><g transform="rotate(300)" stroke="#9a7441" stroke-width=".65"><path d="M0-2v-7"></path><circle cy="-9" r="1.25" fill="#f6d28b" stroke="none"></circle></g></g><g transform="translate(137 209) scale(0.58)"><g transform="rotate(0)"><path d="M0 1C-14-5-14-20-5-23 0-25 4-23 7-18 14-8 8-1 0 1Z" fill="url(#festival-term-xiaohan-pink)" stroke="#cfaaa0" stroke-width=".7"></path><path d="M0-3q-4-8-4-14" stroke="#fff1d5" stroke-width=".7" fill="none" opacity=".65"></path></g><g transform="rotate(72)"><path d="M0 1C-14-5-14-20-5-23 0-25 4-23 7-18 14-8 8-1 0 1Z" fill="url(#festival-term-xiaohan-pink)" stroke="#cfaaa0" stroke-width=".7"></path><path d="M0-3q-4-8-4-14" stroke="#fff1d5" stroke-width=".7" fill="none" opacity=".65"></path></g><g transform="rotate(144)"><path d="M0 1C-14-5-14-20-5-23 0-25 4-23 7-18 14-8 8-1 0 1Z" fill="url(#festival-term-xiaohan-pink)" stroke="#cfaaa0" stroke-width=".7"></path><path d="M0-3q-4-8-4-14" stroke="#fff1d5" stroke-width=".7" fill="none" opacity=".65"></path></g><g transform="rotate(216)"><path d="M0 1C-14-5-14-20-5-23 0-25 4-23 7-18 14-8 8-1 0 1Z" fill="url(#festival-term-xiaohan-pink)" stroke="#cfaaa0" stroke-width=".7"></path><path d="M0-3q-4-8-4-14" stroke="#fff1d5" stroke-width=".7" fill="none" opacity=".65"></path></g><g transform="rotate(288)"><path d="M0 1C-14-5-14-20-5-23 0-25 4-23 7-18 14-8 8-1 0 1Z" fill="url(#festival-term-xiaohan-pink)" stroke="#cfaaa0" stroke-width=".7"></path><path d="M0-3q-4-8-4-14" stroke="#fff1d5" stroke-width=".7" fill="none" opacity=".65"></path></g><circle r="4" fill="#d6aa62"></circle><g transform="rotate(0)" stroke="#9a7441" stroke-width=".65"><path d="M0-2v-7"></path><circle cy="-9" r="1.25" fill="#f6d28b" stroke="none"></circle></g><g transform="rotate(60)" stroke="#9a7441" stroke-width=".65"><path d="M0-2v-7"></path><circle cy="-9" r="1.25" fill="#f6d28b" stroke="none"></circle></g><g transform="rotate(120)" stroke="#9a7441" stroke-width=".65"><path d="M0-2v-7"></path><circle cy="-9" r="1.25" fill="#f6d28b" stroke="none"></circle></g><g transform="rotate(180)" stroke="#9a7441" stroke-width=".65"><path d="M0-2v-7"></path><circle cy="-9" r="1.25" fill="#f6d28b" stroke="none"></circle></g><g transform="rotate(240)" stroke="#9a7441" stroke-width=".65"><path d="M0-2v-7"></path><circle cy="-9" r="1.25" fill="#f6d28b" stroke="none"></circle></g><g transform="rotate(300)" stroke="#9a7441" stroke-width=".65"><path d="M0-2v-7"></path><circle cy="-9" r="1.25" fill="#f6d28b" stroke="none"></circle></g></g><g transform="translate(208 172) rotate(-12) scale(0.68)"><path d="m-20 6-27-14 10 25 26 3Z" fill="#746555"></path><ellipse cx="-1" cy="7" rx="24" ry="19" fill="url(#festival-term-xiaohan-ivory)" stroke="#a9a798" stroke-width=".7"></ellipse><path d="M-24 7q-3-25 26-15 0 17-26 15" fill="#a08b69"></path><path d="m-23 7 16-11m-9 13 13-9" stroke="#d6c2a0" stroke-width="1.2"></path><circle cx="14" cy="-8" r="13" fill="#94745c"></circle><path d="M7-5q9-10 17-2 3 10-9 11Z" fill="#f4e9cd"></path><circle cx="20" cy="-8" r="2" fill="#304248"></circle><circle cx="20.5" cy="-8.6" r=".6" fill="#fff8de"></circle><path d="m26-7 8 3-8 2" fill="#9c7950"></path><path d="m-3 31 4-9m-6 9h10m6-2 4-8m-7 9h10" stroke="#8b7352" stroke-width="1.2" fill="none"></path></g><path d="M197 135q-3-14-3-24m-63 81 14-9" stroke="#eff2df" stroke-width="4" fill="none" stroke-linecap="round"></path><g transform="translate(121 104) scale(0.4)" stroke="#a7c5ca" fill="none" stroke-width="1.1" stroke-linecap="round"><path d="M0 0v-17m0 6-5-5m5 5 5-5m-5 11-4-4m4 4 4-4" transform="rotate(0)"></path><path d="M0 0v-17m0 6-5-5m5 5 5-5m-5 11-4-4m4 4 4-4" transform="rotate(60)"></path><path d="M0 0v-17m0 6-5-5m5 5 5-5m-5 11-4-4m4 4 4-4" transform="rotate(120)"></path><path d="M0 0v-17m0 6-5-5m5 5 5-5m-5 11-4-4m4 4 4-4" transform="rotate(180)"></path><path d="M0 0v-17m0 6-5-5m5 5 5-5m-5 11-4-4m4 4 4-4" transform="rotate(240)"></path><path d="M0 0v-17m0 6-5-5m5 5 5-5m-5 11-4-4m4 4 4-4" transform="rotate(300)"></path><circle r="2.5" fill="#edf7ee" stroke="none"></circle></g></g><text data-festival-label="" x="102" y="243" text-anchor="middle" dominant-baseline="central" font-family="KaiTi, STKaiti, &quot;Noto Serif CJK SC&quot;, serif" font-size="11.5" font-weight="500" letter-spacing=".8" fill="#93684e" stroke="#f9f0dc" stroke-width=".4" paint-order="stroke fill" stroke-linejoin="round">小寒</text></g></svg>